<svg width="235" height="70" viewBox="0 0 235 70" fill="none" xmlns="http://www.w3.org/2000/svg">
<path d="M20.255 27.2664L12.0605 15.5963L19.4051 6.84375H13.7096L5.21071 16.9282V6.84375H0.1875V27.2664H5.21071V23.7654L8.81322 19.4652L14.1789 27.2664H20.2803H20.255Z" fill="#FEFEFE"/>
<path d="M34.1542 11.9688H29.2832V19.0723C29.2832 20.5057 29.0042 21.5712 28.4587 22.2689C27.8752 22.9665 27.1141 23.3344 26.112 23.3344C25.3509 23.3344 24.704 23.0553 24.222 22.4845C23.7399 21.9391 23.4862 21.2033 23.4862 20.3154V11.9688H18.6406V21.3556C18.6406 23.271 19.1861 24.8058 20.2897 25.9602C21.3552 27.1525 22.7886 27.7234 24.5898 27.7234C26.5052 27.7234 28.0655 27.0891 29.2832 25.8079V27.2667H34.1542V11.9688Z" fill="#FEFEFE"/>
<path d="M40.4726 3.79688H35.6016V22.4183C35.6016 24.0039 36.0836 25.2851 37.0603 26.2618C37.999 27.2385 39.2802 27.7205 40.8658 27.7205C41.9694 27.7205 43.1491 27.4161 44.4683 26.7819L43.7072 22.9764C42.8827 23.2555 42.2992 23.4077 41.944 23.4077C41.4873 23.4077 41.1575 23.2808 40.8785 23.0398C40.5994 22.7988 40.4852 22.4563 40.4852 22.0631V3.80956L40.4726 3.79688Z" fill="#FEFEFE"/>
<path d="M46.9752 4.68456C46.1507 4.68456 45.4784 4.96363 44.9583 5.47102C44.4383 6.01647 44.1719 6.68877 44.1719 7.44986C44.1719 8.21096 44.4509 8.85788 44.9583 9.36528C45.4784 9.88536 46.1507 10.1517 46.9752 10.1517C47.7997 10.1517 48.472 9.87267 49.0175 9.36528C49.5376 8.8452 49.804 8.21096 49.804 7.44986C49.804 6.68877 49.5249 6.04184 49.0175 5.49639C48.472 4.95094 47.7997 4.67188 46.9752 4.67188V4.68456ZM49.4107 27.2636V11.9657H44.5397V27.2636H49.4107Z" fill="#FEFEFE"/>
<path d="M58.2112 11.5078C56.3846 11.5078 54.8624 11.9391 53.6066 12.789C52.3508 13.6769 51.539 14.8313 51.1965 16.3281L55.8011 17.2667C56.0167 15.9856 56.8666 15.3513 58.3634 15.3513C58.9977 15.3513 59.5558 15.5289 59.9491 15.9348C60.3423 16.3281 60.5326 16.8481 60.5326 17.4951V17.7995H56.6256C54.6087 17.7995 53.0612 18.2308 51.9322 19.1061C50.8033 19.994 50.2578 21.2117 50.2578 22.7339C50.2578 24.2307 50.7779 25.4485 51.8434 26.3618C52.8836 27.2751 54.2535 27.7318 55.9533 27.7318C57.7546 27.7318 59.2768 27.2117 60.5199 26.1462V27.2751H65.2133V17.5839C65.2133 15.6685 64.6044 14.1716 63.3486 13.1061C62.0928 12.0406 60.3677 11.5205 58.1985 11.5205L58.2112 11.5078ZM57.3233 24.0658C56.689 24.0658 56.169 23.9136 55.763 23.6346C55.3698 23.3555 55.1795 22.9623 55.1795 22.4802C55.1795 22.0236 55.3571 21.6303 55.725 21.3259C56.0548 21.0468 56.5495 20.8946 57.1584 20.8946H60.5072V21.2244C60.5072 22.0489 60.2028 22.7466 59.5685 23.2667C58.9343 23.7868 58.1985 24.0532 57.3106 24.0532L57.3233 24.0658Z" fill="#FEFEFE"/>
<path d="M75.996 11.5093C74.0806 11.5093 72.5204 12.1435 71.2772 13.4247V3.79688H66.4062V27.2639H71.2772V20.1604C71.2772 18.727 71.5563 17.6614 72.1271 16.9638C72.6726 16.2661 73.4337 15.8982 74.4104 15.8982C75.1969 15.8982 75.8438 16.1773 76.3258 16.7228C76.8078 17.3063 77.0615 18.0293 77.0615 18.9172V27.2639H81.9072V17.8771C81.9072 15.9617 81.3617 14.4268 80.2962 13.2471C79.1926 12.0928 77.7719 11.5093 75.996 11.5093Z" fill="#FEFEFE"/>
<path d="M9.25617 32.6318C7.88621 32.6318 6.6304 32.9362 5.50145 33.5705C4.3725 34.2047 3.45918 35.1307 2.82494 36.247V32.987H1.32812V55.2109H2.82494V44.6317C3.45918 45.7607 4.38518 46.6486 5.50145 47.2828C6.6304 47.9171 7.87352 48.2215 9.25617 48.2215C11.3619 48.2215 13.1251 47.4858 14.5838 46.0524C16.0426 44.619 16.7783 42.729 16.7783 40.4076C16.7783 38.1244 16.0426 36.2343 14.5838 34.7629C13.1251 33.3295 11.3492 32.5938 9.25617 32.5938V32.6318ZM9.07858 46.8896C7.40418 46.8896 5.94542 46.2807 4.68962 45.0884C3.43381 43.896 2.82494 42.3484 2.82494 40.4203C2.82494 38.5049 3.45918 36.9447 4.71499 35.7523C5.97079 34.5599 7.3915 33.951 9.07858 33.951C10.8164 33.951 12.3132 34.5345 13.531 35.7142C14.7234 36.9066 15.3322 38.4922 15.3322 40.4076C15.3322 42.3611 14.7234 43.9087 13.531 45.101C12.3386 46.2934 10.8545 46.8642 9.07858 46.8642V46.8896Z" fill="#FEFEFE"/>
<path d="M32.6869 40.0408C32.5981 37.8463 31.9004 36.045 30.5558 34.6751C29.1859 33.3051 27.4734 32.6328 25.4312 32.6328C23.3255 32.6328 21.5242 33.3685 20.002 34.8019C18.4798 36.2607 17.7188 38.1507 17.7188 40.4974C17.7188 42.8188 18.4798 44.6708 19.9767 46.1041C21.4735 47.5375 23.2367 48.2352 25.2536 48.2352C26.9914 48.2352 28.4502 47.8039 29.6679 46.9794C30.8857 46.1549 31.7736 44.9625 32.3444 43.415L31.0379 43.1105C30.0358 45.6348 28.0823 46.916 25.2409 46.916C23.6553 46.916 22.2599 46.3325 21.0295 45.1782C19.8118 44.0238 19.2029 42.5016 19.1648 40.5735H32.6615V40.0281L32.6869 40.0408ZM25.4312 33.9774C26.9914 33.9774 28.2599 34.4594 29.3381 35.4108C30.4036 36.3875 31.0125 37.7321 31.2028 39.4319H19.2536C19.4693 37.7829 20.1669 36.4763 21.3847 35.4742C22.5771 34.4721 23.947 33.9774 25.4438 33.9774H25.4312Z" fill="#FEFEFE"/>
<path d="M42.6314 32.6328C39.7646 32.6328 37.7224 33.8252 36.5046 36.1719V33.0007H35.0078V47.9054H36.5046V40.434C36.5046 38.4552 37.0501 36.8949 38.1156 35.7406C39.1811 34.6117 40.6399 34.0281 42.4411 34.0281C43.8492 34.0281 44.9654 34.5102 45.8534 35.4615C46.7033 36.4002 47.1346 37.6814 47.1346 39.2416V47.8927H48.6314V39.026C48.6314 37.1106 48.0859 35.5757 46.9823 34.396C45.8534 33.2036 44.42 32.6328 42.6187 32.6328H42.6314Z" fill="#FEFEFE"/>
<path d="M65.6244 40.0408C65.5356 37.8463 64.8379 36.045 63.4933 34.6751C62.1234 33.3051 60.4109 32.6328 58.3687 32.6328C56.263 32.6328 54.4617 33.3685 52.9395 34.8019C51.4173 36.2607 50.6562 38.1507 50.6562 40.4974C50.6562 42.8188 51.4173 44.6708 52.9142 46.1041C54.411 47.5375 56.1742 48.2352 58.1911 48.2352C59.9289 48.2352 61.3877 47.8039 62.6054 46.9794C63.8232 46.1549 64.7111 44.9625 65.2819 43.415L63.9754 43.1105C62.9733 45.6348 61.0198 46.916 58.1784 46.916C56.5928 46.916 55.1974 46.3325 53.967 45.1782C52.7493 44.0238 52.1404 42.5016 52.1023 40.5735H65.599V40.0281L65.6244 40.0408ZM58.3687 33.9774C59.9289 33.9774 61.1974 34.4594 62.2756 35.4108C63.3411 36.3875 63.95 37.7321 64.1403 39.4319H52.1911C52.4068 37.7829 53.1044 36.4763 54.3222 35.4742C55.5146 34.4721 56.8845 33.9774 58.3813 33.9774H58.3687Z" fill="#FEFEFE"/>
<path d="M85.8007 32.6299C84.4942 32.6299 83.3652 32.9343 82.3505 33.5432C81.3484 34.1774 80.5873 35.04 80.0291 36.1309C79.6993 35.0654 79.0524 34.2155 78.1391 33.5686C77.2004 32.9343 76.1222 32.6299 74.8791 32.6299C72.3548 32.6299 70.5155 33.7335 69.4499 35.9153V32.985H67.9531V47.8898H69.4499V40.0505C69.4499 38.1858 69.9066 36.7271 70.858 35.6362C71.7713 34.5707 72.989 34.0252 74.5493 34.0252C75.8304 34.0252 76.8706 34.4184 77.6571 35.1795C78.4181 35.9406 78.8114 36.9808 78.8114 38.262V47.8898H80.3082V40.0505C80.3082 38.1858 80.7648 36.7017 81.7162 35.6362C82.6549 34.5707 83.9107 34.0252 85.4709 34.0252C86.7521 34.0252 87.7923 34.4184 88.5787 35.1795C89.3398 35.9406 89.7331 36.9808 89.7331 38.262V47.8898H91.2299V38.0463C91.2299 36.4353 90.7098 35.1161 89.7077 34.114C88.7056 33.1119 87.3864 32.6172 85.8007 32.6172V32.6299Z" fill="#FEFEFE"/>
<path d="M102.631 32.6318C101.261 32.6318 100.005 32.9362 98.8764 33.5705C97.7475 34.2047 96.8342 35.1307 96.1999 36.247V32.987H94.7031V55.2109H96.1999V44.6317C96.8342 45.7607 97.7602 46.6486 98.8764 47.2828C100.005 47.9171 101.249 48.2215 102.631 48.2215C104.737 48.2215 106.5 47.4858 107.959 46.0524C109.418 44.619 110.153 42.729 110.153 40.4076C110.153 38.1244 109.418 36.2343 107.959 34.7629C106.5 33.3295 104.724 32.5938 102.631 32.5938V32.6318ZM102.454 46.8896C100.779 46.8896 99.3204 46.2807 98.0646 45.0884C96.8088 43.896 96.1999 42.3484 96.1999 40.4203C96.1999 38.5049 96.8342 36.9447 98.09 35.7523C99.3458 34.5599 100.766 33.951 102.454 33.951C104.191 33.951 105.688 34.5345 106.906 35.7142C108.098 36.9066 108.707 38.4922 108.707 40.4076C108.707 42.3611 108.098 43.9087 106.906 45.101C105.714 46.2934 104.229 46.8642 102.454 46.8642V46.8896Z" fill="#FEFEFE"/>
<path d="M117.991 32.6299C116.406 32.6299 115.061 33.0231 113.932 33.8476C112.803 34.6721 112.131 35.7123 111.915 37.0188L113.323 37.3867C113.501 36.3465 114.021 35.522 114.884 34.8878C115.733 34.2789 116.799 33.9745 118.055 33.9745C119.425 33.9745 120.49 34.3677 121.315 35.1288C122.139 35.8899 122.533 36.9554 122.533 38.3254V39.2641L117.141 39.2387C115.188 39.2387 113.691 39.67 112.664 40.5199C111.598 41.3698 111.078 42.4987 111.078 43.8687C111.078 45.1498 111.56 46.19 112.537 47.0018C113.476 47.8264 114.757 48.2196 116.38 48.2196C117.75 48.2196 118.968 47.9151 120.034 47.3316C121.099 46.7481 121.949 45.9617 122.533 44.9596V47.8898H123.966V38.262C123.966 36.4988 123.421 35.1288 122.355 34.114C121.289 33.1119 119.831 32.6172 117.991 32.6172V32.6299ZM116.533 46.9892C115.34 46.9892 114.364 46.6847 113.64 46.1012C112.879 45.5177 112.512 44.7566 112.512 43.8433C112.512 42.8412 112.905 42.042 113.704 41.4078C114.49 40.7989 115.619 40.4945 117.116 40.4945H122.545V41.5854C122.545 43.1076 121.962 44.3888 120.807 45.4289C119.615 46.4691 118.22 46.9892 116.545 46.9892H116.533Z" fill="#FEFEFE"/>
<path d="M134.53 45.8394C133.743 46.5117 132.881 46.8415 131.942 46.8415C131.029 46.8415 130.293 46.5371 129.747 45.9536C129.164 45.37 128.897 44.609 128.897 43.6069V34.2835H134.479V33.0023H128.897V27.4844H127.401V33.0023H124.141V34.2835H127.401V43.6956C127.401 45.129 127.794 46.2199 128.618 47.0191C129.443 47.8436 130.508 48.2368 131.853 48.2368C132.982 48.2368 134.073 47.8436 135.113 47.0445L134.53 45.8267V45.8394Z" fill="#FEFEFE"/>
<path d="M142.195 32.6299C140.609 32.6299 139.264 33.0231 138.135 33.8476C137.006 34.6721 136.334 35.7123 136.118 37.0188L137.526 37.3867C137.704 36.3465 138.224 35.522 139.087 34.8878C139.937 34.2789 141.002 33.9745 142.258 33.9745C143.628 33.9745 144.693 34.3677 145.518 35.1288C146.342 35.8899 146.736 36.9554 146.736 38.3254V39.2641L141.345 39.2387C139.391 39.2387 137.894 39.67 136.867 40.5199C135.801 41.3698 135.281 42.4987 135.281 43.8687C135.281 45.1498 135.763 46.19 136.74 47.0018C137.679 47.8264 138.96 48.2196 140.584 48.2196C141.953 48.2196 143.171 47.9151 144.237 47.3316C145.302 46.7481 146.152 45.9617 146.736 44.9596V47.8898H148.169V38.262C148.169 36.4988 147.624 35.1288 146.558 34.114C145.493 33.1119 144.034 32.6172 142.195 32.6172V32.6299ZM140.736 46.9892C139.543 46.9892 138.567 46.6847 137.844 46.1012C137.083 45.5177 136.715 44.7566 136.715 43.8433C136.715 42.8412 137.108 42.042 137.907 41.4078C138.693 40.7989 139.822 40.4945 141.319 40.4945H146.748V41.5854C146.748 43.1076 146.165 44.3888 145.011 45.4289C143.818 46.4691 142.423 46.9892 140.748 46.9892H140.736Z" fill="#FEFEFE"/>
<path d="M158.889 32.6328C156.022 32.6328 153.98 33.8252 152.762 36.1719V33.0007H151.266V47.9054H152.762V40.434C152.762 38.4552 153.308 36.8949 154.373 35.7406C155.439 34.6117 156.898 34.0281 158.699 34.0281C160.107 34.0281 161.223 34.5102 162.111 35.4615C162.961 36.4002 163.392 37.6814 163.392 39.2416V47.8927H164.889V39.026C164.889 37.1106 164.344 35.5757 163.24 34.396C162.111 33.2036 160.678 32.6328 158.877 32.6328H158.889Z" fill="#FEFEFE"/>
<path d="M187.271 47.907L179.076 36.2369L186.421 27.4844H180.725L172.226 37.5689V27.4844H167.203V47.907H172.226V44.406L175.829 40.1058L181.195 47.907H187.296H187.271Z" fill="#FEFEFE"/>
<path d="M201.079 40.2541C201.053 37.8186 200.254 35.8651 198.757 34.3683C197.26 32.8715 195.408 32.1484 193.176 32.1484C190.893 32.1484 188.965 32.9095 187.417 34.4317C185.857 35.9539 185.07 37.9074 185.07 40.2541C185.07 42.6261 185.857 44.5796 187.417 46.0764C188.977 47.5986 190.893 48.3597 193.151 48.3597C194.952 48.3597 196.499 47.9665 197.819 47.142C199.125 46.3555 200.102 45.1631 200.749 43.5775L196.423 42.6896C195.789 43.8819 194.685 44.4528 193.163 44.4528C192.339 44.4528 191.641 44.1737 191.058 43.6663C190.474 43.1462 190.081 42.4105 189.865 41.4972H201.079V40.2414V40.2541ZM193.189 36.1061C193.924 36.1061 194.559 36.3218 195.104 36.715C195.649 37.1082 196.043 37.7171 196.258 38.5162H189.954C190.17 37.7552 190.588 37.1716 191.21 36.753C191.819 36.3218 192.491 36.1188 193.189 36.1188V36.1061Z" fill="#FEFEFE"/>
<path d="M211.89 32.3877C209.632 32.3877 207.869 33.4278 206.613 35.5208V32.5906H201.742V47.8886H206.613V43.1064C206.613 39.3009 208.376 37.3728 211.89 37.3728H212.778L212.994 32.5018C212.664 32.4131 212.296 32.375 211.89 32.375V32.3877Z" fill="#FEFEFE"/>
<path d="M216.216 25.3252C215.392 25.3252 214.719 25.6043 214.199 26.1116C213.679 26.6571 213.413 27.3294 213.413 28.0905C213.413 28.8516 213.692 29.4985 214.199 30.0059C214.719 30.526 215.392 30.7924 216.216 30.7924C217.041 30.7924 217.713 30.5133 218.258 30.0059C218.778 29.4858 219.045 28.8516 219.045 28.0905C219.045 27.3294 218.766 26.6825 218.258 26.137C217.713 25.5916 217.041 25.3125 216.216 25.3125V25.3252ZM210.609 54.8936C211.675 55.3249 212.74 55.5279 213.806 55.5279C215.303 55.5279 216.482 55.0712 217.37 54.1833C218.258 53.2953 218.677 52.1156 218.677 50.6188V32.6063H213.831V50.0734C213.831 50.4412 213.704 50.7457 213.502 50.9613C213.261 51.177 212.956 51.2911 212.563 51.2911C212.284 51.2911 211.865 51.2023 211.345 51.0501L210.609 54.8936Z" fill="#FEFEFE"/>
<path d="M227.453 32.1484C225.627 32.1484 224.105 32.5797 222.849 33.4296C221.593 34.3176 220.781 35.4719 220.439 36.9687L225.043 37.9074C225.259 36.6262 226.109 35.992 227.606 35.992C228.24 35.992 228.798 36.1695 229.191 36.5755C229.584 36.9687 229.775 37.4888 229.775 38.1357V38.4401H225.868C223.851 38.4401 222.303 38.8714 221.174 39.7467C220.045 40.6346 219.5 41.8524 219.5 43.3746C219.5 44.8714 220.02 46.0891 221.086 47.0024C222.126 47.9157 223.496 48.3724 225.196 48.3724C226.997 48.3724 228.519 47.8523 229.762 46.7868V47.9157H234.455V38.2245C234.455 36.3091 233.847 34.8123 232.591 33.7467C231.335 32.6812 229.61 32.1611 227.441 32.1611L227.453 32.1484ZM226.565 44.7065C225.931 44.7065 225.411 44.5542 225.005 44.2752C224.612 43.9961 224.422 43.6029 224.422 43.1209C224.422 42.6642 224.599 42.271 224.967 41.9665C225.297 41.6875 225.792 41.5352 226.401 41.5352H229.749V41.8651C229.749 42.6896 229.445 43.3872 228.811 43.9073C228.176 44.4274 227.441 44.6938 226.553 44.6938L226.565 44.7065Z" fill="#FEFEFE"/>
<path fill-rule="evenodd" clip-rule="evenodd" d="M84.5008 4.64734L101.448 0.106152C103.11 -0.337819 104.822 0.651602 105.266 2.31332L109.807 19.2603C110.251 20.922 109.262 22.6345 107.6 23.0785L90.653 27.6196C88.9913 28.0636 87.2788 27.0742 86.8348 25.4125L82.2937 8.46548C81.8497 6.80377 82.8391 5.09131 84.5008 4.64734ZM103.439 20.5669L104.923 17.662L102.399 16.4316C102.615 15.2265 102.539 13.9327 102.171 12.5754L101.892 11.5479L98.5937 12.4359L98.8728 13.4633C98.9996 13.9454 99.0757 14.402 99.0884 14.8206L95.1054 12.8925C94.2935 12.4866 93.7227 12.1314 93.3802 11.8143C93.0377 11.4972 92.8094 11.142 92.6952 10.7361C92.5684 10.2794 92.6191 9.88619 92.8475 9.55638C93.0631 9.22658 93.4056 8.99825 93.8623 8.88409C94.8897 8.60502 95.6381 9.1251 96.1075 10.4316L99.3168 8.93483C98.7713 7.67902 97.9722 6.7784 96.9066 6.22026C95.8411 5.66213 94.5726 5.57333 93.0885 5.97925C91.617 6.37248 90.5135 7.09552 89.7777 8.13568C89.042 9.17584 88.839 10.3302 89.1815 11.586C89.4606 12.6515 90.0949 13.5521 91.0589 14.3005C89.6001 15.6959 89.0927 17.2307 89.5367 18.8798C89.9173 20.3258 90.7925 21.3279 92.1498 21.8988C93.5071 22.4696 95.08 22.5076 96.8939 22.0256C98.6571 21.5563 100.04 20.681 101.067 19.3998L103.452 20.5922L103.439 20.5669ZM96.2343 19.032C95.4352 19.2476 94.7375 19.2349 94.1667 19.0066C93.5959 18.7656 93.228 18.3597 93.0631 17.7635C92.8855 17.0912 93.1012 16.4316 93.6974 15.7847L98.0483 17.9157C97.5536 18.4739 96.9447 18.8417 96.2343 19.032Z" fill="#FEFEFE"/>
<path d="M20.255 27.2664L12.0605 15.5963L19.4051 6.84375H13.7096L5.21071 16.9282V6.84375H0.1875V27.2664H5.21071V23.7654L8.81322 19.4652L14.1789 27.2664H20.2803H20.255Z" fill="#009DA5"/>
<path d="M34.1542 11.9688H29.2832V19.0723C29.2832 20.5057 29.0042 21.5712 28.4587 22.2689C27.8752 22.9665 27.1141 23.3344 26.112 23.3344C25.3509 23.3344 24.704 23.0553 24.222 22.4845C23.7399 21.9391 23.4862 21.2033 23.4862 20.3154V11.9688H18.6406V21.3556C18.6406 23.271 19.1861 24.8058 20.2897 25.9602C21.3552 27.1525 22.7886 27.7234 24.5898 27.7234C26.5052 27.7234 28.0655 27.0891 29.2832 25.8079V27.2667H34.1542V11.9688Z" fill="#009DA5"/>
<path d="M40.4726 3.79688H35.6016V22.4183C35.6016 24.0039 36.0836 25.2851 37.0603 26.2618C37.999 27.2385 39.2802 27.7205 40.8658 27.7205C41.9694 27.7205 43.1491 27.4161 44.4683 26.7819L43.7072 22.9764C42.8827 23.2555 42.2992 23.4077 41.944 23.4077C41.4873 23.4077 41.1575 23.2808 40.8785 23.0398C40.5994 22.7988 40.4852 22.4563 40.4852 22.0631V3.80956L40.4726 3.79688Z" fill="#009DA5"/>
<path d="M46.9752 4.68456C46.1507 4.68456 45.4784 4.96363 44.9583 5.47102C44.4383 6.01647 44.1719 6.68877 44.1719 7.44986C44.1719 8.21096 44.4509 8.85788 44.9583 9.36528C45.4784 9.88536 46.1507 10.1517 46.9752 10.1517C47.7997 10.1517 48.472 9.87267 49.0175 9.36528C49.5376 8.8452 49.804 8.21096 49.804 7.44986C49.804 6.68877 49.5249 6.04184 49.0175 5.49639C48.472 4.95094 47.7997 4.67188 46.9752 4.67188V4.68456ZM49.4107 27.2636V11.9657H44.5397V27.2636H49.4107Z" fill="#009DA5"/>
<path d="M58.2112 11.5078C56.3846 11.5078 54.8624 11.9391 53.6066 12.789C52.3508 13.6769 51.539 14.8313 51.1965 16.3281L55.8011 17.2667C56.0167 15.9856 56.8666 15.3513 58.3634 15.3513C58.9977 15.3513 59.5558 15.5289 59.9491 15.9348C60.3423 16.3281 60.5326 16.8481 60.5326 17.4951V17.7995H56.6256C54.6087 17.7995 53.0612 18.2308 51.9322 19.1061C50.8033 19.994 50.2578 21.2117 50.2578 22.7339C50.2578 24.2307 50.7779 25.4485 51.8434 26.3618C52.8836 27.2751 54.2535 27.7318 55.9533 27.7318C57.7546 27.7318 59.2768 27.2117 60.5199 26.1462V27.2751H65.2133V17.5839C65.2133 15.6685 64.6044 14.1716 63.3486 13.1061C62.0928 12.0406 60.3677 11.5205 58.1985 11.5205L58.2112 11.5078ZM57.3233 24.0658C56.689 24.0658 56.169 23.9136 55.763 23.6346C55.3698 23.3555 55.1795 22.9623 55.1795 22.4802C55.1795 22.0236 55.3571 21.6303 55.725 21.3259C56.0548 21.0468 56.5495 20.8946 57.1584 20.8946H60.5072V21.2244C60.5072 22.0489 60.2028 22.7466 59.5685 23.2667C58.9343 23.7868 58.1985 24.0532 57.3106 24.0532L57.3233 24.0658Z" fill="#009DA5"/>
<path d="M75.996 11.5093C74.0806 11.5093 72.5204 12.1435 71.2772 13.4247V3.79688H66.4062V27.2639H71.2772V20.1604C71.2772 18.727 71.5563 17.6614 72.1271 16.9638C72.6726 16.2661 73.4337 15.8982 74.4104 15.8982C75.1969 15.8982 75.8438 16.1773 76.3258 16.7228C76.8078 17.3063 77.0615 18.0293 77.0615 18.9172V27.2639H81.9072V17.8771C81.9072 15.9617 81.3617 14.4268 80.2962 13.2471C79.1926 12.0928 77.7719 11.5093 75.996 11.5093Z" fill="#009DA5"/>
<path d="M8.08135 60.552H9.59085L9.75575 59.9685H8.23357L8.91855 57.3047H8.28431L7.59933 59.9685H4.55496L5.23994 57.3047H4.6057L3.92071 59.9685H2.41121L2.24631 60.552H3.76849L2.99472 63.5583H1.48522L1.32031 64.1545H2.8425L2.19557 66.6534H2.8425L3.48943 64.1545H6.52111L5.87418 66.6534H6.50843L7.15536 64.1545H8.67754L8.82976 63.5583H7.30757L8.08135 60.552ZM7.47248 60.552L6.68601 63.5583H3.65433L4.42811 60.552H7.47248Z" fill="#009DA5"/>
<path d="M14.3079 59.4297C13.4326 59.4297 12.7096 59.7215 12.1388 60.305V55.8906H9.90625V66.6474H12.1388V63.3874C12.1388 62.7278 12.2656 62.2457 12.532 61.9159C12.7857 61.5988 13.1282 61.4212 13.5849 61.4212C13.9527 61.4212 14.2445 61.5481 14.4601 61.8018C14.6884 62.0682 14.7899 62.398 14.7899 62.8039V66.6347H17.0098V62.3345C17.0098 61.4593 16.7561 60.7616 16.2741 60.2162C15.7667 59.6834 15.1197 59.417 14.3079 59.417V59.4297Z" fill="#009DA5"/>
<path d="M20.6689 59.4297C19.8317 59.4297 19.134 59.62 18.5632 60.0132C17.9924 60.4191 17.6118 60.9519 17.4596 61.6369L19.5653 62.0681C19.6668 61.4846 20.06 61.1929 20.745 61.1929C21.0367 61.1929 21.2904 61.2817 21.468 61.4593C21.6456 61.6369 21.7344 61.8779 21.7344 62.1696V62.3092H19.9458C19.0198 62.3092 18.3095 62.4994 17.7894 62.9053C17.2693 63.3113 17.0156 63.8694 17.0156 64.5671C17.0156 65.252 17.2566 65.8102 17.7387 66.2288C18.208 66.6474 18.8422 66.863 19.6287 66.863C20.4532 66.863 21.1509 66.622 21.7217 66.14V66.6601H23.8781V62.2204C23.8781 61.3451 23.5991 60.6601 23.0283 60.1654C22.4574 59.6707 21.6583 59.4424 20.6689 59.4424V59.4297ZM20.263 65.1886C19.9712 65.1886 19.7302 65.1125 19.5526 64.9983C19.375 64.8715 19.2862 64.6939 19.2862 64.4656C19.2862 64.2499 19.375 64.0724 19.5399 63.9328C19.6921 63.806 19.9205 63.7425 20.1995 63.7425H21.7344V63.8948C21.7344 64.2753 21.5949 64.5924 21.3031 64.8334C21.0114 65.0745 20.6689 65.2013 20.263 65.2013V65.1886Z" fill="#009DA5"/>
<path d="M28.639 59.4297C27.7637 59.4297 27.0407 59.7214 26.4825 60.3049V59.6326H24.25V66.6474H26.4825V63.3874C26.4825 62.7278 26.6094 62.233 26.8758 61.9032C27.1295 61.5861 27.472 61.4339 27.9413 61.4339C28.2965 61.4339 28.5882 61.5607 28.8039 61.8144C29.0322 62.0808 29.1337 62.4106 29.1337 62.8165V66.6474H31.3535V62.3472C31.3535 61.472 31.0998 60.7743 30.6178 60.2288C30.1104 59.6961 29.4635 59.4297 28.639 59.4297Z" fill="#009DA5"/>
<path d="M39.0606 59.625H36.6632L34.8873 63.7349L33.2256 59.625H30.8281L33.733 66.4114L32.1854 70.0012H34.6082L39.0733 59.625H39.0606Z" fill="#009DA5"/>
<path d="M41.6689 59.4297C40.8317 59.4297 40.134 59.62 39.5632 60.0132C38.9924 60.4191 38.6118 60.9519 38.4596 61.6369L40.5653 62.0681C40.6668 61.4846 41.06 61.1929 41.745 61.1929C42.0367 61.1929 42.2904 61.2817 42.468 61.4593C42.6456 61.6369 42.7344 61.8779 42.7344 62.1696V62.3092H40.9458C40.0198 62.3092 39.3095 62.4994 38.7894 62.9053C38.2693 63.3113 38.0156 63.8694 38.0156 64.5671C38.0156 65.252 38.2566 65.8102 38.7387 66.2288C39.208 66.6474 39.8422 66.863 40.6287 66.863C41.4532 66.863 42.1509 66.622 42.7217 66.14V66.6601H44.8781V62.2204C44.8781 61.3451 44.5991 60.6601 44.0283 60.1654C43.4574 59.6707 42.6583 59.4424 41.6689 59.4424V59.4297ZM41.263 65.1886C40.9712 65.1886 40.7302 65.1125 40.5526 64.9983C40.375 64.8715 40.2862 64.6939 40.2862 64.4656C40.2862 64.2499 40.375 64.0724 40.5399 63.9328C40.6921 63.806 40.9205 63.7425 41.1995 63.7425H42.7344V63.8948C42.7344 64.2753 42.5949 64.5924 42.3031 64.8334C42.0114 65.0745 41.6689 65.2013 41.263 65.2013V65.1886Z" fill="#009DA5"/>
<path d="M52.1924 55.8906H51.5074V61.3071C51.2157 60.787 50.8098 60.3684 50.2897 60.0766C49.7696 59.7849 49.1861 59.6453 48.5518 59.6453C47.5878 59.6453 46.776 59.9752 46.1037 60.6348C45.4314 61.3071 45.1016 62.1696 45.1016 63.2225C45.1016 64.288 45.4314 65.1506 46.1037 65.8102C46.776 66.4698 47.5878 66.7996 48.5518 66.7996C49.1861 66.7996 49.7696 66.6601 50.2897 66.3683C50.8098 66.0766 51.2157 65.6707 51.5074 65.1506V66.6474H52.1924V55.8906ZM48.6406 66.1907C47.8288 66.1907 47.1438 65.9244 46.5984 65.3789C46.0529 64.8335 45.7739 64.1231 45.7739 63.2225C45.7739 62.3472 46.0529 61.6115 46.6111 61.0661C47.1565 60.5206 47.8415 60.2542 48.6406 60.2542C49.4144 60.2542 50.074 60.5333 50.6575 61.0787C51.2284 61.6242 51.5074 62.3345 51.5074 63.2098C51.5074 64.0851 51.2284 64.8081 50.6575 65.3409C50.0867 65.8863 49.4144 66.1654 48.6406 66.1654V66.1907Z" fill="#009DA5"/>
<path d="M54.2173 57.2109C54.0651 57.2109 53.9256 57.2617 53.8241 57.3632C53.7226 57.4646 53.6719 57.5915 53.6719 57.7437C53.6719 57.8959 53.7226 58.0101 53.8241 58.1116C53.9256 58.213 54.0651 58.2638 54.2173 58.2638C54.3695 58.2638 54.4964 58.213 54.5979 58.1116C54.6993 58.0101 54.7501 57.8959 54.7501 57.7437C54.7501 57.5915 54.6993 57.4646 54.5979 57.3632C54.4964 57.2617 54.3695 57.2109 54.2173 57.2109ZM54.5471 66.6485V59.8113H53.8748V66.6485H54.5471Z" fill="#009DA5"/>
<path d="M55.7031 57.2891V66.6505H58.0118V63.7837H60.2189C61.2972 63.7837 62.1597 63.492 62.8067 62.8958C63.4409 62.2996 63.758 61.5131 63.758 60.5237C63.758 59.5597 63.4536 58.7732 62.832 58.177C62.1978 57.5935 61.3606 57.3017 60.3204 57.3017H55.7158L55.7031 57.2891ZM58.0118 61.8556V59.2552H60.054C60.4853 59.2552 60.8405 59.3694 61.1069 59.6104C61.3733 59.8514 61.5001 60.1685 61.5001 60.5491C61.5001 60.955 61.3733 61.2594 61.1196 61.5004C60.8532 61.7415 60.5107 61.8683 60.054 61.8683H58.0118V61.8556Z" fill="#009DA5"/>
<path d="M67.3503 59.4609C66.2594 59.4609 65.3334 59.8161 64.5977 60.4884C63.8493 61.1734 63.4688 62.0613 63.4688 63.1396C63.4688 64.2305 63.8493 65.1184 64.5977 65.8034C65.3334 66.4884 66.2594 66.8308 67.3503 66.8308C68.4285 66.8308 69.3292 66.4757 70.0776 65.8034C70.8133 65.1184 71.1938 64.2305 71.1938 63.1396C71.1938 62.0613 70.8133 61.1734 70.0776 60.4884C69.3418 59.8034 68.4285 59.4609 67.3503 59.4609ZM67.3503 64.9662C66.881 64.9662 66.4751 64.8013 66.1326 64.4461C65.7774 64.1163 65.6125 63.6723 65.6125 63.1522C65.6125 62.6195 65.7774 62.1882 66.1326 61.833C66.4878 61.5032 66.881 61.3256 67.3503 61.3256C67.7943 61.3256 68.1875 61.4905 68.5427 61.833C68.8725 62.1882 69.0501 62.6195 69.0501 63.1522C69.0501 63.685 68.8852 64.1163 68.5427 64.4461C68.2129 64.8013 67.8197 64.9662 67.3503 64.9662Z" fill="#009DA5"/>
<path d="M73.4513 55.8906H71.2188V64.4275C71.2188 65.1506 71.4471 65.7468 71.891 66.1907C72.3223 66.6347 72.9058 66.863 73.6416 66.863C74.149 66.863 74.6944 66.7235 75.2906 66.4318L74.9354 64.6812C74.5549 64.8081 74.2885 64.8715 74.1236 64.8715C73.9079 64.8715 73.7557 64.8208 73.6289 64.7066C73.502 64.5925 73.4513 64.4402 73.4513 64.2626V55.8906Z" fill="#009DA5"/>
<path d="M76.247 56.2969C75.8664 56.2969 75.562 56.4237 75.321 56.6647C75.08 56.9184 74.9531 57.2229 74.9531 57.578C74.9531 57.9332 75.08 58.225 75.321 58.4533C75.562 58.6943 75.8664 58.8212 76.247 58.8212C76.6275 58.8212 76.932 58.6943 77.1857 58.4533C77.4267 58.2123 77.5535 57.9205 77.5535 57.578C77.5535 57.2229 77.4267 56.9311 77.1857 56.6901C76.932 56.4364 76.6275 56.3096 76.247 56.3096V56.2969ZM77.3633 66.6477V59.633H75.1307V66.6477H77.3633Z" fill="#009DA5"/>
<path d="M82.7357 64.5829C82.4186 64.7605 82.0634 64.8619 81.721 64.8619C81.0867 64.8619 80.7823 64.5321 80.7823 63.8471V61.4116H82.8499V59.6358H80.7823V57.2891H78.5497V59.6358H77.2812V61.4116H78.5497V64.0628C78.5497 64.9761 78.8034 65.6738 79.2855 66.1431C79.7802 66.6124 80.4652 66.8535 81.3404 66.8535C81.9747 66.8535 82.6089 66.6886 83.2558 66.3334L82.7357 64.5702V64.5829Z" fill="#009DA5"/>
<path d="M89.7977 63.1464C89.785 62.0301 89.4171 61.1295 88.7321 60.4445C88.0472 59.7595 87.1973 59.4297 86.1698 59.4297C85.1169 59.4297 84.2417 59.7849 83.5313 60.4825C82.821 61.1802 82.4531 62.0808 82.4531 63.1464C82.4531 64.2373 82.821 65.1252 83.5313 65.8102C84.2417 66.5078 85.1296 66.863 86.1571 66.863C86.9816 66.863 87.692 66.6854 88.2882 66.3049C88.8844 65.937 89.341 65.3916 89.6328 64.6685L87.6539 64.2626C87.3622 64.8081 86.8548 65.0745 86.1571 65.0745C85.7766 65.0745 85.4594 64.9476 85.1931 64.7066C84.9267 64.4656 84.7491 64.1358 84.6476 63.7172H89.785V63.1464H89.7977ZM86.1825 61.2436C86.5123 61.2436 86.8167 61.3451 87.0577 61.5227C87.3114 61.7003 87.489 61.9793 87.5905 62.3472H84.6983C84.7998 61.992 84.9901 61.7383 85.2692 61.5354C85.5482 61.3451 85.8527 61.2436 86.1825 61.2436Z" fill="#009DA5"/>
<path d="M97.8372 66.6474L94.7041 62.5629L97.2918 59.6327H94.6787L92.1544 62.436V55.8906H89.9219V66.6474H92.1544V65.455L93.2199 64.25L95.0973 66.6347H97.8499L97.8372 66.6474Z" fill="#009DA5"/>
<path d="M101.959 59.4297C101.084 59.4297 100.361 59.7214 99.8029 60.3049V59.6326H97.5703V66.6474H99.8029V63.3874C99.8029 62.7278 99.9297 62.233 100.196 61.9032C100.45 61.5861 100.792 61.4339 101.262 61.4339C101.617 61.4339 101.909 61.5607 102.124 61.8144C102.353 62.0808 102.454 62.4106 102.454 62.8165V66.6474H104.674V62.3472C104.674 61.472 104.42 60.7743 103.938 60.2288C103.431 59.6961 102.784 59.4297 101.959 59.4297Z" fill="#009DA5"/>
<path d="M106.395 56.2969C106.015 56.2969 105.71 56.4237 105.469 56.6647C105.228 56.9184 105.102 57.2229 105.102 57.578C105.102 57.9332 105.228 58.225 105.469 58.4533C105.71 58.6943 106.015 58.8212 106.395 58.8212C106.776 58.8212 107.08 58.6943 107.334 58.4533C107.575 58.2123 107.702 57.9205 107.702 57.578C107.702 57.2229 107.575 56.9311 107.334 56.6901C107.08 56.4364 106.776 56.3096 106.395 56.3096V56.2969ZM107.512 66.6477V59.633H105.279V66.6477H107.512Z" fill="#009DA5"/>
<path d="M116.126 66.6474L112.993 62.5629L115.581 59.6327H112.968L110.443 62.436V55.8906H108.211V66.6474H110.443V65.455L111.509 64.25L113.386 66.6347H116.139L116.126 66.6474Z" fill="#009DA5"/>
<path d="M122.78 64.6336H118.176V57.2891H115.867V66.6505H122.78V64.6336Z" fill="#009DA5"/>
<path d="M123.031 57.2891V66.6505H125.34V63.7837H127.547C128.625 63.7837 129.488 63.492 130.135 62.8958C130.769 62.2996 131.086 61.5131 131.086 60.5237C131.086 59.5597 130.782 58.7732 130.16 58.177C129.526 57.5935 128.689 57.3017 127.649 57.3017H123.044L123.031 57.2891ZM125.34 61.8556V59.2552H127.382C127.813 59.2552 128.169 59.3694 128.435 59.6104C128.701 59.8514 128.828 60.1685 128.828 60.5491C128.828 60.955 128.701 61.2594 128.448 61.5004C128.181 61.7415 127.839 61.8683 127.382 61.8683H125.34V61.8556Z" fill="#009DA5"/>
<path d="M136.837 61.9189C137.509 61.5256 137.839 60.9041 137.839 60.0288C137.839 59.1663 137.535 58.4559 136.913 57.9105C136.279 57.365 135.48 57.0859 134.478 57.0859C133.513 57.0859 132.714 57.3523 132.093 57.8978C131.459 58.4432 131.091 59.1663 130.989 60.0923L133.095 60.4982C133.133 59.9908 133.272 59.6229 133.526 59.3692C133.78 59.1155 134.097 58.9887 134.49 58.9887C134.871 58.9887 135.162 59.0901 135.404 59.2804C135.632 59.4707 135.733 59.7371 135.733 60.0669C135.733 60.3713 135.619 60.625 135.404 60.8026C135.175 60.9802 134.871 61.0817 134.478 61.0817H133.501V62.7814H134.579C134.985 62.7814 135.289 62.8829 135.518 63.0605C135.746 63.2381 135.847 63.4918 135.847 63.8089C135.847 64.1387 135.721 64.4051 135.467 64.6208C135.213 64.8364 134.896 64.9379 134.503 64.9379C134.097 64.9379 133.767 64.811 133.526 64.5573C133.272 64.3036 133.12 63.9485 133.057 63.4791L130.875 63.885C130.976 64.7983 131.37 65.5087 132.017 66.0415C132.676 66.5869 133.501 66.8533 134.49 66.8533C135.505 66.8533 136.342 66.5742 137.002 66.0034C137.661 65.4453 137.979 64.7222 137.979 63.8343C137.979 62.9463 137.585 62.2994 136.824 61.9062L136.837 61.9189Z" fill="#009DA5"/>
<path d="M141.817 59.306H143.593V57.2891H137.758V59.306H139.534V64.6463H137.758V66.6632H143.593V64.6463H141.817V59.306Z" fill="#009DA5"/>
<path d="M9.25617 32.6318C7.88621 32.6318 6.6304 32.9362 5.50145 33.5705C4.3725 34.2047 3.45918 35.1307 2.82494 36.247V32.987H1.32812V55.2109H2.82494V44.6317C3.45918 45.7607 4.38518 46.6486 5.50145 47.2828C6.6304 47.9171 7.87352 48.2215 9.25617 48.2215C11.3619 48.2215 13.1251 47.4858 14.5838 46.0524C16.0426 44.619 16.7783 42.729 16.7783 40.4076C16.7783 38.1244 16.0426 36.2343 14.5838 34.7629C13.1251 33.3295 11.3492 32.5938 9.25617 32.5938V32.6318ZM9.07858 46.8896C7.40418 46.8896 5.94542 46.2807 4.68962 45.0884C3.43381 43.896 2.82494 42.3484 2.82494 40.4203C2.82494 38.5049 3.45918 36.9447 4.71499 35.7523C5.97079 34.5599 7.3915 33.951 9.07858 33.951C10.8164 33.951 12.3132 34.5345 13.531 35.7142C14.7234 36.9066 15.3322 38.4922 15.3322 40.4076C15.3322 42.3611 14.7234 43.9087 13.531 45.101C12.3386 46.2934 10.8545 46.8642 9.07858 46.8642V46.8896Z" fill="#009DA5"/>
<path d="M32.6869 40.0408C32.5981 37.8463 31.9004 36.045 30.5558 34.6751C29.1859 33.3051 27.4734 32.6328 25.4312 32.6328C23.3255 32.6328 21.5242 33.3685 20.002 34.8019C18.4798 36.2607 17.7188 38.1507 17.7188 40.4974C17.7188 42.8188 18.4798 44.6708 19.9767 46.1041C21.4735 47.5375 23.2367 48.2352 25.2536 48.2352C26.9914 48.2352 28.4502 47.8039 29.6679 46.9794C30.8857 46.1549 31.7736 44.9625 32.3444 43.415L31.0379 43.1105C30.0358 45.6348 28.0823 46.916 25.2409 46.916C23.6553 46.916 22.2599 46.3325 21.0295 45.1782C19.8118 44.0238 19.2029 42.5016 19.1648 40.5735H32.6615V40.0281L32.6869 40.0408ZM25.4312 33.9774C26.9914 33.9774 28.2599 34.4594 29.3381 35.4108C30.4036 36.3875 31.0125 37.7321 31.2028 39.4319H19.2536C19.4693 37.7829 20.1669 36.4763 21.3847 35.4742C22.5771 34.4721 23.947 33.9774 25.4438 33.9774H25.4312Z" fill="#009DA5"/>
<path d="M42.6314 32.6328C39.7646 32.6328 37.7224 33.8252 36.5046 36.1719V33.0007H35.0078V47.9054H36.5046V40.434C36.5046 38.4552 37.0501 36.8949 38.1156 35.7406C39.1811 34.6117 40.6399 34.0281 42.4411 34.0281C43.8492 34.0281 44.9654 34.5102 45.8534 35.4615C46.7033 36.4002 47.1346 37.6814 47.1346 39.2416V47.8927H48.6314V39.026C48.6314 37.1106 48.0859 35.5757 46.9823 34.396C45.8534 33.2036 44.42 32.6328 42.6187 32.6328H42.6314Z" fill="#009DA5"/>
<path d="M65.6244 40.0408C65.5356 37.8463 64.8379 36.045 63.4933 34.6751C62.1234 33.3051 60.4109 32.6328 58.3687 32.6328C56.263 32.6328 54.4617 33.3685 52.9395 34.8019C51.4173 36.2607 50.6562 38.1507 50.6562 40.4974C50.6562 42.8188 51.4173 44.6708 52.9142 46.1041C54.411 47.5375 56.1742 48.2352 58.1911 48.2352C59.9289 48.2352 61.3877 47.8039 62.6054 46.9794C63.8232 46.1549 64.7111 44.9625 65.2819 43.415L63.9754 43.1105C62.9733 45.6348 61.0198 46.916 58.1784 46.916C56.5928 46.916 55.1974 46.3325 53.967 45.1782C52.7493 44.0238 52.1404 42.5016 52.1023 40.5735H65.599V40.0281L65.6244 40.0408ZM58.3687 33.9774C59.9289 33.9774 61.1974 34.4594 62.2756 35.4108C63.3411 36.3875 63.95 37.7321 64.1403 39.4319H52.1911C52.4068 37.7829 53.1044 36.4763 54.3222 35.4742C55.5146 34.4721 56.8845 33.9774 58.3813 33.9774H58.3687Z" fill="#009DA5"/>
<path d="M85.8007 32.6299C84.4942 32.6299 83.3652 32.9343 82.3505 33.5432C81.3484 34.1774 80.5873 35.04 80.0291 36.1309C79.6993 35.0654 79.0524 34.2155 78.1391 33.5686C77.2004 32.9343 76.1222 32.6299 74.8791 32.6299C72.3548 32.6299 70.5155 33.7335 69.4499 35.9153V32.985H67.9531V47.8898H69.4499V40.0505C69.4499 38.1858 69.9066 36.7271 70.858 35.6362C71.7713 34.5707 72.989 34.0252 74.5493 34.0252C75.8304 34.0252 76.8706 34.4184 77.6571 35.1795C78.4181 35.9406 78.8114 36.9808 78.8114 38.262V47.8898H80.3082V40.0505C80.3082 38.1858 80.7648 36.7017 81.7162 35.6362C82.6549 34.5707 83.9107 34.0252 85.4709 34.0252C86.7521 34.0252 87.7923 34.4184 88.5787 35.1795C89.3398 35.9406 89.7331 36.9808 89.7331 38.262V47.8898H91.2299V38.0463C91.2299 36.4353 90.7098 35.1161 89.7077 34.114C88.7056 33.1119 87.3864 32.6172 85.8007 32.6172V32.6299Z" fill="#009DA5"/>
<path d="M102.631 32.6318C101.261 32.6318 100.005 32.9362 98.8764 33.5705C97.7475 34.2047 96.8342 35.1307 96.1999 36.247V32.987H94.7031V55.2109H96.1999V44.6317C96.8342 45.7607 97.7602 46.6486 98.8764 47.2828C100.005 47.9171 101.249 48.2215 102.631 48.2215C104.737 48.2215 106.5 47.4858 107.959 46.0524C109.418 44.619 110.153 42.729 110.153 40.4076C110.153 38.1244 109.418 36.2343 107.959 34.7629C106.5 33.3295 104.724 32.5938 102.631 32.5938V32.6318ZM102.454 46.8896C100.779 46.8896 99.3204 46.2807 98.0646 45.0884C96.8088 43.896 96.1999 42.3484 96.1999 40.4203C96.1999 38.5049 96.8342 36.9447 98.09 35.7523C99.3458 34.5599 100.766 33.951 102.454 33.951C104.191 33.951 105.688 34.5345 106.906 35.7142C108.098 36.9066 108.707 38.4922 108.707 40.4076C108.707 42.3611 108.098 43.9087 106.906 45.101C105.714 46.2934 104.229 46.8642 102.454 46.8642V46.8896Z" fill="#009DA5"/>
<path d="M117.991 32.6299C116.406 32.6299 115.061 33.0231 113.932 33.8476C112.803 34.6721 112.131 35.7123 111.915 37.0188L113.323 37.3867C113.501 36.3465 114.021 35.522 114.884 34.8878C115.733 34.2789 116.799 33.9745 118.055 33.9745C119.425 33.9745 120.49 34.3677 121.315 35.1288C122.139 35.8899 122.533 36.9554 122.533 38.3254V39.2641L117.141 39.2387C115.188 39.2387 113.691 39.67 112.664 40.5199C111.598 41.3698 111.078 42.4987 111.078 43.8687C111.078 45.1498 111.56 46.19 112.537 47.0018C113.476 47.8264 114.757 48.2196 116.38 48.2196C117.75 48.2196 118.968 47.9151 120.034 47.3316C121.099 46.7481 121.949 45.9617 122.533 44.9596V47.8898H123.966V38.262C123.966 36.4988 123.421 35.1288 122.355 34.114C121.289 33.1119 119.831 32.6172 117.991 32.6172V32.6299ZM116.533 46.9892C115.34 46.9892 114.364 46.6847 113.64 46.1012C112.879 45.5177 112.512 44.7566 112.512 43.8433C112.512 42.8412 112.905 42.042 113.704 41.4078C114.49 40.7989 115.619 40.4945 117.116 40.4945H122.545V41.5854C122.545 43.1076 121.962 44.3888 120.807 45.4289C119.615 46.4691 118.22 46.9892 116.545 46.9892H116.533Z" fill="#009DA5"/>
<path d="M134.53 45.8394C133.743 46.5117 132.881 46.8415 131.942 46.8415C131.029 46.8415 130.293 46.5371 129.747 45.9536C129.164 45.37 128.897 44.609 128.897 43.6069V34.2835H134.479V33.0023H128.897V27.4844H127.401V33.0023H124.141V34.2835H127.401V43.6956C127.401 45.129 127.794 46.2199 128.618 47.0191C129.443 47.8436 130.508 48.2368 131.853 48.2368C132.982 48.2368 134.073 47.8436 135.113 47.0445L134.53 45.8267V45.8394Z" fill="#009DA5"/>
<path d="M142.195 32.6299C140.609 32.6299 139.264 33.0231 138.135 33.8476C137.006 34.6721 136.334 35.7123 136.118 37.0188L137.526 37.3867C137.704 36.3465 138.224 35.522 139.087 34.8878C139.937 34.2789 141.002 33.9745 142.258 33.9745C143.628 33.9745 144.693 34.3677 145.518 35.1288C146.342 35.8899 146.736 36.9554 146.736 38.3254V39.2641L141.345 39.2387C139.391 39.2387 137.894 39.67 136.867 40.5199C135.801 41.3698 135.281 42.4987 135.281 43.8687C135.281 45.1498 135.763 46.19 136.74 47.0018C137.679 47.8264 138.96 48.2196 140.584 48.2196C141.953 48.2196 143.171 47.9151 144.237 47.3316C145.302 46.7481 146.152 45.9617 146.736 44.9596V47.8898H148.169V38.262C148.169 36.4988 147.624 35.1288 146.558 34.114C145.493 33.1119 144.034 32.6172 142.195 32.6172V32.6299ZM140.736 46.9892C139.543 46.9892 138.567 46.6847 137.844 46.1012C137.083 45.5177 136.715 44.7566 136.715 43.8433C136.715 42.8412 137.108 42.042 137.907 41.4078C138.693 40.7989 139.822 40.4945 141.319 40.4945H146.748V41.5854C146.748 43.1076 146.165 44.3888 145.011 45.4289C143.818 46.4691 142.423 46.9892 140.748 46.9892H140.736Z" fill="#009DA5"/>
<path d="M158.889 32.6328C156.022 32.6328 153.98 33.8252 152.762 36.1719V33.0007H151.266V47.9054H152.762V40.434C152.762 38.4552 153.308 36.8949 154.373 35.7406C155.439 34.6117 156.898 34.0281 158.699 34.0281C160.107 34.0281 161.223 34.5102 162.111 35.4615C162.961 36.4002 163.392 37.6814 163.392 39.2416V47.8927H164.889V39.026C164.889 37.1106 164.344 35.5757 163.24 34.396C162.111 33.2036 160.678 32.6328 158.877 32.6328H158.889Z" fill="#009DA5"/>
<path d="M187.271 47.907L179.076 36.2369L186.421 27.4844H180.725L172.226 37.5689V27.4844H167.203V47.907H172.226V44.406L175.829 40.1058L181.195 47.907H187.296H187.271Z" fill="#009DA5"/>
<path d="M201.079 40.2541C201.053 37.8186 200.254 35.8651 198.757 34.3683C197.26 32.8715 195.408 32.1484 193.176 32.1484C190.893 32.1484 188.965 32.9095 187.417 34.4317C185.857 35.9539 185.07 37.9074 185.07 40.2541C185.07 42.6261 185.857 44.5796 187.417 46.0764C188.977 47.5986 190.893 48.3597 193.151 48.3597C194.952 48.3597 196.499 47.9665 197.819 47.142C199.125 46.3555 200.102 45.1631 200.749 43.5775L196.423 42.6896C195.789 43.8819 194.685 44.4528 193.163 44.4528C192.339 44.4528 191.641 44.1737 191.058 43.6663C190.474 43.1462 190.081 42.4105 189.865 41.4972H201.079V40.2414V40.2541ZM193.189 36.1061C193.924 36.1061 194.559 36.3218 195.104 36.715C195.649 37.1082 196.043 37.7171 196.258 38.5162H189.954C190.17 37.7552 190.588 37.1716 191.21 36.753C191.819 36.3218 192.491 36.1188 193.189 36.1188V36.1061Z" fill="#009DA5"/>
<path d="M211.89 32.3877C209.632 32.3877 207.869 33.4278 206.613 35.5208V32.5906H201.742V47.8886H206.613V43.1064C206.613 39.3009 208.376 37.3728 211.89 37.3728H212.778L212.994 32.5018C212.664 32.4131 212.296 32.375 211.89 32.375V32.3877Z" fill="#009DA5"/>
<path d="M216.216 25.3252C215.392 25.3252 214.719 25.6043 214.199 26.1116C213.679 26.6571 213.413 27.3294 213.413 28.0905C213.413 28.8516 213.692 29.4985 214.199 30.0059C214.719 30.526 215.392 30.7924 216.216 30.7924C217.041 30.7924 217.713 30.5133 218.258 30.0059C218.778 29.4858 219.045 28.8516 219.045 28.0905C219.045 27.3294 218.766 26.6825 218.258 26.137C217.713 25.5916 217.041 25.3125 216.216 25.3125V25.3252ZM210.609 54.8936C211.675 55.3249 212.74 55.5279 213.806 55.5279C215.303 55.5279 216.482 55.0712 217.37 54.1833C218.258 53.2953 218.677 52.1156 218.677 50.6188V32.6063H213.831V50.0734C213.831 50.4412 213.704 50.7457 213.502 50.9613C213.261 51.177 212.956 51.2911 212.563 51.2911C212.284 51.2911 211.865 51.2023 211.345 51.0501L210.609 54.8936Z" fill="#009DA5"/>
<path d="M227.453 32.1484C225.627 32.1484 224.105 32.5797 222.849 33.4296C221.593 34.3176 220.781 35.4719 220.439 36.9687L225.043 37.9074C225.259 36.6262 226.109 35.992 227.606 35.992C228.24 35.992 228.798 36.1695 229.191 36.5755C229.584 36.9687 229.775 37.4888 229.775 38.1357V38.4401H225.868C223.851 38.4401 222.303 38.8714 221.174 39.7467C220.045 40.6346 219.5 41.8524 219.5 43.3746C219.5 44.8714 220.02 46.0891 221.086 47.0024C222.126 47.9157 223.496 48.3724 225.196 48.3724C226.997 48.3724 228.519 47.8523 229.762 46.7868V47.9157H234.455V38.2245C234.455 36.3091 233.847 34.8123 232.591 33.7467C231.335 32.6812 229.61 32.1611 227.441 32.1611L227.453 32.1484ZM226.565 44.7065C225.931 44.7065 225.411 44.5542 225.005 44.2752C224.612 43.9961 224.422 43.6029 224.422 43.1209C224.422 42.6642 224.599 42.271 224.967 41.9665C225.297 41.6875 225.792 41.5352 226.401 41.5352H229.749V41.8651C229.749 42.6896 229.445 43.3872 228.811 43.9073C228.176 44.4274 227.441 44.6938 226.553 44.6938L226.565 44.7065Z" fill="#009DA5"/>
<path fill-rule="evenodd" clip-rule="evenodd" d="M84.5008 4.64734L101.448 0.106152C103.11 -0.337819 104.822 0.651602 105.266 2.31332L109.807 19.2603C110.251 20.922 109.262 22.6345 107.6 23.0785L90.653 27.6196C88.9913 28.0636 87.2788 27.0742 86.8348 25.4125L82.2937 8.46548C81.8497 6.80377 82.8391 5.09131 84.5008 4.64734Z" fill="#F15B67"/>
<path d="M103.445 20.5642L104.929 17.6594L102.405 16.429C102.62 15.2239 102.544 13.93 102.176 12.5727L101.897 11.5453L98.5992 12.4332L98.8783 13.4607C99.0051 13.9427 99.0813 14.3994 99.0939 14.818L95.1109 12.8899C94.2991 12.4966 93.7409 12.1415 93.3857 11.8117C93.0306 11.4945 92.8149 11.1394 92.7008 10.7208C92.5739 10.2641 92.612 9.87087 92.8403 9.54106C93.0686 9.21126 93.3984 8.99561 93.8551 8.88145C94.8826 8.60238 95.6183 9.10978 96.1003 10.429L99.3096 8.93219C98.7514 7.68907 97.9523 6.78845 96.8995 6.21763C95.8466 5.64681 94.5528 5.58338 93.0813 5.97661C91.5972 6.36984 90.5063 7.0802 89.7832 8.13304C89.0475 9.18589 88.8319 10.3402 89.1744 11.5833C89.4661 12.6489 90.0877 13.5495 91.0517 14.2979C89.593 15.6932 89.0856 17.2154 89.5295 18.8771C89.9101 20.3105 90.798 21.3126 92.1426 21.8834C93.4999 22.467 95.0855 22.505 96.8868 22.023C98.6373 21.5536 100.033 20.6657 101.06 19.3972L103.445 20.5896V20.5642ZM96.2398 19.0293C95.4407 19.245 94.7557 19.2323 94.1849 18.9913C93.6141 18.7503 93.2335 18.3444 93.0686 17.7482C92.891 17.0886 93.1067 16.429 93.7029 15.7693L98.0538 17.9004C97.5464 18.4458 96.9375 18.8391 96.2398 19.0167V19.0293Z" fill="#FEFEFE"/>
</svg>
