<svg width="234" height="70" viewBox="0 0 234 70" fill="none" xmlns="http://www.w3.org/2000/svg">
<g clip-path="url(#clip0_5126_71)">
<path d="M20.0605 27.2664L11.9072 15.5963L19.2149 6.84375H13.548L5.09175 16.9283V6.84375H0.09375V27.2664H5.09175V23.7654L8.67619 19.4652L14.015 27.2664H20.0858H20.0605Z" fill="white"/>
<path d="M33.8889 11.9688H29.0424V19.0723C29.0424 20.5057 28.7647 21.5712 28.2221 22.2689C27.6414 22.9666 26.8842 23.3344 25.8871 23.3344C25.1298 23.3344 24.4861 23.0553 24.0066 22.4845C23.5268 21.9391 23.2744 21.2034 23.2744 20.3154V11.9688H18.4531V21.3556C18.4531 23.271 18.9958 24.8059 20.0939 25.9603C21.1541 27.1526 22.5803 27.7235 24.3724 27.7235C26.2782 27.7235 27.8307 27.0892 29.0424 25.808V27.2667H33.8889V11.9688Z" fill="white"/>
<path d="M40.1747 3.79688H35.3281V22.4183C35.3281 24.0039 35.8077 25.2852 36.7795 26.2619C37.7135 27.2386 38.9883 27.7205 40.5658 27.7205C41.664 27.7205 42.8377 27.4163 44.1503 26.782L43.3931 22.9765C42.5728 23.2555 41.9921 23.4077 41.6387 23.4077C41.1845 23.4077 40.8562 23.2809 40.5785 23.0399C40.3008 22.7989 40.1873 22.4564 40.1873 22.0631V3.80955L40.1747 3.79688Z" fill="white"/>
<path d="M46.6408 4.68455C45.8205 4.68455 45.1514 4.96361 44.6339 5.47103C44.1166 6.01646 43.8516 6.68877 43.8516 7.44986C43.8516 8.21095 44.1292 8.8579 44.6339 9.36529C45.1514 9.88537 45.8205 10.1517 46.6408 10.1517C47.4611 10.1517 48.1301 9.87269 48.6728 9.36529C49.1903 8.8452 49.4553 8.21095 49.4553 7.44986C49.4553 6.68877 49.1777 6.04185 48.6728 5.49639C48.1301 4.95093 47.4611 4.67188 46.6408 4.67188V4.68455ZM49.0639 27.2636V11.9657H44.2174V27.2636H49.0639Z" fill="white"/>
<path d="M57.8275 11.5078C56.0101 11.5078 54.4954 11.9391 53.2459 12.789C51.9965 13.6769 51.1886 14.8313 50.8479 16.3281L55.4294 17.2668C55.644 15.9856 56.4896 15.3513 57.979 15.3513C58.6101 15.3513 59.1654 15.5289 59.5565 15.9348C59.9479 16.3281 60.1372 16.8482 60.1372 17.4951V17.7995H56.2497C54.2431 17.7995 52.7033 18.2308 51.58 19.1061C50.4567 19.994 49.9141 21.2118 49.9141 22.7339C49.9141 24.2308 50.4314 25.4484 51.4916 26.3617C52.5265 27.2753 53.8897 27.7318 55.5809 27.7318C57.373 27.7318 58.8877 27.2116 60.1245 26.1463V27.2753H64.7945V17.5839C64.7945 15.6685 64.1885 14.1716 62.9391 13.1061C61.6896 12.0406 59.973 11.5205 57.8148 11.5205L57.8275 11.5078ZM56.9439 24.0659C56.3128 24.0659 55.7955 23.9136 55.3914 23.6345C55.0003 23.3555 54.811 22.9623 54.811 22.4803C54.811 22.0236 54.9876 21.6304 55.3537 21.3259C55.6818 21.0469 56.174 20.8946 56.78 20.8946H60.1118V21.2244C60.1118 22.049 59.8091 22.7466 59.178 23.2667C58.547 23.7868 57.8148 24.0531 56.9315 24.0531L56.9439 24.0659Z" fill="white"/>
<path d="M75.526 11.5093C73.6204 11.5093 72.068 12.1435 70.8309 13.4247V3.79688H65.9844V27.264H70.8309V20.1604C70.8309 18.727 71.1086 17.6615 71.6766 16.9638C72.2194 16.2661 72.9767 15.8983 73.9485 15.8983C74.731 15.8983 75.3747 16.1773 75.8543 16.7228C76.3339 17.3063 76.5862 18.0293 76.5862 18.9173V27.264H81.4077V17.8771C81.4077 15.9617 80.8648 14.4268 79.8048 13.2471C78.7066 12.0928 77.293 11.5093 75.526 11.5093Z" fill="white"/>
<path d="M9.11483 32.6319C7.75173 32.6319 6.50223 32.9362 5.37894 33.5704C4.25565 34.2047 3.34692 35.1307 2.71586 36.2469V32.9871H1.22656V55.2111H2.71586V44.6319C3.34692 45.7608 4.26827 46.6487 5.37894 47.2829C6.50223 47.9171 7.73912 48.2217 9.11483 48.2217C11.2099 48.2217 12.9643 47.4858 14.4157 46.0524C15.8672 44.6191 16.5992 42.7291 16.5992 40.4076C16.5992 38.1245 15.8672 36.2345 14.4157 34.7628C12.9643 33.3296 11.1973 32.5938 9.11483 32.5938V32.6319ZM8.93813 46.8898C7.27212 46.8898 5.82068 46.2808 4.57118 45.0884C3.32168 43.896 2.71586 42.3485 2.71586 40.4203C2.71586 38.5049 3.34692 36.9448 4.59642 35.7522C5.84592 34.5599 7.2595 33.9511 8.93813 33.9511C10.6672 33.9511 12.1565 34.5347 13.3682 35.7143C14.5546 36.9066 15.1604 38.4924 15.1604 40.4076C15.1604 42.3612 14.5546 43.9088 13.3682 45.1011C12.1818 46.2935 10.7051 46.8643 8.93813 46.8643V46.8898Z" fill="white"/>
<path d="M32.4243 40.0408C32.3359 37.8463 31.6417 36.0451 30.3039 34.6751C28.9409 33.3052 27.237 32.6328 25.205 32.6328C23.1098 32.6328 21.3176 33.3686 19.8031 34.8021C18.2885 36.2608 17.5312 38.1508 17.5312 40.4976C17.5312 42.8189 18.2885 44.6709 19.7778 46.1042C21.2671 47.5376 23.0215 48.2353 25.0282 48.2353C26.7574 48.2353 28.2088 47.804 29.4205 46.9795C30.6322 46.1551 31.5156 44.9627 32.0835 43.4149L30.7834 43.1107C29.7865 45.6349 27.8427 46.9161 25.0157 46.9161C23.438 46.9161 22.0496 46.3325 20.8254 45.1784C19.6137 44.024 19.0079 42.5016 18.9701 40.5737H32.3989V40.0283L32.4243 40.0408ZM25.205 33.9774C26.7574 33.9774 28.0195 34.4594 29.0924 35.4109C30.1524 36.3876 30.7583 37.7322 30.9476 39.432H19.0584C19.273 37.7829 19.9671 36.4764 21.1788 35.4743C22.3652 34.4721 23.7283 33.9774 25.2176 33.9774H25.205Z" fill="white"/>
<path d="M42.3276 32.6328C39.4752 32.6328 37.4432 33.8252 36.2315 36.1719V33.0007H34.7422V47.9055H36.2315V40.4342C36.2315 38.4553 36.7742 36.895 37.8344 35.7406C38.8946 34.6117 40.346 34.0283 42.1383 34.0283C43.5392 34.0283 44.6499 34.5103 45.5333 35.4616C46.3789 36.4003 46.808 37.6815 46.808 39.2418V47.8928H48.2974V39.0261C48.2974 37.1107 47.7547 35.5759 46.6566 34.396C45.5333 33.2037 44.1072 32.6328 42.3149 32.6328H42.3276Z" fill="white"/>
<path d="M65.2056 40.0408C65.1172 37.8463 64.423 36.0451 63.0852 34.6751C61.7222 33.3052 60.0183 32.6328 57.9863 32.6328C55.8912 32.6328 54.0988 33.3686 52.5844 34.8021C51.0697 36.2608 50.3125 38.1508 50.3125 40.4976C50.3125 42.8189 51.0697 44.6709 52.5591 46.1042C54.0484 47.5376 55.8028 48.2353 57.8095 48.2353C59.5387 48.2353 60.9901 47.804 62.2018 46.9795C63.4135 46.1551 64.2969 44.9627 64.8648 43.4149L63.5647 43.1107C62.5678 45.6349 60.624 46.9161 57.797 46.9161C56.2193 46.9161 54.831 46.3325 53.6066 45.1784C52.3952 44.024 51.7892 42.5016 51.7514 40.5737H65.1802V40.0283L65.2056 40.0408ZM57.9863 33.9774C59.5387 33.9774 60.8008 34.4594 61.8737 35.4109C62.9337 36.3876 63.5396 37.7322 63.7289 39.432H51.8396C52.0542 37.7829 52.7486 36.4764 53.96 35.4743C55.1464 34.4721 56.5096 33.9774 57.9989 33.9774H57.9863Z" fill="white"/>
<path d="M85.2737 32.6297C83.9736 32.6297 82.8503 32.9342 81.8407 33.5432C80.8436 34.1775 80.0864 35.0398 79.5308 36.1309C79.2028 35.0653 78.559 34.2154 77.6503 33.5684C76.7165 32.9342 75.6436 32.6297 74.4066 32.6297C71.895 32.6297 70.065 33.7334 69.0047 35.9152V32.9849H67.5156V47.8897H69.0047V40.0504C69.0047 38.1858 69.4592 36.7269 70.4057 35.6361C71.3146 34.5706 72.5261 34.0252 74.0785 34.0252C75.3533 34.0252 76.3882 34.4183 77.1707 35.1794C77.928 35.9407 78.3194 36.9808 78.3194 38.262V47.8897H79.8087V40.0504C79.8087 38.1858 80.263 36.7017 81.2097 35.6361C82.1435 34.5706 83.3929 34.0252 84.9454 34.0252C86.2201 34.0252 87.255 34.4183 88.0376 35.1794C88.795 35.9407 89.1862 36.9808 89.1862 38.262V47.8897H90.6755V38.0463C90.6755 36.4354 90.158 35.116 89.1609 34.1138C88.1637 33.1119 86.8512 32.6172 85.2737 32.6172V32.6297Z" fill="white"/>
<path d="M102.021 32.6319C100.658 32.6319 99.4083 32.9362 98.285 33.5704C97.1617 34.2047 96.253 35.1307 95.6219 36.2469V32.9871H94.1328V55.2111H95.6219V44.6319C96.253 45.7608 97.1744 46.6487 98.285 47.2829C99.4083 47.9171 100.645 48.2217 102.021 48.2217C104.116 48.2217 105.87 47.4858 107.322 46.0524C108.773 44.6191 109.505 42.7291 109.505 40.4076C109.505 38.1245 108.773 36.2345 107.322 34.7628C105.87 33.3296 104.104 32.5938 102.021 32.5938V32.6319ZM101.844 46.8898C100.178 46.8898 98.7268 46.2808 97.4774 45.0884C96.2279 43.896 95.6219 42.3485 95.6219 40.4203C95.6219 38.5049 96.253 36.9448 97.5027 35.7522C98.7521 34.5599 100.166 33.9511 101.844 33.9511C103.573 33.9511 105.063 34.5347 106.274 35.7143C107.461 36.9066 108.067 38.4924 108.067 40.4076C108.067 42.3612 107.461 43.9088 106.274 45.1011C105.088 46.2935 103.611 46.8643 101.844 46.8643V46.8898Z" fill="white"/>
<path d="M117.308 32.6297C115.731 32.6297 114.393 33.023 113.27 33.8475C112.146 34.6722 111.477 35.7123 111.263 37.0187L112.664 37.3866C112.84 36.3465 113.358 35.5218 114.216 34.8876C115.062 34.2788 116.122 33.9743 117.371 33.9743C118.735 33.9743 119.795 34.3677 120.615 35.1287C121.435 35.8897 121.827 36.9553 121.827 38.3254V39.2639L116.463 39.2387C114.519 39.2387 113.03 39.67 112.007 40.5199C110.947 41.3698 110.43 42.4987 110.43 43.8686C110.43 45.1498 110.909 46.1899 111.881 47.0018C112.815 47.8263 114.09 48.2194 115.705 48.2194C117.069 48.2194 118.28 47.9151 119.34 47.3316C120.4 46.748 121.246 45.9615 121.827 44.9596V47.8897H123.253V38.262C123.253 36.4988 122.71 35.1287 121.65 34.1138C120.59 33.1119 119.138 32.6172 117.308 32.6172V32.6297ZM115.857 46.9891C114.671 46.9891 113.699 46.6846 112.979 46.1013C112.222 45.5177 111.856 44.7566 111.856 43.8433C111.856 42.8412 112.247 42.042 113.042 41.4077C113.825 40.7989 114.948 40.4944 116.438 40.4944H121.839V41.5854C121.839 43.1075 121.259 44.3887 120.11 45.4288C118.924 46.4689 117.535 46.9891 115.87 46.9891H115.857Z" fill="white"/>
<path d="M133.767 45.8316C132.984 46.5038 132.126 46.8336 131.192 46.8336C130.283 46.8336 129.551 46.5293 129.008 45.9457C128.428 45.3622 128.163 44.6011 128.163 43.599V34.2755H133.716V32.9945H128.163V27.4766H126.673V32.9945H123.43V34.2755H126.673V43.6878C126.673 45.1213 127.065 46.2121 127.885 47.0113C128.705 47.8357 129.766 48.2291 131.103 48.2291C132.227 48.2291 133.312 47.8357 134.347 47.0365L133.767 45.8189V45.8316Z" fill="white"/>
<path d="M141.386 32.6297C139.809 32.6297 138.471 33.023 137.347 33.8475C136.224 34.6722 135.555 35.7123 135.341 37.0187L136.742 37.3866C136.918 36.3465 137.436 35.5218 138.294 34.8876C139.14 34.2788 140.2 33.9743 141.449 33.9743C142.812 33.9743 143.873 34.3677 144.693 35.1287C145.513 35.8897 145.905 36.9553 145.905 38.3254V39.2639L140.541 39.2387C138.597 39.2387 137.108 39.67 136.085 40.5199C135.025 41.3698 134.508 42.4987 134.508 43.8686C134.508 45.1498 134.987 46.1899 135.959 47.0018C136.893 47.8263 138.168 48.2194 139.783 48.2194C141.146 48.2194 142.358 47.9151 143.418 47.3316C144.478 46.748 145.324 45.9615 145.905 44.9596V47.8897H147.331V38.262C147.331 36.4988 146.788 35.1287 145.728 34.1138C144.668 33.1119 143.216 32.6172 141.386 32.6172V32.6297ZM139.935 46.9891C138.748 46.9891 137.777 46.6846 137.057 46.1013C136.3 45.5177 135.934 44.7566 135.934 43.8433C135.934 42.8412 136.325 42.042 137.12 41.4077C137.903 40.7989 139.026 40.4944 140.515 40.4944H145.917V41.5854C145.917 43.1075 145.337 44.3887 144.188 45.4288C143.002 46.4689 141.613 46.9891 139.947 46.9891H139.935Z" fill="white"/>
<path d="M157.999 32.6328C155.147 32.6328 153.115 33.8252 151.903 36.1719V33.0007H150.414V47.9055H151.903V40.4342C151.903 38.4553 152.446 36.895 153.506 35.7406C154.566 34.6117 156.018 34.0283 157.81 34.0283C159.211 34.0283 160.322 34.5103 161.205 35.4616C162.051 36.4003 162.48 37.6815 162.48 39.2418V47.8928H163.969V39.0261C163.969 37.1107 163.427 35.5759 162.328 34.396C161.205 33.2037 159.779 32.6328 157.987 32.6328H157.999Z" fill="white"/>
<path d="M186.24 47.8991L178.087 36.2292L185.394 27.4766H179.728L171.271 37.561V27.4766H166.273V47.8991H171.271V44.3982L174.856 40.098L180.194 47.8991H186.265H186.24Z" fill="white"/>
<path d="M199.975 40.2541C199.95 37.8187 199.154 35.8653 197.665 34.3684C196.176 32.8715 194.333 32.1484 192.112 32.1484C189.84 32.1484 187.921 32.9097 186.382 34.4318C184.829 35.9539 184.047 37.9075 184.047 40.2541C184.047 42.6263 184.829 44.5797 186.382 46.0766C187.934 47.5986 189.84 48.3599 192.086 48.3599C193.879 48.3599 195.419 47.9666 196.731 47.1421C198.031 46.3556 199.003 45.1633 199.647 43.5775L195.343 42.6897C194.712 43.882 193.614 44.4529 192.099 44.4529C191.279 44.4529 190.584 44.1738 190.004 43.6664C189.423 43.1462 189.032 42.4106 188.818 41.4973H199.975V40.2416V40.2541ZM192.124 36.1061C192.856 36.1061 193.487 36.3218 194.03 36.7152C194.573 37.1083 194.964 37.7171 195.179 38.5163H188.906C189.12 37.7553 189.537 37.1717 190.155 36.7531C190.761 36.3218 191.43 36.1189 192.124 36.1189V36.1061Z" fill="white"/>
<path d="M210.73 32.3877C208.483 32.3877 206.729 33.4278 205.479 35.521V32.5907H200.633V47.8886H205.479V43.1064C205.479 39.301 207.234 37.3728 210.73 37.3728H211.613L211.828 32.5018C211.5 32.4132 211.134 32.375 210.73 32.375V32.3877Z" fill="white"/>
<path d="M215.032 25.3252C214.212 25.3252 213.542 25.6043 213.025 26.1117C212.508 26.6571 212.243 27.3295 212.243 28.0906C212.243 28.8516 212.52 29.4986 213.025 30.006C213.542 30.526 214.212 30.7923 215.032 30.7923C215.852 30.7923 216.521 30.5132 217.064 30.006C217.581 29.4859 217.846 28.8516 217.846 28.0906C217.846 27.3295 217.569 26.6826 217.064 26.1369C216.521 25.5916 215.852 25.3125 215.032 25.3125V25.3252ZM209.453 54.8937C210.513 55.3251 211.574 55.528 212.634 55.528C214.123 55.528 215.297 55.0712 216.18 54.1834C217.064 53.2953 217.48 52.1157 217.48 50.6188V32.6064H212.659V50.0734C212.659 50.4413 212.533 50.7458 212.331 50.9615C212.091 51.1771 211.788 51.2912 211.397 51.2912C211.119 51.2912 210.703 51.2024 210.185 51.0501L209.453 54.8937Z" fill="white"/>
<path d="M226.21 32.1484C224.393 32.1484 222.878 32.5798 221.629 33.4297C220.379 34.3177 219.571 35.4719 219.231 36.9688L223.812 37.9075C224.027 36.6263 224.872 35.9921 226.362 35.9921C226.993 35.9921 227.548 36.1695 227.939 36.5756C228.331 36.9688 228.52 37.4889 228.52 38.1359V38.4402H224.633C222.626 38.4402 221.086 38.8715 219.963 39.7469C218.84 40.6347 218.297 41.8525 218.297 43.3746C218.297 44.8715 218.814 46.0893 219.874 47.0026C220.909 47.9159 222.272 48.3724 223.964 48.3724C225.756 48.3724 227.271 47.8525 228.507 46.7869V47.9159H233.177V38.2245C233.177 36.3091 232.571 34.8124 231.322 33.7469C230.072 32.6813 228.356 32.1612 226.198 32.1612L226.21 32.1484ZM225.327 44.7065C224.696 44.7065 224.178 44.5545 223.774 44.2752C223.383 43.9961 223.194 43.603 223.194 43.121C223.194 42.6642 223.37 42.2711 223.736 41.9666C224.065 41.6875 224.557 41.5353 225.163 41.5353H228.495V41.8652C228.495 42.6897 228.192 43.3873 227.561 43.9075C226.93 44.4274 226.198 44.694 225.314 44.694L225.327 44.7065Z" fill="white"/>
<path fill-rule="evenodd" clip-rule="evenodd" d="M83.9893 4.64734L100.851 0.106152C102.505 -0.337819 104.209 0.651603 104.65 2.31333L109.169 19.2603C109.61 20.9221 108.626 22.6345 106.972 23.0785L90.1106 27.6196C88.4571 28.0636 86.7532 27.0742 86.3116 25.4126L81.7931 8.4655C81.3513 6.80379 82.3358 5.09131 83.9893 4.64734ZM102.833 20.5669L104.309 17.6621L101.798 16.4316C102.012 15.2266 101.937 13.9327 101.571 12.5754L101.293 11.5479L98.0114 12.4359L98.2891 13.4634C98.4152 13.9454 98.491 14.402 98.5036 14.8206L94.5405 12.8925C93.7328 12.4866 93.1649 12.1314 92.8241 11.8143C92.4834 11.4972 92.2561 11.142 92.1426 10.7361C92.0162 10.2794 92.0669 9.88622 92.2941 9.55641C92.5085 9.22659 92.8494 8.99828 93.3037 8.88411C94.3261 8.60503 95.0707 9.12512 95.5376 10.4316L98.7309 8.93485C98.1882 7.67905 97.393 6.7784 96.3328 6.22027C95.2726 5.66213 94.0105 5.57334 92.5338 5.97927C91.0698 6.3725 89.9718 7.09552 89.2397 8.1357C88.5076 9.17584 88.3056 10.3302 88.6464 11.586C88.924 12.6515 89.5553 13.5521 90.5145 14.3006C89.0631 15.6959 88.5582 17.2308 88.9998 18.8798C89.3785 20.3259 90.2495 21.328 91.5998 21.8988C92.9503 22.4696 94.5154 22.5077 96.3202 22.0257C98.0745 21.5563 99.4504 20.6811 100.473 19.3999L102.845 20.5923L102.833 20.5669ZM95.6638 19.032C94.8688 19.2477 94.1747 19.235 93.6067 19.0066C93.0387 18.7656 92.6726 18.3597 92.5085 17.7635C92.3319 17.0912 92.5465 16.4316 93.1395 15.7847L97.4688 17.9158C96.9765 18.4739 96.3706 18.8418 95.6638 19.032Z" fill="white"/>
<path d="M20.0605 27.2664L11.9072 15.5963L19.2149 6.84375H13.548L5.09175 16.9283V6.84375H0.09375V27.2664H5.09175V23.7654L8.67619 19.4652L14.015 27.2664H20.0858H20.0605Z" fill="white"/>
<path d="M33.8889 11.9688H29.0424V19.0723C29.0424 20.5057 28.7647 21.5712 28.2221 22.2689C27.6414 22.9666 26.8842 23.3344 25.8871 23.3344C25.1298 23.3344 24.4861 23.0553 24.0066 22.4845C23.5268 21.9391 23.2744 21.2034 23.2744 20.3154V11.9688H18.4531V21.3556C18.4531 23.271 18.9958 24.8059 20.0939 25.9603C21.1541 27.1526 22.5803 27.7235 24.3724 27.7235C26.2782 27.7235 27.8307 27.0892 29.0424 25.808V27.2667H33.8889V11.9688Z" fill="white"/>
<path d="M40.1747 3.79688H35.3281V22.4183C35.3281 24.0039 35.8077 25.2852 36.7795 26.2619C37.7135 27.2386 38.9883 27.7205 40.5658 27.7205C41.664 27.7205 42.8377 27.4163 44.1503 26.782L43.3931 22.9765C42.5728 23.2555 41.9921 23.4077 41.6387 23.4077C41.1845 23.4077 40.8562 23.2809 40.5785 23.0399C40.3008 22.7989 40.1873 22.4564 40.1873 22.0631V3.80955L40.1747 3.79688Z" fill="white"/>
<path d="M46.6408 4.68455C45.8205 4.68455 45.1514 4.96361 44.6339 5.47103C44.1166 6.01646 43.8516 6.68877 43.8516 7.44986C43.8516 8.21095 44.1292 8.8579 44.6339 9.36529C45.1514 9.88537 45.8205 10.1517 46.6408 10.1517C47.4611 10.1517 48.1301 9.87269 48.6728 9.36529C49.1903 8.8452 49.4553 8.21095 49.4553 7.44986C49.4553 6.68877 49.1777 6.04185 48.6728 5.49639C48.1301 4.95093 47.4611 4.67188 46.6408 4.67188V4.68455ZM49.0639 27.2636V11.9657H44.2174V27.2636H49.0639Z" fill="white"/>
<path d="M57.8275 11.5078C56.0101 11.5078 54.4954 11.9391 53.2459 12.789C51.9965 13.6769 51.1886 14.8313 50.8479 16.3281L55.4294 17.2668C55.644 15.9856 56.4896 15.3513 57.979 15.3513C58.6101 15.3513 59.1654 15.5289 59.5565 15.9348C59.9479 16.3281 60.1372 16.8482 60.1372 17.4951V17.7995H56.2497C54.2431 17.7995 52.7033 18.2308 51.58 19.1061C50.4567 19.994 49.9141 21.2118 49.9141 22.7339C49.9141 24.2308 50.4314 25.4484 51.4916 26.3617C52.5265 27.2753 53.8897 27.7318 55.5809 27.7318C57.373 27.7318 58.8877 27.2116 60.1245 26.1463V27.2753H64.7945V17.5839C64.7945 15.6685 64.1885 14.1716 62.9391 13.1061C61.6896 12.0406 59.973 11.5205 57.8148 11.5205L57.8275 11.5078ZM56.9439 24.0659C56.3128 24.0659 55.7955 23.9136 55.3914 23.6345C55.0003 23.3555 54.811 22.9623 54.811 22.4803C54.811 22.0236 54.9876 21.6304 55.3537 21.3259C55.6818 21.0469 56.174 20.8946 56.78 20.8946H60.1118V21.2244C60.1118 22.049 59.8091 22.7466 59.178 23.2667C58.547 23.7868 57.8148 24.0531 56.9315 24.0531L56.9439 24.0659Z" fill="white"/>
<path d="M75.526 11.5093C73.6204 11.5093 72.068 12.1435 70.8309 13.4247V3.79688H65.9844V27.264H70.8309V20.1604C70.8309 18.727 71.1086 17.6615 71.6766 16.9638C72.2194 16.2661 72.9767 15.8983 73.9485 15.8983C74.731 15.8983 75.3747 16.1773 75.8543 16.7228C76.3339 17.3063 76.5862 18.0293 76.5862 18.9173V27.264H81.4077V17.8771C81.4077 15.9617 80.8648 14.4268 79.8048 13.2471C78.7066 12.0928 77.293 11.5093 75.526 11.5093Z" fill="white"/>
<path d="M7.94587 60.552H9.44779L9.61185 59.9685H8.09731L8.77886 57.3047H8.1478L7.46625 59.9685H4.43717L5.1187 57.3047H4.48764L3.80609 59.9685H2.30418L2.1401 60.552H3.65465L2.88476 63.5583H1.38283L1.21875 64.1546H2.73329L2.08961 66.6533H2.73329L3.37699 64.1546H6.39345L5.74978 66.6533H6.38084L7.02451 64.1546H8.53905L8.69052 63.5583H7.17596L7.94587 60.552ZM7.34004 60.552L6.55754 63.5583H3.54105L4.31096 60.552H7.34004Z" fill="white"/>
<path d="M14.1452 59.4298C13.2743 59.4298 12.5549 59.7215 11.9869 60.3051V55.8906H9.76562V66.6475H11.9869V63.3875C11.9869 62.7278 12.1132 62.2458 12.3782 61.916C12.6306 61.5988 12.9714 61.4213 13.4258 61.4213C13.7918 61.4213 14.0821 61.5481 14.2966 61.802C14.5238 62.0683 14.6248 62.398 14.6248 62.8039V66.6348H16.8335V62.3346C16.8335 61.4593 16.5811 60.7616 16.1015 60.2162C15.5966 59.6836 14.9529 59.417 14.1452 59.417V59.4298Z" fill="white"/>
<path d="M20.4787 59.4297C19.6457 59.4297 18.9515 59.6201 18.3835 60.0133C17.8156 60.4191 17.4369 60.952 17.2855 61.6369L19.3806 62.0682C19.4816 61.4847 19.8728 61.1929 20.5544 61.1929C20.8447 61.1929 21.0971 61.2817 21.2738 61.4594C21.4505 61.6369 21.5388 61.878 21.5388 62.1698V62.3094H19.7593C18.8379 62.3094 18.1311 62.4996 17.6136 62.9054C17.0962 63.3113 16.8438 63.8696 16.8438 64.5673C16.8438 65.2522 17.0836 65.8103 17.5631 66.2289C18.0301 66.6475 18.6612 66.8631 19.4437 66.8631C20.2641 66.8631 20.9583 66.6222 21.5262 66.14V66.6602H23.6717V62.2205C23.6717 61.3451 23.3942 60.6602 22.8262 60.1655C22.2583 59.6708 21.4631 59.4424 20.4787 59.4424V59.4297ZM20.0748 65.1888C19.7845 65.1888 19.5447 65.1127 19.368 64.9986C19.1913 64.8715 19.1029 64.6941 19.1029 64.4657C19.1029 64.25 19.1913 64.0725 19.3554 63.933C19.5068 63.806 19.734 63.7426 20.0117 63.7426H21.5388V63.8948C21.5388 64.2755 21.4 64.5925 21.1097 64.8336C20.8194 65.0745 20.4787 65.2015 20.0748 65.2015V65.1888Z" fill="white"/>
<path d="M28.4061 59.4297C27.5351 59.4297 26.8156 59.7215 26.2603 60.305V59.6329H24.0391V66.6475H26.2603V63.3874C26.2603 62.7279 26.3865 62.2332 26.6517 61.9033C26.904 61.5862 27.2448 61.434 27.7117 61.434C28.0651 61.434 28.3554 61.5608 28.57 61.8146C28.7972 62.081 28.8983 62.4107 28.8983 62.8166V66.6475H31.1069V62.3473C31.1069 61.4722 30.8545 60.7743 30.3747 60.2289C29.8701 59.6963 29.2264 59.4297 28.4061 59.4297Z" fill="white"/>
<path d="M38.7614 59.625H36.376L34.609 63.7347L32.9557 59.625H30.5703L33.4606 66.4112L31.9208 70.0013H34.3313L38.7741 59.625H38.7614Z" fill="white"/>
<path d="M41.3614 59.4297C40.5285 59.4297 39.8343 59.6201 39.2663 60.0133C38.6984 60.4191 38.3196 60.952 38.1681 61.6369L40.2632 62.0682C40.3643 61.4847 40.7555 61.1929 41.4372 61.1929C41.7275 61.1929 41.9798 61.2817 42.1564 61.4594C42.3332 61.6369 42.4216 61.878 42.4216 62.1698V62.3094H40.642C39.7206 62.3094 39.0138 62.4996 38.4964 62.9054C37.9789 63.3113 37.7266 63.8696 37.7266 64.5673C37.7266 65.2522 37.9662 65.8103 38.4458 66.2289C38.9129 66.6475 39.544 66.8631 40.3265 66.8631C41.1468 66.8631 41.841 66.6222 42.409 66.14V66.6602H44.5545V62.2205C44.5545 61.3451 44.2768 60.6602 43.7088 60.1655C43.1409 59.6708 42.3459 59.4424 41.3614 59.4424V59.4297ZM40.9576 65.1888C40.6673 65.1888 40.4274 65.1127 40.2508 64.9986C40.074 64.8715 39.9856 64.6941 39.9856 64.4657C39.9856 64.25 40.074 64.0725 40.2381 63.933C40.3896 63.806 40.6166 63.7426 40.8943 63.7426H42.4216V63.8948C42.4216 64.2755 42.2828 64.5925 41.9925 64.8336C41.7022 65.0745 41.3614 65.2015 40.9576 65.2015V65.1888Z" fill="white"/>
<path d="M51.8444 55.8906H51.1627V61.3073C50.8724 60.7871 50.4686 60.3685 49.9513 60.0767C49.4337 59.7849 48.8531 59.6454 48.222 59.6454C47.2629 59.6454 46.455 59.9751 45.7862 60.6348C45.1171 61.3073 44.7891 62.1696 44.7891 63.2225C44.7891 64.288 45.1171 65.1507 45.7862 65.8104C46.455 66.4698 47.2629 66.7998 48.222 66.7998C48.8531 66.7998 49.4337 66.6603 49.9513 66.3685C50.4686 66.0767 50.8724 65.6708 51.1627 65.1507V66.6475H51.8444V55.8906ZM48.3104 66.1908C47.5025 66.1908 46.8211 65.9244 46.2784 65.379C45.7358 64.8337 45.4581 64.1233 45.4581 63.2225C45.4581 62.3474 45.7358 61.6115 46.2911 61.0661C46.8337 60.5208 47.5152 60.2544 48.3104 60.2544C49.0803 60.2544 49.7367 60.5335 50.3171 61.0789C50.8851 61.6243 51.1627 62.3346 51.1627 63.21C51.1627 64.0851 50.8851 64.8082 50.3171 65.3409C49.7491 65.8865 49.0803 66.1655 48.3104 66.1655V66.1908Z" fill="white"/>
<path d="M53.8476 57.2109C53.6961 57.2109 53.5573 57.2616 53.4562 57.3632C53.3553 57.4645 53.3047 57.5916 53.3047 57.7436C53.3047 57.8959 53.3553 58.0102 53.4562 58.1115C53.5573 58.2131 53.6961 58.2638 53.8476 58.2638C53.9988 58.2638 54.1252 58.2131 54.2261 58.1115C54.3271 58.0102 54.3776 57.8959 54.3776 57.7436C54.3776 57.5916 54.3271 57.4645 54.2261 57.3632C54.1252 57.2616 53.9988 57.2109 53.8476 57.2109ZM54.1756 66.6484V59.8113H53.5066V66.6484H54.1756Z" fill="white"/>
<path d="M55.3281 57.2891V66.6507H57.6254V63.7837H59.8213C60.8942 63.7837 61.7524 63.492 62.3962 62.8959C63.0272 62.2996 63.3426 61.5131 63.3426 60.5237C63.3426 59.5597 63.0399 58.7732 62.4213 58.1771C61.7902 57.5936 60.9572 57.3018 59.9224 57.3018H55.3408L55.3281 57.2891ZM57.6254 61.8558V59.2552H59.6574C60.0865 59.2552 60.4399 59.3695 60.7049 59.6104C60.9699 59.8515 61.0961 60.1685 61.0961 60.5491C61.0961 60.955 60.9699 61.2595 60.7176 61.5006C60.4523 61.7415 60.1116 61.8683 59.6574 61.8683H57.6254V61.8558Z" fill="white"/>
<path d="M66.9246 59.4609C65.8391 59.4609 64.9179 59.8161 64.1858 60.4883C63.4412 61.1735 63.0625 62.0613 63.0625 63.1396C63.0625 64.2304 63.4412 65.1184 64.1858 65.8034C64.9179 66.4883 65.8391 66.8307 66.9246 66.8307C67.9975 66.8307 68.8935 66.4756 69.6381 65.8034C70.3702 65.1184 70.7489 64.2304 70.7489 63.1396C70.7489 62.0613 70.3702 61.1735 69.6381 60.4883C68.9062 59.8034 67.9975 59.4609 66.9246 59.4609ZM66.9246 64.9662C66.4577 64.9662 66.0536 64.8012 65.7129 64.446C65.3595 64.1163 65.1956 63.6723 65.1956 63.1523C65.1956 62.6194 65.3595 62.1881 65.7129 61.8329C66.0663 61.5032 66.4577 61.3255 66.9246 61.3255C67.3664 61.3255 67.7576 61.4905 68.111 61.8329C68.439 62.1881 68.6159 62.6194 68.6159 63.1523C68.6159 63.685 68.4517 64.1163 68.111 64.446C67.7829 64.8012 67.3915 64.9662 66.9246 64.9662Z" fill="white"/>
<path d="M72.9949 55.8906H70.7734V64.4276C70.7734 65.1507 71.0007 65.747 71.4425 66.1908C71.8716 66.6348 72.4523 66.8632 73.1842 66.8632C73.6891 66.8632 74.2317 66.7237 74.825 66.4319L74.4716 64.6814C74.0929 64.8082 73.8279 64.8716 73.6637 64.8716C73.4492 64.8716 73.2977 64.8209 73.1715 64.7066C73.0453 64.5925 72.9949 64.4403 72.9949 64.2628V55.8906Z" fill="white"/>
<path d="M75.7718 56.2969C75.3931 56.2969 75.0901 56.4237 74.8504 56.6648C74.6105 56.9184 74.4844 57.2229 74.4844 57.5781C74.4844 57.9333 74.6105 58.2251 74.8504 58.4532C75.0901 58.6943 75.3931 58.8211 75.7718 58.8211C76.1503 58.8211 76.4533 58.6943 76.7056 58.4532C76.9455 58.2123 77.0717 57.9205 77.0717 57.5781C77.0717 57.2229 76.9455 56.9311 76.7056 56.69C76.4533 56.4364 76.1503 56.3096 75.7718 56.3096V56.2969ZM76.8824 66.6477V59.6331H74.661V66.6477H76.8824Z" fill="white"/>
<path d="M82.2319 64.583C81.9165 64.7604 81.5631 64.862 81.2221 64.862C80.591 64.862 80.2883 64.5323 80.2883 63.8471V61.4118H82.3454V59.6358H80.2883V57.2891H78.0668V59.6358H76.8047V61.4118H78.0668V64.0628C78.0668 64.9761 78.3194 65.6737 78.7989 66.1432C79.2912 66.6125 79.9726 66.8536 80.8436 66.8536C81.4747 66.8536 82.1057 66.6886 82.7494 66.3334L82.2319 64.5702V64.583Z" fill="white"/>
<path d="M89.253 63.1465C89.2406 62.0303 88.8745 61.1295 88.1928 60.4446C87.5113 59.7597 86.6657 59.4297 85.6435 59.4297C84.5959 59.4297 83.725 59.7849 83.0182 60.4828C82.3114 61.1804 81.9453 62.081 81.9453 63.1465C81.9453 64.2373 82.3114 65.1254 83.0182 65.8103C83.725 66.5079 84.6086 66.8631 85.6308 66.8631C86.4511 66.8631 87.1579 66.6856 87.7512 66.305C88.3443 65.9371 88.7988 65.3917 89.0891 64.6686L87.1202 64.2628C86.8299 64.8081 86.325 65.0745 85.6308 65.0745C85.2521 65.0745 84.9367 64.9477 84.6717 64.7068C84.4065 64.4657 84.2299 64.136 84.1288 63.7174H89.2406V63.1465H89.253ZM85.6561 61.2438C85.9842 61.2438 86.2872 61.3451 86.5269 61.5229C86.7794 61.7003 86.956 61.9794 87.0571 62.3473H84.1795C84.2803 61.9921 84.4695 61.7385 84.7474 61.5356C85.0251 61.3451 85.3278 61.2438 85.6561 61.2438Z" fill="white"/>
<path d="M97.2507 66.6475L94.1331 62.563L96.7078 59.6327H94.1078L91.5963 62.4362V55.8906H89.375V66.6475H91.5963V65.4552L92.6565 64.2501L94.5243 66.6348H97.2631L97.2507 66.6475Z" fill="white"/>
<path d="M101.351 59.4297C100.48 59.4297 99.7609 59.7215 99.2056 60.305V59.6329H96.9844V66.6475H99.2056V63.3874C99.2056 62.7279 99.3318 62.2332 99.597 61.9033C99.8493 61.5862 100.19 61.434 100.657 61.434C101.011 61.434 101.301 61.5608 101.515 61.8146C101.743 62.081 101.844 62.4107 101.844 62.8166V66.6475H104.052V62.3473C104.052 61.4722 103.8 60.7743 103.32 60.2289C102.815 59.6963 102.172 59.4297 101.351 59.4297Z" fill="white"/>
<path d="M105.772 56.2969C105.393 56.2969 105.09 56.4237 104.85 56.6648C104.611 56.9184 104.484 57.2229 104.484 57.5781C104.484 57.9333 104.611 58.2251 104.85 58.4532C105.09 58.6943 105.393 58.8211 105.772 58.8211C106.15 58.8211 106.453 58.6943 106.706 58.4532C106.946 58.2123 107.072 57.9205 107.072 57.5781C107.072 57.2229 106.946 56.9311 106.706 56.69C106.453 56.4364 106.15 56.3096 105.772 56.3096V56.2969ZM106.882 66.6477V59.6331H104.661V66.6477H106.882Z" fill="white"/>
<path d="M115.454 66.6475L112.336 62.563L114.911 59.6327H112.311L109.799 62.4362V55.8906H107.578V66.6475H109.799V65.4552L110.86 64.2501L112.728 66.6348H115.466L115.454 66.6475Z" fill="white"/>
<path d="M122.066 64.6336H117.484V57.2891H115.188V66.6507H122.066V64.6336Z" fill="white"/>
<path d="M122.32 57.2891V66.6507H124.618V63.7837H126.813C127.886 63.7837 128.745 63.492 129.388 62.8959C130.019 62.2996 130.335 61.5131 130.335 60.5237C130.335 59.5597 130.032 58.7732 129.413 58.1771C128.782 57.5936 127.949 57.3018 126.915 57.3018H122.333L122.32 57.2891ZM124.618 61.8558V59.2552H126.65C127.079 59.2552 127.432 59.3695 127.697 59.6104C127.962 59.8515 128.088 60.1685 128.088 60.5491C128.088 60.955 127.962 61.2595 127.71 61.5006C127.445 61.7415 127.104 61.8683 126.65 61.8683H124.618V61.8558Z" fill="white"/>
<path d="M136.065 61.9188C136.734 61.5256 137.062 60.9041 137.062 60.0288C137.062 59.1661 136.759 58.456 136.141 57.9104C135.51 57.365 134.714 57.0859 133.717 57.0859C132.758 57.0859 131.963 57.3523 131.345 57.8977C130.713 58.4433 130.347 59.1661 130.247 60.0922L132.342 60.4983C132.379 59.9908 132.518 59.6229 132.771 59.3693C133.023 59.1155 133.339 58.9887 133.73 58.9887C134.109 58.9887 134.399 59.0902 134.639 59.2805C134.866 59.4707 134.967 59.737 134.967 60.0669C134.967 60.3712 134.853 60.6251 134.639 60.8025C134.411 60.9802 134.109 61.0816 133.717 61.0816H132.745V62.7814H133.818C134.222 62.7814 134.525 62.883 134.752 63.0604C134.979 63.2382 135.08 63.4918 135.08 63.809C135.08 64.1387 134.954 64.4051 134.702 64.6207C134.449 64.8364 134.134 64.938 133.743 64.938C133.339 64.938 133.01 64.8109 132.771 64.5573C132.518 64.3037 132.367 63.9485 132.304 63.479L130.133 63.8851C130.234 64.7984 130.625 65.5088 131.269 66.0415C131.925 66.5868 132.745 66.8534 133.73 66.8534C134.74 66.8534 135.573 66.5741 136.229 66.0035C136.885 65.4452 137.201 64.7223 137.201 63.8342C137.201 62.9464 136.809 62.2994 136.052 61.9063L136.065 61.9188Z" fill="white"/>
<path d="M141.015 59.3061H142.782V57.2891H136.977V59.3061H138.743V64.6464H136.977V66.6632H142.782V64.6464H141.015V59.3061Z" fill="white"/>
<path d="M9.11483 32.6319C7.75173 32.6319 6.50223 32.9362 5.37894 33.5704C4.25565 34.2047 3.34692 35.1307 2.71586 36.2469V32.9871H1.22656V55.2111H2.71586V44.6319C3.34692 45.7608 4.26827 46.6487 5.37894 47.2829C6.50223 47.9171 7.73912 48.2217 9.11483 48.2217C11.2099 48.2217 12.9643 47.4858 14.4157 46.0524C15.8672 44.6191 16.5992 42.7291 16.5992 40.4076C16.5992 38.1245 15.8672 36.2345 14.4157 34.7628C12.9643 33.3296 11.1973 32.5938 9.11483 32.5938V32.6319ZM8.93813 46.8898C7.27212 46.8898 5.82068 46.2808 4.57118 45.0884C3.32168 43.896 2.71586 42.3485 2.71586 40.4203C2.71586 38.5049 3.34692 36.9448 4.59642 35.7522C5.84592 34.5599 7.2595 33.9511 8.93813 33.9511C10.6672 33.9511 12.1565 34.5347 13.3682 35.7143C14.5546 36.9066 15.1604 38.4924 15.1604 40.4076C15.1604 42.3612 14.5546 43.9088 13.3682 45.1011C12.1818 46.2935 10.7051 46.8643 8.93813 46.8643V46.8898Z" fill="white"/>
<path d="M32.4243 40.0408C32.3359 37.8463 31.6417 36.0451 30.3039 34.6751C28.9409 33.3052 27.237 32.6328 25.205 32.6328C23.1098 32.6328 21.3176 33.3686 19.8031 34.8021C18.2885 36.2608 17.5312 38.1508 17.5312 40.4976C17.5312 42.8189 18.2885 44.6709 19.7778 46.1042C21.2671 47.5376 23.0215 48.2353 25.0282 48.2353C26.7574 48.2353 28.2088 47.804 29.4205 46.9795C30.6322 46.1551 31.5156 44.9627 32.0835 43.4149L30.7834 43.1107C29.7865 45.6349 27.8427 46.9161 25.0157 46.9161C23.438 46.9161 22.0496 46.3325 20.8254 45.1784C19.6137 44.024 19.0079 42.5016 18.9701 40.5737H32.3989V40.0283L32.4243 40.0408ZM25.205 33.9774C26.7574 33.9774 28.0195 34.4594 29.0924 35.4109C30.1524 36.3876 30.7583 37.7322 30.9476 39.432H19.0584C19.273 37.7829 19.9671 36.4764 21.1788 35.4743C22.3652 34.4721 23.7283 33.9774 25.2176 33.9774H25.205Z" fill="white"/>
<path d="M42.3276 32.6328C39.4752 32.6328 37.4432 33.8252 36.2315 36.1719V33.0007H34.7422V47.9055H36.2315V40.4342C36.2315 38.4553 36.7742 36.895 37.8344 35.7406C38.8946 34.6117 40.346 34.0283 42.1383 34.0283C43.5392 34.0283 44.6499 34.5103 45.5333 35.4616C46.3789 36.4003 46.808 37.6815 46.808 39.2418V47.8928H48.2974V39.0261C48.2974 37.1107 47.7547 35.5759 46.6566 34.396C45.5333 33.2037 44.1072 32.6328 42.3149 32.6328H42.3276Z" fill="white"/>
<path d="M65.2056 40.0408C65.1172 37.8463 64.423 36.0451 63.0852 34.6751C61.7222 33.3052 60.0183 32.6328 57.9863 32.6328C55.8912 32.6328 54.0988 33.3686 52.5844 34.8021C51.0697 36.2608 50.3125 38.1508 50.3125 40.4976C50.3125 42.8189 51.0697 44.6709 52.5591 46.1042C54.0484 47.5376 55.8028 48.2353 57.8095 48.2353C59.5387 48.2353 60.9901 47.804 62.2018 46.9795C63.4135 46.1551 64.2969 44.9627 64.8648 43.4149L63.5647 43.1107C62.5678 45.6349 60.624 46.9161 57.797 46.9161C56.2193 46.9161 54.831 46.3325 53.6066 45.1784C52.3952 44.024 51.7892 42.5016 51.7514 40.5737H65.1802V40.0283L65.2056 40.0408ZM57.9863 33.9774C59.5387 33.9774 60.8008 34.4594 61.8737 35.4109C62.9337 36.3876 63.5396 37.7322 63.7289 39.432H51.8396C52.0542 37.7829 52.7486 36.4764 53.96 35.4743C55.1464 34.4721 56.5096 33.9774 57.9989 33.9774H57.9863Z" fill="white"/>
<path d="M85.2737 32.6297C83.9736 32.6297 82.8503 32.9342 81.8407 33.5432C80.8436 34.1775 80.0864 35.0398 79.5308 36.1309C79.2028 35.0653 78.559 34.2154 77.6503 33.5684C76.7165 32.9342 75.6436 32.6297 74.4066 32.6297C71.895 32.6297 70.065 33.7334 69.0047 35.9152V32.9849H67.5156V47.8897H69.0047V40.0504C69.0047 38.1858 69.4592 36.7269 70.4057 35.6361C71.3146 34.5706 72.5261 34.0252 74.0785 34.0252C75.3533 34.0252 76.3882 34.4183 77.1707 35.1794C77.928 35.9407 78.3194 36.9808 78.3194 38.262V47.8897H79.8087V40.0504C79.8087 38.1858 80.263 36.7017 81.2097 35.6361C82.1435 34.5706 83.3929 34.0252 84.9454 34.0252C86.2201 34.0252 87.255 34.4183 88.0376 35.1794C88.795 35.9407 89.1862 36.9808 89.1862 38.262V47.8897H90.6755V38.0463C90.6755 36.4354 90.158 35.116 89.1609 34.1138C88.1637 33.1119 86.8512 32.6172 85.2737 32.6172V32.6297Z" fill="white"/>
<path d="M102.021 32.6319C100.658 32.6319 99.4083 32.9362 98.285 33.5704C97.1617 34.2047 96.253 35.1307 95.6219 36.2469V32.9871H94.1328V55.2111H95.6219V44.6319C96.253 45.7608 97.1744 46.6487 98.285 47.2829C99.4083 47.9171 100.645 48.2217 102.021 48.2217C104.116 48.2217 105.87 47.4858 107.322 46.0524C108.773 44.6191 109.505 42.7291 109.505 40.4076C109.505 38.1245 108.773 36.2345 107.322 34.7628C105.87 33.3296 104.104 32.5938 102.021 32.5938V32.6319ZM101.844 46.8898C100.178 46.8898 98.7268 46.2808 97.4774 45.0884C96.2279 43.896 95.6219 42.3485 95.6219 40.4203C95.6219 38.5049 96.253 36.9448 97.5027 35.7522C98.7521 34.5599 100.166 33.9511 101.844 33.9511C103.573 33.9511 105.063 34.5347 106.274 35.7143C107.461 36.9066 108.067 38.4924 108.067 40.4076C108.067 42.3612 107.461 43.9088 106.274 45.1011C105.088 46.2935 103.611 46.8643 101.844 46.8643V46.8898Z" fill="white"/>
<path d="M117.308 32.6297C115.731 32.6297 114.393 33.023 113.27 33.8475C112.146 34.6722 111.477 35.7123 111.263 37.0187L112.664 37.3866C112.84 36.3465 113.358 35.5218 114.216 34.8876C115.062 34.2788 116.122 33.9743 117.371 33.9743C118.735 33.9743 119.795 34.3677 120.615 35.1287C121.435 35.8897 121.827 36.9553 121.827 38.3254V39.2639L116.463 39.2387C114.519 39.2387 113.03 39.67 112.007 40.5199C110.947 41.3698 110.43 42.4987 110.43 43.8686C110.43 45.1498 110.909 46.1899 111.881 47.0018C112.815 47.8263 114.09 48.2194 115.705 48.2194C117.069 48.2194 118.28 47.9151 119.34 47.3316C120.4 46.748 121.246 45.9615 121.827 44.9596V47.8897H123.253V38.262C123.253 36.4988 122.71 35.1287 121.65 34.1138C120.59 33.1119 119.138 32.6172 117.308 32.6172V32.6297ZM115.857 46.9891C114.671 46.9891 113.699 46.6846 112.979 46.1013C112.222 45.5177 111.856 44.7566 111.856 43.8433C111.856 42.8412 112.247 42.042 113.042 41.4077C113.825 40.7989 114.948 40.4944 116.438 40.4944H121.839V41.5854C121.839 43.1075 121.259 44.3887 120.11 45.4288C118.924 46.4689 117.535 46.9891 115.87 46.9891H115.857Z" fill="white"/>
<path d="M133.767 45.8316C132.984 46.5038 132.126 46.8336 131.192 46.8336C130.283 46.8336 129.551 46.5293 129.008 45.9457C128.428 45.3622 128.163 44.6011 128.163 43.599V34.2755H133.716V32.9945H128.163V27.4766H126.673V32.9945H123.43V34.2755H126.673V43.6878C126.673 45.1213 127.065 46.2121 127.885 47.0113C128.705 47.8357 129.766 48.2291 131.103 48.2291C132.227 48.2291 133.312 47.8357 134.347 47.0365L133.767 45.8189V45.8316Z" fill="white"/>
<path d="M141.386 32.6297C139.809 32.6297 138.471 33.023 137.347 33.8475C136.224 34.6722 135.555 35.7123 135.341 37.0187L136.742 37.3866C136.918 36.3465 137.436 35.5218 138.294 34.8876C139.14 34.2788 140.2 33.9743 141.449 33.9743C142.812 33.9743 143.873 34.3677 144.693 35.1287C145.513 35.8897 145.905 36.9553 145.905 38.3254V39.2639L140.541 39.2387C138.597 39.2387 137.108 39.67 136.085 40.5199C135.025 41.3698 134.508 42.4987 134.508 43.8686C134.508 45.1498 134.987 46.1899 135.959 47.0018C136.893 47.8263 138.168 48.2194 139.783 48.2194C141.146 48.2194 142.358 47.9151 143.418 47.3316C144.478 46.748 145.324 45.9615 145.905 44.9596V47.8897H147.331V38.262C147.331 36.4988 146.788 35.1287 145.728 34.1138C144.668 33.1119 143.216 32.6172 141.386 32.6172V32.6297ZM139.935 46.9891C138.748 46.9891 137.777 46.6846 137.057 46.1013C136.3 45.5177 135.934 44.7566 135.934 43.8433C135.934 42.8412 136.325 42.042 137.12 41.4077C137.903 40.7989 139.026 40.4944 140.515 40.4944H145.917V41.5854C145.917 43.1075 145.337 44.3887 144.188 45.4288C143.002 46.4689 141.613 46.9891 139.947 46.9891H139.935Z" fill="white"/>
<path d="M157.999 32.6328C155.147 32.6328 153.115 33.8252 151.903 36.1719V33.0007H150.414V47.9055H151.903V40.4342C151.903 38.4553 152.446 36.895 153.506 35.7406C154.566 34.6117 156.018 34.0283 157.81 34.0283C159.211 34.0283 160.322 34.5103 161.205 35.4616C162.051 36.4003 162.48 37.6815 162.48 39.2418V47.8928H163.969V39.0261C163.969 37.1107 163.427 35.5759 162.328 34.396C161.205 33.2037 159.779 32.6328 157.987 32.6328H157.999Z" fill="white"/>
<path d="M186.24 47.8991L178.087 36.2292L185.394 27.4766H179.728L171.271 37.561V27.4766H166.273V47.8991H171.271V44.3982L174.856 40.098L180.194 47.8991H186.265H186.24Z" fill="white"/>
<path d="M199.975 40.2541C199.95 37.8187 199.154 35.8653 197.665 34.3684C196.176 32.8715 194.333 32.1484 192.112 32.1484C189.84 32.1484 187.921 32.9097 186.382 34.4318C184.829 35.9539 184.047 37.9075 184.047 40.2541C184.047 42.6263 184.829 44.5797 186.382 46.0766C187.934 47.5986 189.84 48.3599 192.086 48.3599C193.879 48.3599 195.419 47.9666 196.731 47.1421C198.031 46.3556 199.003 45.1633 199.647 43.5775L195.343 42.6897C194.712 43.882 193.614 44.4529 192.099 44.4529C191.279 44.4529 190.584 44.1738 190.004 43.6664C189.423 43.1462 189.032 42.4106 188.818 41.4973H199.975V40.2416V40.2541ZM192.124 36.1061C192.856 36.1061 193.487 36.3218 194.03 36.7152C194.573 37.1083 194.964 37.7171 195.179 38.5163H188.906C189.12 37.7553 189.537 37.1717 190.155 36.7531C190.761 36.3218 191.43 36.1189 192.124 36.1189V36.1061Z" fill="white"/>
<path d="M210.73 32.3877C208.483 32.3877 206.729 33.4278 205.479 35.521V32.5907H200.633V47.8886H205.479V43.1064C205.479 39.301 207.234 37.3728 210.73 37.3728H211.613L211.828 32.5018C211.5 32.4132 211.134 32.375 210.73 32.375V32.3877Z" fill="white"/>
<path d="M215.032 25.3252C214.212 25.3252 213.542 25.6043 213.025 26.1117C212.508 26.6571 212.243 27.3295 212.243 28.0906C212.243 28.8516 212.52 29.4986 213.025 30.006C213.542 30.526 214.212 30.7923 215.032 30.7923C215.852 30.7923 216.521 30.5132 217.064 30.006C217.581 29.4859 217.846 28.8516 217.846 28.0906C217.846 27.3295 217.569 26.6826 217.064 26.1369C216.521 25.5916 215.852 25.3125 215.032 25.3125V25.3252ZM209.453 54.8937C210.513 55.3251 211.574 55.528 212.634 55.528C214.123 55.528 215.297 55.0712 216.18 54.1834C217.064 53.2953 217.48 52.1157 217.48 50.6188V32.6064H212.659V50.0734C212.659 50.4413 212.533 50.7458 212.331 50.9615C212.091 51.1771 211.788 51.2912 211.397 51.2912C211.119 51.2912 210.703 51.2024 210.185 51.0501L209.453 54.8937Z" fill="white"/>
<path d="M226.21 32.1484C224.393 32.1484 222.878 32.5798 221.629 33.4297C220.379 34.3177 219.571 35.4719 219.231 36.9688L223.812 37.9075C224.027 36.6263 224.872 35.9921 226.362 35.9921C226.993 35.9921 227.548 36.1695 227.939 36.5756C228.331 36.9688 228.52 37.4889 228.52 38.1359V38.4402H224.633C222.626 38.4402 221.086 38.8715 219.963 39.7469C218.84 40.6347 218.297 41.8525 218.297 43.3746C218.297 44.8715 218.814 46.0893 219.874 47.0026C220.909 47.9159 222.272 48.3724 223.964 48.3724C225.756 48.3724 227.271 47.8525 228.507 46.7869V47.9159H233.177V38.2245C233.177 36.3091 232.571 34.8124 231.322 33.7469C230.072 32.6813 228.356 32.1612 226.198 32.1612L226.21 32.1484ZM225.327 44.7065C224.696 44.7065 224.178 44.5545 223.774 44.2752C223.383 43.9961 223.194 43.603 223.194 43.121C223.194 42.6642 223.37 42.2711 223.736 41.9666C224.065 41.6875 224.557 41.5353 225.163 41.5353H228.495V41.8652C228.495 42.6897 228.192 43.3873 227.561 43.9075C226.93 44.4274 226.198 44.694 225.314 44.694L225.327 44.7065Z" fill="white"/>
<path fill-rule="evenodd" clip-rule="evenodd" d="M100.851 0.106152L83.9893 4.64734C82.3358 5.09131 81.3513 6.80379 81.7931 8.4655L86.3116 25.4126C86.7532 27.0742 88.4571 28.0636 90.1106 27.6196L106.972 23.0785C108.626 22.6345 109.61 20.9221 109.169 19.2603L104.65 2.31333C104.209 0.651603 102.505 -0.337819 100.851 0.106152ZM104.307 17.6619L102.83 20.5668V20.5921L100.457 19.3997C99.4352 20.6683 98.0469 21.5562 96.305 22.0255C94.5129 22.5076 92.9351 22.4695 91.5849 21.886C90.247 21.3152 89.3634 20.3131 88.9849 18.8797C88.5431 17.218 89.048 15.6958 90.4993 14.3004C89.5402 13.552 88.9218 12.6514 88.6315 11.5859C88.2907 10.3427 88.5053 9.18841 89.2372 8.13556C89.9567 7.08271 91.042 6.37236 92.5187 5.97911C93.9827 5.58589 95.2701 5.64931 96.3177 6.22013C97.3652 6.79095 98.1604 7.69159 98.7157 8.93472L95.5227 10.4315C95.0429 9.11229 94.311 8.60489 93.2885 8.88397C92.8343 8.99814 92.5062 9.21377 92.279 9.54358C92.0518 9.8734 92.014 10.2666 92.1402 10.7233C92.2537 11.1419 92.4682 11.497 92.8216 11.8142C93.175 12.144 93.7304 12.4992 94.5382 12.8924L98.5012 14.8205C98.4885 14.4019 98.4128 13.9452 98.2866 13.4632L98.0089 12.4357L101.29 11.5478L101.568 12.5753C101.934 13.9326 102.01 15.2264 101.795 16.4315L104.307 17.6619ZM93.6169 18.9938C94.1848 19.2349 94.8663 19.2475 95.6615 19.0319V19.0192C96.3557 18.8416 96.9614 18.4484 97.4663 17.9029L93.1373 15.7719C92.544 16.4315 92.3294 17.0911 92.5062 17.7507C92.6701 18.3469 93.0489 18.7528 93.6169 18.9938Z" fill="white"/>
</g>
<defs>
<clipPath id="clip0_5126_71">
<rect width="233.1" height="70" fill="white" transform="translate(0.09375)"/>
</clipPath>
</defs>
</svg>
