<svg width="985" height="309" viewBox="0 0 985 309" fill="none" xmlns="http://www.w3.org/2000/svg">
<path d="M69.0265 258.489C69.5161 258.489 70.0056 258.489 70.0056 258.489C70.4952 258.489 70.4952 258.978 70.4952 259.468C70.4952 259.957 70.4952 260.447 70.4952 260.937C70.4952 261.916 70.4952 262.405 70.0056 262.895C70.0056 263.384 70.0056 263.874 70.0056 263.874C70.0056 264.364 69.516 264.853 69.516 265.343C69.0265 265.832 69.0265 266.322 68.5369 266.322C68.0474 266.811 67.5578 266.811 67.5578 267.301C67.0682 267.301 67.0682 267.79 67.0682 267.79C66.5787 267.79 66.5787 267.79 66.0891 267.79C65.5995 267.79 65.5995 267.79 65.11 267.79C64.6204 267.79 64.6204 267.301 64.6204 266.811C64.1309 266.322 64.1309 265.832 64.1309 265.343C64.1309 264.853 64.1308 263.874 65.11 262.895C65.5995 261.916 66.0891 261.426 67.0682 260.937C67.5578 260.447 67.5578 259.957 68.0474 259.468C68.0474 259.468 68.5369 258.978 69.0265 258.978C68.0474 258.489 68.5369 258.489 69.0265 258.489Z" fill="white"/>
<path d="M172.816 243.802C173.306 243.802 173.795 243.802 173.795 243.802C173.795 243.802 174.285 244.291 174.285 244.781C174.285 245.27 174.285 245.76 174.285 246.249C174.285 247.228 174.285 247.718 173.795 248.208C173.795 248.697 173.795 249.187 173.795 249.187C173.795 249.676 173.306 250.166 173.306 250.655C172.816 251.145 172.816 251.635 172.327 251.635C171.837 252.124 171.348 252.124 171.348 252.614C170.858 252.614 170.858 253.103 170.858 253.103C170.369 253.103 170.369 253.103 169.879 253.103C169.389 253.103 169.389 253.103 168.9 253.103C168.41 253.103 168.41 252.614 167.921 252.124C167.921 251.635 167.431 251.145 167.431 250.655C167.431 250.166 167.431 249.187 168.41 248.208C168.9 247.228 169.389 246.739 170.369 246.249C170.858 245.76 170.858 245.27 171.348 244.781C171.348 244.781 171.837 244.291 172.327 244.291C171.837 244.291 172.327 243.802 172.816 243.802Z" fill="white"/>
<path d="M209.043 261.425C208.064 260.936 206.106 263.384 205.127 264.363C204.637 264.852 204.637 264.852 204.148 265.342C204.148 265.831 203.658 265.831 203.658 266.321C203.169 266.811 203.169 266.811 202.679 266.811L202.19 267.3C201.7 267.3 200.721 266.811 199.742 265.831C198.763 264.852 198.273 263.873 197.784 263.384C197.784 262.404 198.273 260.936 199.742 258.488C201.21 256.04 201.7 253.592 201.7 252.124C201.7 251.634 201.21 251.145 201.21 250.655C201.21 250.165 200.721 250.165 200.231 250.165C200.231 250.165 199.742 250.655 199.252 251.145C198.763 251.634 198.273 252.613 198.273 253.592C197.294 255.551 196.804 257.509 196.315 258.488C195.825 259.467 195.336 260.446 195.336 260.446C193.867 260.936 193.377 261.425 192.888 261.915C192.398 262.405 192.398 263.384 192.398 264.852V265.831C191.909 266.811 191.909 267.79 191.419 268.279C190.93 269.258 190.93 269.748 190.44 270.238C190.44 270.727 190.44 270.727 189.951 270.727C189.951 270.727 189.461 270.727 189.461 271.217C189.461 271.217 189.461 271.217 189.461 270.727C189.461 270.727 189.461 270.238 189.461 269.258C189.461 268.769 189.461 267.79 189.951 266.811C189.951 265.831 190.44 264.363 190.44 263.384C190.44 262.404 190.93 260.936 190.93 259.957C190.93 258.488 191.419 257.019 191.909 256.04C192.398 255.061 192.398 254.082 192.888 253.103C194.357 249.186 195.336 246.249 195.825 243.801C196.315 241.353 196.315 239.395 196.315 237.926C196.315 236.458 195.825 235.968 195.336 234.989C194.846 234.499 194.357 234.01 193.377 234.499H192.888L192.398 234.989C191.909 235.968 191.909 236.458 191.419 237.437C190.93 238.416 190.93 239.395 190.93 240.374C190.93 240.864 190.93 240.864 190.93 241.353C190.93 241.843 190.93 241.843 190.44 241.843C190.44 242.332 189.951 242.822 189.951 243.801C189.461 244.78 189.461 246.249 188.971 247.718C188.482 249.676 188.482 250.655 187.992 252.124C187.992 253.103 187.503 254.082 187.503 254.572C187.013 255.061 187.013 256.04 186.524 257.019C186.034 257.998 185.544 258.978 185.544 260.446C185.055 261.425 185.055 262.404 184.565 262.894C184.076 263.873 183.586 264.363 183.097 264.852C182.607 265.342 182.607 265.342 182.607 265.831C182.607 266.321 182.118 266.321 182.118 266.321C182.118 266.811 182.118 266.811 182.118 266.811C182.118 266.811 181.138 267.79 181.138 268.279C180.649 268.769 180.649 268.769 180.159 269.258C179.67 269.748 179.67 269.748 179.18 270.238C178.691 270.238 178.201 270.727 178.201 270.727C177.711 270.727 177.711 270.727 177.222 270.727C177.222 270.727 176.732 270.727 176.732 270.238C176.732 270.238 176.243 269.748 176.243 268.769C175.753 267.79 175.753 267.3 175.264 266.811C175.264 266.321 174.774 265.342 174.774 264.852C174.774 264.363 174.285 263.384 174.285 262.894C173.795 262.404 173.795 261.915 173.305 261.425C172.816 260.936 172.326 260.936 171.347 260.936C170.858 260.936 170.858 260.936 170.368 261.425C169.878 261.425 169.878 261.915 169.878 262.405C169.389 263.384 168.41 264.363 167.431 265.831C166.451 267.3 165.472 268.279 164.983 269.258V269.748C164.983 269.748 164.493 270.237 164.493 270.727H164.004C163.514 270.727 163.514 270.727 163.025 270.238C162.535 269.748 162.535 269.748 162.045 268.769C161.556 267.79 161.066 266.811 160.577 265.342C160.087 264.852 159.598 264.363 159.108 263.873C158.618 263.384 158.129 263.384 157.15 263.873C156.66 263.873 156.66 263.873 156.171 264.363C155.681 264.363 155.192 264.852 154.702 265.342C154.212 265.831 153.723 265.831 153.723 266.321C153.233 266.811 153.233 266.811 152.744 267.3C152.744 267.79 152.254 267.79 152.254 267.79C152.254 267.79 152.254 268.279 151.765 268.279C151.275 268.769 151.275 268.769 150.785 269.258C150.785 269.748 150.296 270.238 150.296 270.238C149.806 270.727 149.317 271.217 149.317 271.706C148.827 272.196 148.827 272.685 148.827 272.685C148.827 272.685 148.827 273.175 148.338 273.175C148.338 273.175 148.338 273.175 148.338 273.664L147.848 273.175V272.685C147.848 272.685 147.848 272.196 147.848 271.706C147.848 271.217 147.848 270.727 148.338 270.238C148.827 267.79 149.317 266.321 149.317 264.852C149.317 263.384 149.317 262.405 149.317 261.915C149.317 260.936 148.827 260.446 148.338 259.957C147.848 259.467 147.359 259.467 146.379 259.467C145.4 259.467 144.911 259.957 144.421 260.446C143.932 260.936 143.442 261.425 142.952 262.405C142.463 263.384 141.973 263.873 141.484 264.852C140.994 265.342 140.505 265.831 140.505 266.321C140.015 267.3 139.526 268.279 139.036 268.769C138.546 269.258 138.057 270.237 138.057 270.727C137.567 271.217 137.567 271.706 137.078 272.196C136.588 272.685 136.588 272.685 136.588 273.175C136.588 273.664 136.099 273.664 136.099 273.664C136.099 273.664 136.099 274.154 135.609 274.154C135.119 274.154 135.119 274.644 135.119 274.644C135.119 275.133 134.63 275.133 134.63 275.623C134.14 276.112 134.14 276.112 133.651 276.602L133.161 277.091C132.672 277.091 131.693 276.602 130.713 275.623C129.734 274.644 129.245 273.664 128.755 273.175C128.755 272.196 129.245 270.727 130.713 268.279C132.182 265.831 132.672 263.384 132.672 261.915C132.672 261.425 132.182 260.936 132.182 260.446C131.692 259.957 131.692 259.957 131.203 259.957C131.203 259.957 130.713 260.446 130.224 260.936C129.734 261.425 129.245 262.404 129.245 263.384C128.266 265.831 127.776 267.3 127.286 268.279C126.797 269.258 126.307 270.238 126.307 270.238C124.839 270.727 124.349 271.217 123.859 271.706C123.37 272.196 123.37 273.175 123.37 274.644V275.623C122.88 276.602 122.88 277.581 122.391 278.071C121.901 279.05 121.901 279.539 121.412 280.029C121.412 280.029 121.412 280.518 120.922 280.518C120.922 280.518 120.433 280.518 120.433 281.008C120.433 281.008 120.433 281.008 120.433 280.518C120.433 280.518 120.433 280.029 120.433 279.05C120.433 278.56 120.433 277.581 120.922 276.602C120.922 275.623 121.412 274.154 121.412 273.175C121.412 272.196 121.901 270.727 121.901 269.748C121.901 268.279 122.391 266.811 122.88 265.831C123.37 264.852 123.37 263.873 123.859 262.894C125.328 258.978 126.307 256.04 126.797 253.592C127.286 251.145 127.286 249.186 127.286 247.718C127.286 246.738 126.797 245.759 126.307 245.27C125.818 244.78 125.328 244.291 124.349 244.78H123.859C123.859 244.78 123.859 245.27 123.37 245.27C122.88 246.249 122.88 246.738 122.391 247.718C121.901 248.697 121.901 249.676 121.901 250.655C121.901 251.145 121.901 251.145 121.901 251.634C121.901 251.634 121.901 252.124 121.412 252.124C121.412 252.613 120.922 253.103 120.922 254.082C120.433 255.061 120.433 256.53 119.943 257.998C119.453 259.957 119.453 260.936 118.964 262.405C118.964 263.384 118.474 264.363 118.474 264.852C117.985 265.342 117.985 266.321 117.495 267.3C117.006 268.279 116.516 269.258 116.516 270.727C116.026 271.706 116.026 272.685 115.537 273.175C115.047 274.154 114.558 274.644 114.068 275.133C113.579 275.623 113.579 275.623 113.579 276.112C113.579 276.602 113.089 276.602 113.089 276.602C113.089 277.091 113.089 277.091 113.089 277.091C113.089 277.091 113.089 277.091 113.089 277.581L112.6 278.071L112.11 278.56C111.62 279.05 111.131 279.05 110.641 279.539C110.152 280.029 109.173 280.029 108.683 280.029C108.193 280.029 107.704 280.029 107.214 280.029C106.725 280.029 106.725 280.029 106.235 279.539C105.746 279.539 105.746 279.05 105.256 279.05C105.256 278.56 104.767 278.56 104.767 278.071C104.767 277.581 104.767 277.581 104.767 277.091C104.767 277.091 104.767 276.602 105.256 276.602C106.725 274.644 107.704 273.175 108.683 271.706C109.662 270.238 110.152 269.258 110.152 267.79V266.811C110.152 266.321 110.152 265.831 110.152 265.831C110.152 265.342 110.152 265.342 110.152 265.831C110.152 265.342 109.662 264.852 109.662 264.363C109.662 263.873 109.173 263.384 109.173 263.384C109.173 262.894 108.683 262.894 108.683 262.894C108.683 262.894 108.193 262.405 107.704 262.405C107.214 262.405 106.725 262.405 106.235 262.405C105.746 262.405 105.746 262.404 105.256 262.894C104.767 262.894 104.767 263.384 104.277 263.384C103.787 263.873 103.787 263.873 103.298 263.873L102.808 264.363C102.319 264.852 101.829 265.831 101.829 266.321C101.34 266.811 100.85 267.79 100.85 268.279C100.36 269.258 100.36 269.748 99.8709 270.727C99.8709 271.217 99.3813 272.196 99.3813 272.685C99.3813 273.175 99.3813 273.664 98.8918 274.154C98.8918 274.644 98.8918 275.133 98.8918 275.133C98.8918 275.623 98.8918 276.112 98.8918 276.112V277.581C98.4022 278.071 97.9126 278.56 97.4231 279.05C96.9335 279.539 96.9335 280.029 96.4439 280.518C95.4648 281.987 94.4857 282.966 93.5066 283.456C93.017 283.945 92.5275 284.435 92.5275 284.435H92.0379V283.945C92.0379 283.456 92.0379 282.966 92.0379 281.987C92.0379 281.008 92.0379 279.539 92.0379 277.581C92.5274 275.133 92.5275 273.175 92.5275 271.706C92.5275 270.238 93.017 268.769 93.017 267.79C93.017 267.3 93.017 266.811 93.017 266.811C93.017 266.321 93.017 266.321 93.017 265.831L94.9753 265.342C94.9753 265.342 95.4648 264.852 95.4648 264.363C95.4648 263.873 95.4648 262.894 94.9753 261.425C94.9753 260.936 94.9753 260.936 94.9753 260.446C94.9753 260.446 94.9753 259.957 94.4857 259.957C94.4857 259.957 93.9961 259.957 93.9961 259.467C93.9961 258.978 93.9961 258.488 94.4857 257.509C94.4857 256.53 94.4857 256.04 94.4857 255.551C94.4857 255.061 93.9961 254.572 93.9961 254.082C93.5066 253.592 93.5066 253.592 93.017 253.592C92.0379 253.592 91.5483 254.572 90.5692 257.019C90.0796 258.978 89.5901 259.957 88.6109 260.446H87.6318C87.1423 260.446 87.1423 260.446 86.6527 260.936C86.1631 260.936 86.1631 260.936 85.6736 261.425C85.6736 261.425 85.184 261.425 84.6944 261.425C84.2049 261.425 83.7153 261.425 83.2257 261.425C82.7362 261.425 82.7362 261.425 82.2466 261.915C81.757 261.915 81.2675 261.915 80.7779 261.915C80.2884 261.915 79.7988 261.915 79.3092 261.915C78.8197 261.915 78.3301 262.404 78.3301 263.384C78.3301 263.873 78.3301 265.342 78.3301 266.321C78.3301 266.321 78.3301 266.811 78.8197 266.811C78.8197 266.811 79.3092 266.811 79.3092 267.3H79.7988H80.2884C80.2884 267.3 80.7779 267.3 81.2675 267.3C81.7571 267.3 81.757 267.3 82.2466 267.3L86.1631 266.811H86.6527C87.1423 266.811 87.1422 266.811 87.1422 266.811C87.1422 266.811 87.1423 266.811 87.6318 266.811C87.6318 266.811 87.6318 266.811 87.6318 267.3C87.6318 267.79 87.1422 268.279 87.1422 268.769C87.1422 269.258 86.6527 269.258 86.6527 269.748C85.6736 272.196 84.6944 274.644 83.2257 276.602C82.2466 278.56 80.7779 280.518 79.7988 281.987C79.7988 282.477 79.3092 282.477 79.3092 282.966C79.3092 283.456 78.8197 283.456 78.8197 283.456V283.945C78.3301 284.435 78.3301 284.435 77.8406 284.924C77.351 285.414 77.351 285.414 76.8614 285.904C76.3719 286.393 75.8823 286.393 75.8823 286.883C75.3927 286.883 75.3927 287.372 74.9032 287.372C74.4136 287.372 74.4136 287.372 73.924 287.372C73.924 287.372 73.4345 287.372 73.4345 286.883C73.4345 286.883 72.9449 286.393 72.9449 285.414C72.4554 284.435 72.4554 283.945 71.9658 283.456C71.9658 282.966 71.4762 281.987 71.4762 281.497C71.4762 281.008 70.9867 280.029 70.9867 279.539C70.4971 279.05 70.4971 278.56 69.518 278.071C69.0284 277.581 68.5388 277.581 67.5597 277.581C67.0702 277.581 67.0702 277.581 66.5806 278.071C66.5806 278.071 66.091 278.56 66.091 279.05C65.6015 280.029 64.6223 281.008 63.6432 282.477C62.6641 283.945 61.685 284.924 61.1954 285.904V286.393C60.7058 286.883 60.2163 287.372 60.2163 287.372C59.7267 287.862 59.7267 287.862 59.2372 288.351C58.258 288.841 57.7685 289.33 57.2789 289.33C56.7893 289.33 56.2998 289.82 56.2998 289.82C54.8311 289.82 53.3624 289.82 52.3833 288.841C51.4041 287.862 50.9146 286.393 50.425 284.435C50.9146 283.456 51.4041 281.987 51.8937 281.008C52.3833 280.029 52.3833 279.539 52.8728 279.05C53.3624 278.56 53.3624 278.071 53.3624 277.581C53.3624 277.091 53.3624 276.602 53.852 276.602C53.852 276.112 53.852 276.112 54.3415 275.623C54.3415 275.133 54.8311 274.644 54.8311 274.644C54.8311 274.154 55.3206 274.154 55.3206 273.664C55.3206 273.175 55.8102 272.685 55.8102 272.196C55.8102 271.706 55.8102 271.706 55.8102 271.217C55.8102 270.727 56.2998 270.238 56.2998 270.238C56.2998 269.748 56.7893 269.748 56.7893 269.258C56.7893 268.279 57.2789 267.79 57.2789 266.811C57.2789 266.321 57.2789 265.342 57.7685 264.852C57.7685 264.363 58.258 263.873 58.258 263.384C58.258 262.894 58.258 262.405 58.258 262.405V261.915V261.425C58.258 260.936 58.258 260.446 58.258 259.467C58.258 258.978 58.258 258.488 58.258 257.998C58.258 257.509 58.258 257.019 58.258 256.53C58.258 256.04 58.258 255.551 58.258 255.061C58.258 253.592 57.7685 253.103 57.2789 252.613C55.3206 250.165 54.3415 250.165 53.3624 250.165C52.8728 250.165 52.3833 250.655 51.4041 251.634C50.9146 252.613 49.9355 254.082 49.4459 255.551C48.9563 257.019 48.4668 257.998 47.9772 259.467C47.4876 260.936 47.4876 261.915 46.9981 262.894C46.9981 263.384 46.5085 264.363 46.5085 264.852C46.5085 265.342 46.0189 265.831 46.0189 266.321C45.5294 268.279 45.5294 270.238 45.0398 271.706C44.5503 273.175 44.5503 275.133 44.5503 276.602L45.0398 277.091C45.0398 277.581 45.0398 278.071 45.0398 279.05C45.0398 280.029 45.0398 281.008 45.0398 281.497V281.987V282.477L43.0816 284.435C42.592 284.924 42.592 284.924 42.592 285.414C42.592 285.904 42.1024 285.904 42.1024 286.393L41.6129 286.883H41.1233H40.6337L40.1442 286.393C40.1442 286.393 40.6337 285.904 40.6337 285.414C40.6337 284.924 41.1233 284.435 41.1233 283.945C41.1233 283.456 41.1233 282.966 41.1233 282.477C41.1233 281.987 41.1233 281.497 41.1233 281.008C40.6338 279.05 40.1442 278.071 39.6546 277.091C38.6755 276.112 37.6964 276.112 36.2277 276.112C36.2277 276.112 35.7381 276.112 35.2486 276.602C34.759 277.091 34.2694 277.091 33.2903 277.581V277.091C33.2903 276.602 33.7799 276.112 33.7799 275.623C33.7799 275.623 33.7799 275.133 33.2903 275.133C33.2903 275.133 32.8007 275.133 32.3112 275.133C31.8216 275.133 31.3321 275.133 31.3321 275.623C30.8425 275.623 30.8425 276.112 30.3529 276.602C30.3529 277.091 29.8634 277.091 29.8634 277.581C29.8634 278.071 29.3738 278.071 28.8842 278.56C28.8842 279.05 28.3947 279.05 28.3947 279.539C27.9051 280.029 27.9051 280.029 27.4155 280.518C26.926 281.008 26.926 281.008 26.4364 281.497C26.4364 281.987 25.9468 281.987 25.9468 282.477C25.9468 282.477 25.9469 282.477 25.4573 282.966C25.4573 282.477 25.4573 282.477 25.9468 281.987C26.4364 280.518 26.4364 278.56 25.9468 276.112C25.9468 274.644 25.4573 273.664 24.9677 272.685C24.4782 271.706 23.9886 270.727 23.499 269.748C23.0095 268.769 22.5199 268.279 21.5408 267.3C20.5617 266.321 20.0721 265.831 19.093 264.852L18.6034 264.363C18.6034 264.363 18.1138 264.363 18.1138 263.873C17.6243 263.384 16.6451 262.894 16.1556 262.894C15.666 262.404 15.666 262.405 15.1765 262.405C14.1973 261.915 13.2182 261.425 13.2182 260.936C12.7286 260.446 11.7495 259.957 9.79126 259.467C9.3017 259.467 8.81214 258.978 7.83301 258.978C7.34345 258.978 6.85389 258.488 5.87476 258.488H4.89563C4.89563 258.488 4.40607 257.998 3.91651 257.998C3.42695 257.998 2.44782 258.978 1.4687 260.446C0.489569 261.915 0 262.894 0 263.384C0 263.384 1.86024e-06 263.873 0.489565 263.873C0.979128 264.363 0.979134 264.852 1.95826 265.342C2.44782 265.831 2.93738 266.811 3.42695 266.811C3.91651 267.3 3.91651 267.79 4.40608 267.79L3.91651 277.581L4.40608 278.56C4.40608 279.05 4.40608 280.029 4.40608 280.518C4.40608 281.008 4.40608 281.497 4.40608 281.987C4.40608 282.966 4.40608 283.945 4.40608 284.924C4.40608 285.414 4.40608 285.904 4.40608 285.904C4.40608 287.372 4.40608 288.351 4.40608 289.33C4.40608 289.33 4.40607 289.82 4.89563 290.31C4.89563 290.799 4.89563 290.799 5.3852 291.289C5.3852 292.268 4.89564 292.757 4.40608 293.247C3.42695 293.737 2.93738 294.226 2.93738 294.716C2.93738 294.716 2.93738 295.205 3.42695 295.205C3.42695 295.205 3.91651 295.695 4.40608 295.695C4.89564 295.695 4.89563 295.695 5.3852 296.184C5.87476 296.184 5.87476 296.184 6.36433 296.674L6.85389 298.632C6.85389 299.611 6.85389 300.59 6.36433 301.08C6.36433 301.57 6.36433 302.549 6.36433 303.038C6.36433 304.507 6.85388 307.444 7.34345 307.934C7.83301 308.423 8.32258 308.913 8.81214 308.913C9.30171 308.913 9.3017 308.423 9.79126 308.423C10.2808 307.934 10.2808 307.444 10.7704 306.955C11.26 306.465 11.26 305.976 11.26 305.486C11.26 304.997 11.7495 302.549 11.7495 302.059C11.26 301.57 10.7704 301.08 10.7704 300.59C10.2808 300.101 10.2808 299.611 10.2808 299.611C10.2808 298.632 10.2808 297.653 10.2808 296.674C10.2808 295.205 10.2808 294.226 10.2808 294.226C10.2808 294.226 10.7704 294.226 11.26 293.737C11.26 293.737 11.7495 293.737 12.2391 293.247C12.7286 293.247 13.2182 292.757 13.7078 292.268C15.666 291.289 17.1347 290.31 19.093 289.33C20.0721 288.841 20.5616 288.351 21.0512 287.862C20.0721 289.33 22.5199 290.31 24.9677 288.351C25.4573 287.862 25.4573 287.862 25.4573 287.862H25.9468C25.9468 287.862 25.9468 287.862 25.9468 288.351C25.9468 288.351 25.9468 288.841 25.9468 289.82C25.9468 290.799 25.9468 291.289 25.9468 291.778C25.9468 292.757 26.926 293.737 27.9051 294.716C28.8842 295.695 30.3529 295.695 31.3321 295.695H31.8216C32.3112 295.695 32.3112 295.695 32.3112 295.695C32.8007 295.695 32.8007 295.695 33.2903 295.205C33.7799 295.205 34.2694 294.716 34.759 294.226C35.7381 293.737 36.2277 293.247 37.2068 292.268C37.6964 291.778 38.1859 290.799 38.6755 290.31C38.6755 290.799 39.1651 290.799 39.6546 291.289C40.1442 291.289 40.6338 291.778 41.1233 291.289C41.6129 291.289 42.1024 291.289 42.1024 290.799C42.592 290.799 43.0816 290.31 43.5711 289.82C44.0607 289.33 44.0607 289.33 44.5503 288.841C45.0398 288.351 45.0398 288.351 45.5294 287.862C46.0189 287.372 46.5085 286.883 46.5085 286.393C46.9981 285.904 46.9981 285.414 47.4876 285.414L47.9772 285.904C47.9772 285.904 47.9772 286.393 48.4668 286.393C48.9563 288.351 49.9354 289.33 50.425 290.31C51.4041 291.289 52.3833 291.289 53.3624 291.289C53.852 291.289 54.3415 291.289 54.8311 291.289C55.3206 291.289 55.8102 291.289 56.2998 291.289C56.7893 291.289 57.7685 290.799 58.258 290.799C58.7476 290.31 59.2371 289.82 60.2163 289.33C60.7058 288.841 61.1954 288.351 61.685 287.862C62.1745 287.372 62.6641 286.883 63.1537 286.393C63.6432 285.414 64.6223 284.924 65.1119 283.945C65.6015 283.456 66.091 282.966 66.5806 282.966C66.5806 282.966 67.0702 282.966 67.0702 283.456C67.0702 283.456 67.5597 283.945 68.0493 284.435C68.5388 284.924 68.5388 284.924 68.5388 284.924L69.0284 285.414C70.0075 287.372 70.9867 288.351 71.4762 288.841C71.9658 289.33 73.4345 289.33 75.3927 288.841C75.8823 288.841 76.3719 288.841 76.8614 288.351C77.351 287.862 77.8406 287.372 78.8197 286.883C79.3092 286.393 80.2884 285.414 80.7779 284.924C81.2675 284.435 81.7571 283.945 81.7571 283.456C81.7571 282.966 82.2466 282.966 82.2466 282.477C82.2466 282.477 82.2466 281.987 82.7362 281.987C83.7153 281.008 84.6944 279.539 85.6736 278.56C86.1631 278.071 86.6527 277.091 87.1422 276.602C87.6318 276.112 87.6318 275.623 88.1214 275.133H88.6109H89.1005C89.1005 275.623 88.6109 276.112 88.6109 276.602C88.6109 277.581 88.6109 278.071 88.6109 279.05C88.6109 279.539 88.6109 280.029 88.6109 280.518C88.6109 281.008 88.6109 281.008 88.6109 281.497V281.987C88.6109 282.477 88.6109 283.456 88.6109 283.945C88.6109 284.924 88.6109 285.904 89.1005 286.883C89.1005 287.862 89.5901 288.841 90.0796 289.33C90.5692 289.82 91.5483 289.82 92.0379 289.82C92.5274 289.82 93.017 289.82 93.5066 289.33C93.9961 288.841 94.4857 288.351 94.9753 287.862C95.4648 287.372 95.4648 286.883 95.9544 286.393C96.444 285.904 96.4439 285.414 96.9335 284.924C97.4231 284.435 97.4231 283.945 97.9126 283.945C98.4022 283.456 98.4022 283.456 98.4022 282.966C98.8918 282.477 99.3813 281.987 99.3813 281.987C99.8709 281.497 99.8709 281.497 100.36 281.008C100.36 280.518 100.85 280.518 100.85 280.029L101.34 279.539H101.829C101.829 279.539 102.319 280.029 102.319 280.518C102.808 281.008 102.808 281.497 103.298 281.987C103.787 282.477 103.787 282.477 103.787 282.966C104.277 283.456 104.767 283.456 105.256 283.945C105.746 283.945 106.725 283.945 107.214 283.945C107.704 283.945 108.193 283.945 108.683 283.456C109.173 283.456 109.662 282.966 109.662 282.966C110.641 282.966 111.131 282.477 112.11 281.497C113.089 281.008 114.068 279.539 115.047 278.56C115.537 278.071 115.537 277.581 115.537 277.581V277.091C116.026 276.112 116.516 275.623 116.516 275.133C117.006 274.644 117.006 274.154 117.495 273.664L117.985 274.154C117.985 274.644 117.985 274.644 117.985 275.133C117.985 275.623 117.985 276.112 117.985 276.602C117.985 278.071 117.495 279.05 117.495 280.029C117.495 281.008 117.495 281.987 117.495 282.966C117.495 283.945 117.985 284.435 118.474 284.924C118.964 285.414 119.453 285.414 120.433 285.414C120.922 285.414 121.412 284.924 121.901 284.435C122.391 283.945 122.391 283.456 122.88 282.966C122.88 282.477 123.37 282.477 123.37 281.987L123.859 281.497C124.349 281.008 124.349 280.518 124.839 280.029C125.328 279.539 125.328 279.05 125.818 278.56C126.307 277.581 126.797 277.091 127.286 276.112C127.286 276.112 128.266 276.602 129.734 277.581C131.203 278.56 132.672 279.05 133.161 279.05C133.651 279.05 134.14 278.56 135.119 278.56C135.609 278.071 136.099 277.581 136.588 277.091C137.078 276.602 137.567 276.112 138.057 275.623C138.546 275.133 139.036 274.644 139.526 274.154L140.015 273.664V273.175C140.505 272.685 140.505 272.685 140.994 272.196C140.994 271.706 141.484 271.706 141.484 271.706L141.973 271.217C142.463 270.727 142.463 270.238 142.952 269.748C143.442 269.258 143.932 268.769 143.932 268.279C140.505 269.748 140.505 269.748 140.994 269.748H141.484C141.484 269.748 141.484 269.748 141.484 270.238V270.727C141.484 270.727 141.484 271.217 141.484 271.706C141.484 272.196 141.484 272.196 141.484 272.196V272.685C140.994 274.644 140.994 276.112 140.994 277.581C140.994 279.05 140.505 280.029 140.505 281.008C140.505 281.497 140.994 281.987 140.994 282.477C140.994 282.966 141.484 283.456 142.463 282.966C142.952 282.966 143.442 282.966 143.442 282.477C143.932 282.477 143.932 281.987 144.421 281.987C144.421 281.497 144.911 281.497 144.911 281.008C144.911 280.518 145.4 280.518 145.4 280.029C146.379 279.05 146.869 277.581 147.848 277.091C148.338 276.112 148.827 275.623 149.317 275.133C149.317 274.644 149.806 274.644 149.806 274.154C150.296 273.664 150.785 273.175 151.765 272.196C152.254 271.706 152.744 271.217 152.744 271.217C153.233 270.727 153.233 270.727 153.723 270.727H154.212C154.702 271.217 155.192 271.706 155.681 272.196C156.171 272.685 156.66 272.685 156.66 273.175C157.15 273.664 157.639 274.154 157.639 274.644C158.129 275.133 158.129 275.133 158.618 275.623C159.108 276.112 159.598 276.112 160.087 276.602C160.577 276.602 161.066 276.602 161.556 276.602C162.045 276.602 162.535 276.602 162.535 276.112C163.025 276.112 163.514 275.623 163.514 275.133C164.004 274.644 164.004 274.644 164.493 274.154C164.983 273.664 164.983 273.664 165.472 273.175C165.962 272.196 166.941 271.217 167.431 270.727C167.92 270.237 168.41 269.748 168.41 269.748C168.41 269.748 168.899 269.748 168.899 270.238C168.899 270.238 169.389 270.727 169.878 271.217C169.878 271.706 170.368 271.706 170.368 271.706L170.858 272.196C171.837 274.154 172.816 275.133 173.305 275.623C173.795 276.112 175.264 276.112 177.222 275.623C177.711 275.623 177.711 275.133 178.691 275.133C179.18 274.644 179.67 274.154 180.649 273.664C181.138 273.175 182.117 272.196 182.607 271.706C183.097 271.217 183.586 270.727 183.586 270.238C184.076 269.748 184.076 269.258 184.076 269.258V268.769C184.565 268.279 185.055 267.3 185.055 266.811C185.544 266.321 185.544 265.831 186.034 265.342V265.831C186.034 266.321 186.034 266.321 186.034 266.811C186.034 267.3 186.034 267.79 186.034 268.279C186.034 269.748 185.544 270.727 185.544 271.706C185.544 272.685 185.544 273.664 185.544 274.644C185.544 275.623 186.034 276.112 186.524 276.602C187.013 277.091 187.503 277.091 188.482 277.091C188.971 277.091 189.461 276.602 189.951 276.112C190.44 275.623 190.44 275.133 190.93 274.644C190.93 274.154 191.419 274.154 191.419 273.664L191.909 273.175C192.398 272.685 192.398 272.196 192.888 271.706C193.377 271.217 193.377 270.727 193.867 270.238C194.357 269.258 194.846 268.769 195.336 267.79C195.336 267.79 196.315 268.279 197.784 269.258C199.252 270.238 200.721 270.727 201.21 270.727C201.7 270.727 202.19 270.238 202.679 270.238C203.169 269.748 203.658 269.258 204.148 268.769C204.637 268.279 205.127 267.79 205.617 267.3C206.106 266.811 206.596 266.321 207.085 265.831C206.596 266.811 210.023 261.915 209.043 261.425ZM18.6034 285.414C18.6034 285.904 18.1138 285.904 17.6243 286.393C17.1347 286.883 17.1347 286.883 16.6452 287.372C16.1556 287.372 16.1556 287.862 16.1556 287.862C15.666 288.351 15.1765 288.351 14.6869 288.841C14.1973 289.33 13.7078 289.33 13.2182 289.82C12.2391 290.31 11.7495 290.799 11.26 291.289C10.7704 291.778 10.2808 291.778 10.2808 291.778H9.79126V291.289C9.79126 290.31 9.79126 289.33 9.79126 287.862C9.79126 286.393 9.79127 284.435 10.2808 282.477L9.79126 281.008C9.79126 280.518 10.2808 278.56 10.7704 275.623C11.26 272.685 11.26 271.217 11.26 270.727C11.26 269.748 9.79127 267.79 6.85389 265.831V265.342C6.85389 265.342 6.85388 265.342 7.34345 265.342C7.83301 265.342 8.81214 265.831 9.30171 265.831C9.79127 265.831 10.2808 266.321 10.7704 266.321C11.26 266.321 11.26 266.811 11.26 266.811L11.7495 267.3C13.2182 268.279 14.6869 269.258 15.666 270.238C16.6452 271.217 17.1347 271.706 17.6243 272.196C17.6243 272.685 18.1138 272.685 18.1138 273.175L18.6034 273.664L19.093 274.154C19.093 274.154 19.093 274.154 19.093 274.644V275.133C19.5825 276.112 20.0721 276.602 20.0721 277.581C20.5617 278.56 20.5617 279.05 20.5617 280.029C20.5617 281.497 20.5617 282.477 20.5617 283.456C20.0721 284.435 19.5825 285.414 19.093 285.904C19.093 284.924 18.6034 284.924 18.6034 285.414ZM37.2068 285.904C37.2068 286.393 37.2068 286.883 37.2068 286.883C37.2068 287.372 37.2068 287.372 36.7172 287.372C36.7172 287.862 36.2277 288.351 35.7381 288.841C35.2485 289.82 34.759 290.799 33.7799 291.289C32.8007 291.778 32.3112 292.268 31.3321 292.268C30.8425 292.268 30.3529 292.268 29.8634 291.778C29.3738 291.289 29.3738 291.289 29.3738 290.31C29.3738 289.82 29.3738 289.82 29.3738 289.33C29.3738 288.841 29.3738 288.351 29.8634 287.862C29.8634 286.883 30.3529 286.393 30.3529 285.904C30.3529 285.414 30.8425 285.414 30.8425 285.414C31.332 285.414 31.332 285.414 31.8216 284.924L32.3112 284.435C32.8007 283.945 32.8007 283.456 33.2903 282.966C33.2903 282.477 33.7799 282.477 33.7799 281.987L34.2694 281.497C34.759 281.497 35.2485 281.497 35.7381 281.497C36.2277 281.497 36.2277 281.497 36.2277 281.497L36.7172 281.987C37.2068 282.477 37.2068 282.966 37.6964 283.456L37.2068 285.904ZM48.4668 275.623C48.4668 275.133 48.4668 274.644 48.4668 274.154C48.4668 273.175 48.9563 272.685 48.9563 271.217C48.9563 270.238 49.4459 269.748 49.4459 268.769C49.4459 268.279 49.9354 267.79 49.9354 267.3C49.9354 266.811 49.9354 266.811 49.9354 266.321C49.9354 265.342 49.9354 264.363 50.425 263.384C50.9146 262.404 51.4041 260.936 52.3833 259.957C52.3833 260.446 52.3833 260.936 52.3833 260.936C52.3833 261.425 52.3833 261.915 52.3833 262.405C52.3833 262.894 52.3833 264.363 51.8937 266.321C51.4041 268.279 50.9146 269.748 50.9146 270.238C50.425 270.727 50.425 271.706 49.9354 272.196C49.4459 272.685 49.4459 273.175 49.4459 273.664C49.4459 274.644 48.9563 275.133 48.9563 275.133C49.4459 275.623 48.9563 276.112 48.4668 275.623ZM100.85 272.685C100.85 273.175 100.85 273.175 100.85 272.685C100.36 273.175 99.8709 273.175 99.8709 273.175C99.8709 273.175 99.8709 273.175 99.8709 272.685C99.8709 272.196 99.8709 271.217 100.85 269.748C101.34 268.279 101.829 267.79 102.319 267.79H102.808C102.808 267.79 102.808 267.79 102.808 268.279C102.808 268.769 102.808 268.769 102.808 269.258C102.808 269.748 102.808 269.748 102.319 270.238C102.319 270.727 101.829 270.727 101.829 271.217C101.829 271.706 101.34 271.706 101.34 272.196C101.34 272.196 101.34 272.685 100.85 272.685Z" fill="white"/>
<path fill-rule="evenodd" clip-rule="evenodd" d="M192.893 26.926C193.872 24.4782 194.362 22.0303 194.362 19.5825C194.362 8.81214 185.549 0 174.779 0C164.009 0 155.197 8.81214 155.197 19.5825C155.197 20.0721 155.197 20.0721 155.197 20.5616H37.7014C17.1398 20.5616 0.494629 37.2068 0.494629 57.7684V191.419C0.494629 211.981 17.1398 228.626 37.7014 228.626H171.842C192.403 228.626 209.049 211.981 209.049 191.419V57.7684C209.049 45.0398 202.684 33.7799 192.893 26.926ZM186.039 83.2257V124.839V166.451V208.064H163.519V186.034L162.05 189.95L160.092 193.377L158.134 197.294L155.686 200.721L154.707 202.19L153.238 203.658L150.301 205.617L148.832 206.596L147.364 207.085L145.895 207.575H144.426H121.417L116.032 170.858L127.781 171.347H131.208H134.635L138.062 170.858L139.531 170.368L140.999 169.389L141.489 168.41L141.978 167.431L142.468 166.451L142.958 165.472V164.493V163.024V160.087L142.468 157.15L141.489 154.212L140.51 151.275V147.848L127.291 121.412L137.572 101.34L139.041 97.9126L140.02 94.9752L140.999 92.5274L141.489 90.0796V88.1214V86.1631L140.999 84.6944L140.51 83.2257L140.02 82.2466L139.041 81.2675L138.062 80.7779L136.593 80.2884L135.124 79.7988L133.656 79.3092H131.698H129.739H120.927L121.417 85.184V91.5483V97.9126L120.438 103.298L119.948 109.173L118.969 115.047L117.99 120.433L117.5 122.88L117.011 125.328L116.032 127.776L115.052 130.224L112.605 135.609L111.136 138.546L109.667 141.484L106.24 147.358L104.282 150.296L102.324 153.233L98.4073 159.108L93.5116 166.941L91.5534 169.878L89.1056 172.816V207.575H70.5022V187.992L66.5857 207.575H23.9937V165.962V124.349V82.7362V41.1233H46.5136V105.746V170.368H70.9917V127.776V85.184H89.5951V128.755L91.5534 125.818L94.0012 121.901L95.9594 117.495L97.9177 113.089L99.876 108.193L101.345 103.298L101.834 100.85L102.324 98.4022L102.813 95.9544V93.9961V89.1005L102.324 85.6735L101.834 84.2048L100.366 83.7153L99.876 82.7362L98.8968 82.2466L96.9386 81.757H94.9803H89.5951H65.6065L70.9917 42.1024H94.9803H97.4281L99.876 42.592L101.834 43.0815L103.792 44.0607L105.751 45.0398L107.709 46.0189L109.178 47.4876L110.646 48.9563L112.115 50.425L113.584 52.3832L115.542 56.2998L116.521 58.7476L117.5 61.1954L118.479 63.6432L118.969 66.091L122.396 41.6129H141.489H143.937L145.895 42.1024L147.853 42.592L149.811 43.5711L151.77 45.0398L153.238 46.5085L154.707 48.4667L156.176 50.425L157.644 52.3832L158.624 54.8311L159.603 57.2789L160.582 60.2163L161.071 63.1536L161.561 66.091L162.05 69.0284V72.4553V79.7988L161.561 86.1631L160.092 92.5274L159.603 95.4648L158.624 98.4022L157.644 103.298L156.176 108.683L152.259 119.943L154.707 125.818L157.644 133.161L160.582 141.973L162.05 146.869L163.519 151.765V96.9335V41.6129H186.039V83.2257ZM174.779 36.2277C165.477 36.2277 158.134 28.8842 158.134 19.5825C158.134 10.2808 165.477 2.93737 174.779 2.93737C184.081 2.93737 191.424 10.2808 191.424 19.5825C191.424 28.3947 184.081 36.2277 174.779 36.2277Z" fill="white"/>
<path d="M340.244 90.0797C345.14 90.0797 348.567 91.5483 351.504 93.9962C354.442 96.444 355.91 100.36 355.91 104.277C355.91 108.683 354.442 112.11 351.504 115.047C348.567 117.495 344.65 118.964 339.755 118.964H329.963V131.693H319.683V89.5901H340.244V90.0797ZM338.776 110.641C340.734 110.641 342.203 110.152 343.671 109.173C344.65 108.193 345.629 106.725 345.629 104.767C345.629 103.298 345.14 101.829 343.671 100.361C342.692 99.3814 340.734 98.8918 338.776 98.8918H329.474V110.641H338.776Z" fill="white"/>
<path d="M395.565 95.4666C399.972 99.8727 401.93 104.768 401.93 111.133C401.93 117.007 399.972 122.393 395.565 126.799C391.159 131.205 385.774 133.163 379.899 133.163C373.535 133.163 368.15 131.205 364.233 126.799C359.827 122.393 357.869 117.497 357.869 111.133C357.869 104.768 359.827 99.8727 364.233 95.4666C368.64 91.0606 374.025 89.1023 379.899 89.1023C385.774 89.1023 391.159 91.0606 395.565 95.4666ZM388.222 119.945C390.67 117.497 391.649 114.56 391.649 111.133C391.649 107.706 390.67 104.768 388.222 102.321C385.774 99.8727 382.837 98.8936 379.41 98.8936C375.983 98.8936 373.046 99.8727 370.598 102.321C368.15 104.768 367.171 107.706 367.171 111.133C367.171 114.56 368.15 117.497 370.598 119.945C373.046 122.393 375.983 123.372 379.41 123.372C382.837 123.372 385.774 122.393 388.222 119.945Z" fill="white"/>
<path d="M436.2 131.692H405.358V90.0796H415.639V122.88H436.2V131.692Z" fill="white"/>
<path d="M449.906 90.0796H439.625V132.182H449.906V90.0796Z" fill="white"/>
<path d="M476.344 98.8917V131.692H466.063V98.8917H452.355V90.0796H489.562V98.8917H476.344Z" fill="white"/>
<path d="M524.809 131.692H492.008V90.0796H524.809V98.8917H502.779V106.725H522.851V115.047H502.779V122.88H524.809V131.692Z" fill="white"/>
<path d="M555.165 131.692L541.457 116.026H539.009V131.692H528.729V90.0796H539.009V106.725H540.478L555.165 90.0796H567.404L549.78 111.131L568.873 131.692H555.165Z" fill="white"/>
<path d="M609.993 131.692H601.181L580.129 107.704V131.692H569.849V90.0796H578.171L599.712 115.047V90.0796H609.993V131.692Z" fill="white"/>
<path d="M624.681 90.0796H614.4V132.182H624.681V90.0796Z" fill="white"/>
<path d="M656.016 131.692L642.308 116.026H639.86V131.692H629.579V90.0796H639.86V106.725H641.329L656.016 90.0796H668.255L650.63 111.131L669.723 131.692H656.016Z" fill="white"/>
<path d="M713.289 131.692H682.447V90.0796H692.728V122.88H713.289V131.692Z" fill="white"/>
<path d="M737.279 90.0797C742.175 90.0797 745.602 91.5483 748.539 93.9962C751.477 96.444 752.945 100.36 752.945 104.277C752.945 108.683 751.477 112.11 748.539 115.047C745.602 117.495 741.686 118.964 736.79 118.964H726.999V131.693H716.718V89.5901H737.279V90.0797ZM736.3 110.641C738.259 110.641 739.727 110.152 741.196 109.173C742.175 108.193 743.154 106.725 743.154 104.767C743.154 103.298 742.665 101.829 741.196 100.361C740.217 99.3814 738.259 98.8918 736.3 98.8918H726.999V110.641H736.3Z" fill="white"/>
<path d="M786.236 119.454C786.236 123.37 784.768 126.797 781.83 129.245C778.893 131.693 774.976 133.161 770.57 133.161C766.164 133.161 762.248 132.182 759.31 129.734C756.373 127.287 754.415 124.349 753.925 119.943L763.717 117.985C764.206 119.943 764.696 121.901 765.675 122.881C766.654 123.86 768.123 124.349 770.081 124.349C772.039 124.349 773.508 123.86 774.487 122.881C775.466 121.901 775.956 120.922 775.956 119.454C775.956 117.985 775.466 117.006 774.487 116.027C773.508 115.048 772.039 114.558 770.081 114.558H765.185V106.725H769.591C771.55 106.725 772.529 106.235 773.508 105.256C774.487 104.277 774.977 103.298 774.977 101.829C774.977 100.361 774.487 99.3815 773.508 98.4024C772.529 97.4233 771.06 96.9337 769.591 96.9337C767.633 96.9337 766.164 97.4233 765.185 98.4024C764.206 99.3815 763.227 101.34 763.227 103.298L753.925 101.34C754.415 97.4233 755.884 93.9963 758.821 91.5485C761.758 89.1007 765.185 88.1216 769.591 88.1216C773.997 88.1216 777.914 89.5902 780.362 92.0381C783.299 94.4859 784.768 97.9128 784.768 101.34C784.768 105.256 783.299 108.194 780.362 109.662C784.278 112.6 786.236 115.537 786.236 119.454Z" fill="white"/>
<path d="M799.943 90.0796H789.663V132.182H799.943V90.0796Z" fill="white"/>
<path d="M345.14 184.564L331.922 168.898H329.474V184.564H319.683V143.441H329.474V159.597H330.943L345.14 143.441H357.379L339.755 164.003L358.358 184.564H345.14Z" fill="white"/>
<path d="M389.691 184.564L386.754 177.221H369.619L366.682 184.564H355.912L373.046 143.441H383.327L400.462 184.564H389.691ZM377.942 154.701L372.557 168.409H382.838L377.942 154.701Z" fill="white"/>
<path d="M448.926 184.564H439.135V164.003L428.364 184.564H422L411.23 164.003V184.564H401.438V143.441H411.23L425.427 168.898L439.135 143.441H448.926V184.564Z" fill="white"/>
<path d="M473.897 143.441C478.303 143.441 482.22 144.91 484.668 147.358C487.605 149.805 488.584 153.232 488.584 157.639C488.584 162.045 487.116 165.472 484.178 167.919C481.241 170.367 477.814 171.836 472.918 171.836H463.127V184.564H452.846V143.441H473.897ZM472.429 163.513C474.387 163.513 475.856 163.024 476.835 162.045C477.814 161.065 478.303 159.597 478.303 157.639C478.303 156.17 477.814 154.701 476.345 153.722C475.366 152.743 473.897 152.253 471.939 152.253H463.617V163.513H472.429Z" fill="white"/>
<path d="M528.238 165.961C528.238 171.836 526.769 176.731 523.342 180.158C519.915 183.585 515.509 185.544 510.124 185.544C504.739 185.544 499.843 183.585 496.416 180.158C492.989 176.731 491.521 171.836 491.521 165.961V143.441H501.801V165.961C501.801 168.898 502.78 171.346 504.249 173.305C505.718 175.263 507.676 176.242 510.614 176.242C513.061 176.242 515.02 175.263 516.488 173.305C517.957 171.346 518.936 168.898 518.936 165.961V143.441H529.217V165.961H528.238Z" fill="white"/>
<path d="M560.06 145.89C562.997 147.848 564.955 150.786 565.934 154.702L556.143 156.66C555.654 154.702 554.675 153.233 553.695 152.254C552.227 151.275 550.758 150.786 549.289 150.786C547.821 150.786 546.352 151.275 545.373 151.765C544.394 152.744 543.904 153.723 543.904 154.702C543.904 156.66 544.883 157.639 547.331 158.129L555.654 160.087C562.997 161.556 566.914 165.962 566.914 171.837C566.914 176.243 565.445 179.18 562.018 181.628C558.591 184.076 554.675 185.055 549.779 185.055C544.883 185.055 540.967 184.076 537.54 181.628C534.113 179.67 532.155 176.243 531.665 172.326L541.946 170.368C542.925 174.285 545.862 176.243 550.268 176.243C552.227 176.243 553.695 175.753 554.675 175.264C555.654 174.285 556.143 173.305 556.143 172.326C556.143 171.347 555.654 170.368 555.164 169.878C554.675 169.389 553.695 168.899 552.227 168.41L543.415 166.452C536.071 164.983 532.155 160.577 532.155 154.702C532.155 150.786 533.623 147.359 536.561 145.4C539.498 142.952 543.415 141.973 548.31 141.973C553.695 142.463 557.122 143.442 560.06 145.89Z" fill="white"/>
<path d="M602.651 152.253V184.564H592.86V152.253H579.642V143.441H615.869V152.253H602.651Z" fill="white"/>
<path d="M644.264 184.564L641.327 177.221H624.192L621.255 184.564H610.484L627.619 143.441H637.9L655.035 184.564H644.264ZM633.004 154.701L627.619 168.409H637.9L633.004 154.701Z" fill="white"/>
<path d="M682.451 145.89C685.389 147.848 687.347 150.786 688.326 154.702L678.535 156.66C678.045 154.702 677.066 153.233 676.087 152.254C674.618 151.275 673.15 150.786 671.681 150.786C670.212 150.786 668.744 151.275 667.764 151.765C666.785 152.744 666.296 153.723 666.296 154.702C666.296 156.66 667.275 157.639 669.723 158.129L678.045 160.087C685.389 161.556 689.305 165.962 689.305 171.837C689.305 176.243 687.837 179.18 684.41 181.628C680.983 184.076 677.066 185.055 672.171 185.055C667.275 185.055 663.358 184.076 659.931 181.628C656.505 179.67 654.546 176.243 654.057 172.326L664.337 170.368C665.317 174.285 668.254 176.243 672.66 176.243C674.618 176.243 676.087 175.753 677.066 175.264C678.045 174.285 678.535 173.305 678.535 172.326C678.535 171.347 678.045 170.368 677.556 169.878C677.066 169.389 676.087 168.899 674.618 168.41L665.806 166.452C658.463 164.983 654.546 160.577 654.546 154.702C654.546 150.786 656.015 147.359 658.952 145.4C661.89 142.952 665.806 141.973 670.702 141.973C676.087 142.463 679.514 143.442 682.451 145.89Z" fill="white"/>
<path d="M702.521 143.441H692.24V184.564H702.521V143.441Z" fill="white"/>
<path d="M732.875 184.564L719.167 168.898H717.209V184.564H706.928V143.441H717.209V159.597H718.677L732.875 143.441H744.624L727.489 164.003L746.093 184.564H732.875Z" fill="white"/>
<path d="M794.07 184.564H784.279V164.003L773.998 184.564H767.634L756.864 164.003V184.564H747.072V143.441H756.864L770.571 168.898L784.279 143.441H794.07V184.564Z" fill="white"/>
<path d="M829.32 184.564L826.383 177.221H809.248L806.31 184.564H795.54L812.675 143.441H822.956L840.09 184.564H829.32ZM817.57 154.701L812.185 168.409H822.466L817.57 154.701Z" fill="white"/>
<path d="M871.42 184.564H841.067V143.441H851.348V175.752H871.42V184.564Z" fill="white"/>
<path d="M904.711 184.564L901.773 177.221H884.638L881.701 184.564H870.931L888.065 143.441H898.346L915.481 184.564H904.711ZM893.451 154.701L888.065 168.409H898.346L893.451 154.701Z" fill="white"/>
<path d="M933.106 184.564H922.825V171.836L907.159 143.441H917.93L928.21 161.555L938.002 143.441H949.262L933.106 171.836V184.564Z" fill="white"/>
<path d="M974.228 184.564L971.29 177.221H954.156L951.218 184.564H940.448L957.582 143.441H967.863L984.998 184.564H974.228ZM962.968 154.701L957.582 168.409H967.863L962.968 154.701Z" fill="white"/>
<path d="M265.342 6.85364H263.383V280.03H265.342V6.85364Z" fill="white"/>
</svg>
