<svg width="500" height="743" viewBox="0 0 500 743" fill="none" xmlns="http://www.w3.org/2000/svg">
<path d="M499.346 626.37C496.73 625.063 491.987 630.949 490.024 633.076C489.37 633.73 488.717 634.221 488.225 635.039C487.734 635.692 487.081 636.346 486.59 636.837C485.773 637.655 485.282 638.145 484.628 638.636C483.973 638.963 483.484 639.289 482.993 639.289C481.521 639.618 479.558 638.473 476.778 636.184C474.161 633.894 472.852 631.931 472.525 630.786C472.363 628.986 473.834 624.898 477.269 618.521C480.703 612.306 482.175 607.235 481.684 603.31C481.521 601.838 481.03 600.694 480.539 600.04C479.885 599.386 479.067 599.059 477.922 599.222C477.431 599.222 476.778 600.04 475.96 601.511C475.306 602.983 474.161 604.946 473.181 607.891C471.218 613.124 469.582 617.212 468.273 619.992C467.128 622.609 466.312 624.08 465.821 624.407C462.876 625.552 460.913 626.861 459.933 628.333C459.115 629.804 458.624 632.094 458.624 635.366V637.491C457.97 639.78 457.316 641.907 456.498 643.87C455.845 645.831 455.027 647.467 454.209 649.103C454.044 649.757 453.882 650.084 453.555 650.41C453.228 650.739 452.737 651.066 452.246 651.066C451.919 651.066 451.919 651.066 451.755 651.066C451.592 650.902 451.592 650.739 451.428 650.41C451.428 649.921 451.428 648.939 451.592 647.305C451.755 645.831 452.082 643.542 452.41 640.925C452.9 637.982 453.391 635.201 453.718 632.258C454.044 629.315 454.536 626.534 455.027 623.589C455.518 619.992 456.007 616.72 456.825 613.941C457.48 610.997 458.134 608.707 458.788 606.746C462.06 597.75 464.349 590.39 465.657 584.175C466.966 577.962 467.455 573.383 466.966 570.111C466.474 567.168 465.821 565.041 464.512 563.569C463.367 562.098 461.731 561.606 459.768 561.935C459.442 561.935 458.952 562.098 458.788 562.424C458.461 562.751 458.134 563.08 457.97 563.569C457.152 565.532 456.498 567.495 455.845 569.62C455.189 571.747 454.7 574.036 454.373 576.326C454.373 577.144 454.044 577.798 453.882 578.451C453.555 579.107 453.391 579.596 453.227 579.925C452.9 580.741 452.41 582.541 451.755 584.993C451.101 587.447 450.283 590.555 449.465 594.48C448.485 598.568 447.831 602.002 447.34 604.455C446.686 607.073 446.359 608.871 446.195 610.016C445.377 611.325 444.559 613.124 443.579 615.413C442.761 617.703 441.78 620.483 440.798 623.753C439.98 626.043 439.326 628.17 438.508 630.131C437.526 631.931 436.546 633.565 435.237 634.874C434.583 635.692 434.092 636.51 433.602 637C433.111 637.655 432.785 638.145 432.62 638.8C432.458 639.454 432.293 639.945 432.131 640.272C431.967 640.434 430.168 642.561 429.513 643.215C428.859 644.033 428.205 644.851 427.552 645.504C426.57 646.487 425.752 647.14 424.935 647.631C424.117 648.121 423.135 648.285 422.317 648.449C421.664 648.449 421.01 648.449 420.356 648.285C419.865 648.121 419.374 647.958 419.211 647.305C418.883 646.976 418.393 645.996 417.575 644.033C416.758 642.07 416.266 640.763 415.613 639.78C415.286 638.145 414.795 636.673 414.304 635.201C413.814 633.565 413.323 632.258 412.669 630.622C412.014 628.986 411.034 627.842 409.725 627.188C408.417 626.534 406.944 626.207 405.145 626.534C404.492 626.697 403.838 626.861 403.347 627.352C402.693 627.842 402.202 628.333 401.875 629.315C400.893 631.44 398.768 634.057 395.825 637.328C392.88 640.763 390.917 643.379 389.772 645.504L389.609 646.322C389.609 646.322 388.627 647.794 387.974 648.121C387.483 648.449 386.993 648.612 386.338 648.776C385.52 648.939 384.703 648.612 383.886 647.958C383.068 647.305 382.414 646.322 381.596 644.851C380.451 642.234 379.142 639.618 377.671 636.837C376.526 635.366 375.381 634.383 374.236 633.73C372.927 633.076 371.455 632.912 369.984 633.239C369.166 633.239 368.348 633.565 367.367 634.221C366.385 634.874 365.242 635.528 363.933 636.346C362.951 637.328 361.97 638.145 361.152 638.963C360.334 639.78 359.681 640.598 359.027 641.252C358.7 641.907 358.372 642.397 358.209 642.725C358.045 643.215 357.718 643.706 357.554 643.87C356.737 644.687 356.082 645.504 355.428 646.487C354.775 647.305 354.448 648.285 354.121 649.103C353.139 650.248 352.321 651.228 351.503 652.211C350.849 653.191 350.358 654.009 350.031 654.827C349.869 655.154 349.54 655.481 349.378 655.808C349.213 656.134 349.051 656.299 348.724 656.463C348.396 656.134 348.069 655.808 348.069 655.481C348.069 655.154 348.069 654.827 348.069 654.336C348.069 653.845 348.233 653.191 348.397 652.537C348.724 651.719 348.887 650.739 349.213 649.594C350.358 644.033 351.014 639.78 351.34 636.346C351.831 633.076 351.831 630.786 351.667 629.642C351.34 627.515 350.687 626.043 349.705 624.898C348.724 623.918 347.252 623.589 345.616 623.918C343.818 624.08 342.182 624.734 340.71 625.716C339.237 626.697 337.93 628.17 336.785 629.968C335.476 632.094 334.169 633.73 333.186 635.366C332.206 636.673 331.388 637.982 330.734 638.963C329.261 641.252 327.954 643.215 326.809 644.851C325.664 646.487 324.846 647.958 324.028 648.939C323.21 650.084 322.392 651.066 321.739 651.884C321.085 652.7 320.431 653.355 320.103 653.845C319.776 654.5 319.449 655.154 319.122 655.481C318.795 655.972 318.631 656.299 318.468 656.79V656.952C317.813 657.443 317.324 658.097 316.833 658.752C316.341 659.406 315.688 660.06 315.197 660.551C314.379 661.369 313.725 662.023 313.234 662.349C312.744 662.676 312.089 663.003 311.6 663.003C310.126 663.332 308.165 662.187 305.549 659.897C302.931 657.608 301.459 655.808 301.297 654.5C300.968 652.7 302.604 648.612 306.038 642.234C309.473 635.855 310.944 630.786 310.455 627.024C310.291 625.552 309.8 624.407 309.308 623.753C308.655 623.1 307.837 622.773 306.692 622.936C306.203 623.1 305.549 623.753 304.731 625.225C303.913 626.697 302.931 628.824 301.786 631.604C299.823 637 298.189 640.925 297.044 643.706C295.735 646.487 294.917 647.958 294.59 648.121C291.647 649.266 289.684 650.575 288.702 652.046C287.722 653.518 287.395 655.808 287.395 659.079V661.205C286.741 663.494 286.086 665.621 285.268 667.584C284.614 669.545 283.796 671.181 282.978 672.817C282.816 673.308 282.652 673.962 282.325 674.288C281.998 674.615 281.671 674.779 281.18 674.942C281.016 674.942 280.689 674.942 280.689 674.779C280.526 674.615 280.362 674.453 280.362 674.124C280.362 673.635 280.362 672.652 280.526 671.018C280.689 669.545 281.016 667.42 281.507 664.803C281.998 662.023 282.325 659.079 282.816 656.134C283.143 653.355 283.634 650.41 284.123 647.631C284.778 644.033 285.268 640.763 285.923 637.818C286.577 635.039 287.231 632.585 287.886 630.622C291.156 621.791 293.281 614.268 294.755 608.218C295.899 602.003 296.389 597.259 295.899 593.989C295.571 591.046 294.755 588.919 293.61 587.61C292.465 586.138 290.829 585.649 288.867 585.975C288.54 585.975 288.213 586.138 287.722 586.629C287.395 586.956 287.231 587.283 286.904 587.774C286.25 589.572 285.595 591.699 284.778 593.662C284.123 595.788 283.634 598.077 283.307 600.531C283.307 601.349 282.978 602.003 282.816 602.656C282.489 603.147 282.325 603.638 282.162 603.965C281.834 604.946 281.344 606.582 280.689 609.198C280.035 611.652 279.217 614.922 278.399 618.847C277.419 622.936 276.601 626.207 276.11 628.824C275.62 631.44 275.292 633.403 275.129 634.383C274.311 635.692 273.493 637.491 272.513 639.78C271.695 642.07 270.713 644.851 269.732 648.121C268.914 650.41 268.096 652.537 267.278 654.5C266.46 656.299 265.317 657.934 264.172 659.242C263.517 660.06 263.027 660.714 262.536 661.369C262.045 662.023 261.718 662.676 261.554 663.167C261.392 663.821 261.227 664.312 261.065 664.639C260.901 664.966 260.738 665.13 260.574 665.294C260.247 665.784 259.756 666.275 259.102 666.602C258.611 666.929 258.284 667.255 257.957 667.42C256.812 668.4 255.503 669.056 254.032 669.873C252.56 670.527 250.762 671.181 248.962 671.508C247.817 671.345 246.672 671.345 245.854 671.181C244.874 671.018 244.22 670.69 243.729 670.527C243.075 670.2 242.42 669.709 241.93 669.056C241.439 668.238 241.112 667.42 240.948 666.439C240.785 665.784 240.948 665.294 241.112 664.639C241.275 664.149 241.603 663.658 241.766 663.167C245.365 658.588 248.144 654.663 250.106 651.228C252.069 647.794 253.214 644.851 253.541 642.397L253.868 639.945C254.032 638.636 254.196 637.818 254.196 637.328C254.196 636.673 254.359 636.51 254.523 637C254.194 635.855 253.868 634.71 253.541 633.894C253.214 632.749 252.56 631.767 252.233 631.113C251.742 630.295 251.251 629.804 250.924 629.477C250.433 628.986 249.615 628.659 248.799 628.497C247.981 628.333 246.999 628.333 245.854 628.497C245.038 628.659 244.22 628.824 243.564 629.151C242.747 629.477 242.093 629.804 241.602 629.968C240.948 630.622 240.457 631.113 239.803 631.44C239.312 631.931 238.658 632.421 238.332 632.912C237.351 634.383 236.369 636.019 235.388 637.491C234.406 638.963 233.426 640.434 232.608 641.743C231.627 643.869 230.972 645.831 230.318 647.631C229.827 649.266 229.336 650.739 229.173 651.884C228.846 653.028 228.682 654.173 228.52 654.99C228.355 655.972 228.193 656.79 228.193 657.608C228.193 658.588 228.193 659.569 228.193 660.551V663.658C226.884 664.966 225.902 666.275 225.085 667.42C224.267 668.564 223.612 669.873 223.123 670.854C220.178 674.124 218.052 676.415 216.416 678.214C214.782 679.85 213.8 680.83 213.473 680.83C212.982 680.994 212.655 680.83 212.328 680.339C212.002 680.012 211.837 679.359 211.675 678.705C211.51 677.723 211.51 675.924 211.51 673.47C211.51 670.854 211.675 667.42 211.837 663.167C212.493 657.77 212.982 653.029 213.473 649.266C213.964 645.342 214.454 642.07 214.945 639.454C215.109 638.473 215.109 637.655 215.109 636.837C215.272 636.184 215.272 635.366 215.272 634.874L220.178 633.239C220.833 633.076 220.996 632.094 221.16 630.622C221.16 628.986 220.996 626.697 220.506 623.753C220.342 622.936 220.342 622.444 220.178 621.955C220.015 621.464 219.688 621.3 219.36 621.137C219.033 620.81 218.706 620.646 218.543 620.483C218.379 620.319 218.217 620.155 218.052 619.992C218.052 619.01 218.217 617.538 218.706 615.576C219.197 613.777 219.197 612.141 219.197 610.997C218.87 609.525 218.379 608.544 217.725 607.891C217.07 607.235 216.09 606.909 214.945 607.235C212.819 607.562 211.019 610.18 209.712 615.086C208.567 619.992 206.931 622.609 205.295 622.936L202.843 622.609C202.025 622.773 201.372 623.1 200.88 623.262C200.227 623.427 199.571 623.589 199.082 623.918C198.591 623.753 197.773 623.753 196.792 623.753C195.81 623.753 194.665 623.918 193.358 624.08C192.703 624.245 192.049 624.571 191.231 624.898C190.251 624.898 189.268 624.734 187.961 624.898C186.816 624.898 185.507 625.063 184.036 625.225C182.727 625.389 181.746 626.37 181.255 628.17C180.765 629.804 180.765 632.258 181.255 635.528C181.255 635.855 181.582 636.346 181.909 636.51C182.237 636.837 182.727 637 183.38 637.164C183.709 637.328 184.198 637.328 184.689 637.491C185.18 637.491 185.671 637.818 186.161 637.982C186.489 637.982 187.306 637.818 188.124 637.818C189.106 637.655 189.759 637.655 190.086 637.655L199.409 636.51C199.736 636.51 200.227 636.346 200.88 636.019C201.534 635.692 202.025 635.692 202.352 635.528C202.679 635.366 203.006 635.528 203.17 635.692C203.333 635.855 203.497 636.019 203.497 636.346C203.006 637.655 202.679 638.8 202.352 639.78C202.025 640.763 201.698 641.416 201.37 642.07C198.918 648.449 196.301 654.009 193.685 658.915C190.904 663.821 188.124 668.073 185.016 671.999C184.525 672.817 184.036 673.635 183.709 674.288C183.382 674.942 183.053 675.433 182.727 675.924L182.564 676.578C181.909 677.232 181.092 678.05 180.437 678.868C179.783 679.685 178.965 680.339 178.474 681.157C177.656 681.975 176.676 682.793 175.858 683.12C175.04 683.611 174.059 683.774 173.241 683.938C172.588 684.1 171.932 683.938 171.279 683.938C170.788 683.774 170.298 683.447 170.134 682.956C169.807 682.793 169.316 681.648 168.498 679.685C167.682 677.723 167.191 676.414 166.699 675.433C166.373 673.962 165.719 672.326 165.228 670.854C164.737 669.382 164.083 667.911 163.592 666.439C162.938 664.803 161.958 663.494 160.649 662.841C159.34 662.187 157.868 662.023 156.069 662.187C155.415 662.187 154.925 662.514 154.271 662.841C153.616 663.332 153.126 663.985 152.798 664.803C151.817 666.766 149.855 669.545 146.747 672.817C143.804 676.251 141.841 678.868 140.696 680.83V681.648L140.369 682.139C139.388 683.284 138.57 684.265 137.753 684.918C136.935 685.736 136.281 686.39 135.79 686.881C133.664 687.863 132.192 688.68 130.884 689.171C129.576 689.824 128.921 689.989 128.758 689.989C124.996 690.48 122.052 689.662 119.763 687.535C117.473 685.409 116.001 681.811 115.347 677.069C116.655 674.453 117.8 671.672 118.945 668.729C119.763 666.929 120.58 665.294 121.398 663.985C122.216 662.514 122.707 661.531 123.197 660.551C123.524 659.406 123.852 658.588 124.015 657.77C124.179 656.952 124.506 656.299 124.669 655.808C125.16 654.663 125.65 653.682 126.141 652.864C126.468 652.046 126.959 651.393 127.122 650.739C127.613 649.594 127.94 648.449 128.104 647.631C128.267 646.813 128.43 645.996 128.594 645.342C128.921 644.36 129.412 643.542 129.739 642.725C130.066 641.907 130.393 641.252 130.72 640.763C131.211 638.8 131.538 636.837 131.865 635.039C132.028 633.403 132.356 631.931 132.519 630.622C133.01 629.151 133.337 628.006 133.5 626.861C133.664 625.716 133.991 624.898 133.991 624.245L133.828 623.262C133.991 622.773 133.991 622.282 133.991 621.955C133.827 620.81 133.991 619.339 134.318 617.703C134.645 616.067 134.645 614.922 134.645 613.941C134.645 613.124 134.482 611.814 134.645 610.18C134.645 608.544 134.645 607.235 134.482 606.417C133.991 603.31 133.337 601.349 132.029 600.367C130.72 599.386 128.758 599.059 125.978 599.549C124.506 599.713 123.034 601.02 121.562 603.147C120.09 605.273 118.291 608.544 116.656 612.797C115.347 615.904 114.202 619.01 113.221 621.955C112.24 624.898 111.586 627.842 110.932 630.46C110.441 632.094 110.114 633.565 109.623 634.71C109.296 636.019 108.969 637.164 108.478 637.982C107.661 642.724 106.843 647.14 106.352 651.228C105.698 655.318 105.208 659.079 105.208 662.514L105.862 663.821C105.534 664.476 105.371 666.111 105.371 668.729C105.207 671.345 105.371 673.308 105.371 674.453C105.698 674.779 105.698 675.269 105.862 675.924C105.862 676.414 106.025 676.742 106.025 677.069C106.025 677.232 105.861 677.558 105.698 677.723L101.446 682.793C100.792 683.611 100.301 684.591 99.974 685.409C99.6468 686.227 99.3199 686.881 98.9929 687.372C98.5023 687.863 98.0116 688.353 97.6844 688.68C97.3574 689.008 96.8668 689.171 96.5398 689.171C96.2126 689.171 95.8854 689.171 95.5584 688.844C95.2312 688.68 94.9042 688.19 94.7406 687.699C95.0676 687.045 95.5584 686.39 96.049 685.245C96.5396 684.1 96.8669 682.956 97.0305 681.321C97.3575 679.848 97.5208 678.541 97.5208 677.559C97.6842 676.251 97.5208 675.433 97.5208 674.453C96.8666 670.036 95.5582 666.929 93.4322 664.966C91.3061 663.005 88.5259 662.349 84.928 662.841C84.601 662.841 83.7833 663.167 82.6385 663.658C81.4938 664.312 79.6948 665.13 77.7322 666.275L77.0779 665.621C77.5685 664.476 77.8958 663.167 78.223 662.023C78.0594 661.531 77.7321 661.205 77.0779 661.042C76.5873 660.878 75.7695 660.878 74.6247 661.042C73.6435 661.205 72.8259 661.531 72.0083 662.023C71.1905 662.514 70.5362 663.167 69.7184 663.985C69.2278 664.803 68.5736 665.621 68.083 666.439C67.5924 667.255 66.9384 668.073 66.2842 668.891C65.7936 669.545 65.1394 670.2 64.6488 670.854C63.9946 671.508 63.3403 672.163 62.8497 672.979C62.0319 673.797 61.5416 674.615 61.051 675.433C60.5602 676.251 60.2331 676.905 60.0695 677.559C59.9059 677.723 59.7426 677.887 59.4155 678.214C59.7426 677.396 59.9059 676.742 60.0695 675.924C61.0508 671.999 61.2143 667.255 60.3965 661.86C59.9059 658.915 59.2519 656.134 58.4341 653.845C57.6163 651.393 56.6353 649.103 55.3269 647.14C54.3457 645.342 52.8737 643.542 51.2384 641.743C49.4394 639.781 47.3131 637.818 44.8599 635.528C44.5329 635.201 44.0423 634.875 43.7151 634.383C43.3881 634.057 43.0611 633.894 42.8975 633.73C41.2621 632.585 39.7902 631.604 38.809 630.786C37.8276 629.968 37.1736 629.477 36.8464 628.986C34.3932 627.842 32.758 626.861 31.6132 625.88C30.4684 624.898 27.8514 623.753 23.5992 622.444C22.1274 621.955 20.6556 621.628 19.1837 621.137C17.7118 620.646 16.4033 620.319 14.9314 619.828L12.642 620.155C12.1514 619.828 11.1699 619.501 10.0251 619.174C8.55324 619.339 6.42749 621.3 3.81081 624.898C1.03057 628.497 -0.277861 630.949 0.0492256 632.421C0.0492256 632.749 0.376072 633.403 1.03024 634.221C1.68442 635.039 2.82946 636.184 4.1378 637.655C5.44615 639.289 6.59095 640.598 7.40868 641.743C8.22639 642.724 8.88032 643.706 9.20741 644.36L8.22639 668.4L9.0441 671.018C8.88056 672.652 8.88064 674.288 8.7171 675.597C8.7171 676.905 8.5534 678.05 8.5534 678.705C8.71694 681.484 8.71686 683.611 8.8804 685.083C8.8804 686.554 8.8804 687.535 8.8804 687.863C8.71686 690.806 8.71694 693.75 8.5534 696.695C8.5534 697.184 8.88032 698.002 9.20741 698.983C9.53449 699.965 9.69827 700.783 9.86182 701.274C10.1889 703.235 9.04402 704.871 6.91796 706.342C4.62836 707.814 3.64709 708.796 3.64709 709.45C3.64709 709.941 3.97419 710.432 4.46482 710.922C4.95545 711.25 5.6097 711.577 6.59095 711.904C7.24512 712.231 7.89921 712.557 8.5534 712.722C9.20757 713.049 9.86166 713.211 10.5158 713.375L11.4972 717.628C11.1702 720.08 11.0064 722.207 10.8428 723.843C10.6793 725.477 10.6793 726.949 10.8428 727.931C11.3335 731.365 11.9877 738.398 12.969 740.032C13.9502 741.668 15.2588 742.322 16.8942 742.159C17.712 741.995 18.5296 741.504 19.3474 740.688C20.1652 739.87 20.9826 738.725 21.6368 737.253C22.291 735.944 22.7816 734.964 23.2724 733.982C23.763 733.001 24.09 727.277 24.417 726.295C23.1086 725.15 22.2908 724.005 21.4732 723.025C20.819 722.043 20.3284 721.062 20.3284 720.244C20.1649 717.955 20.0013 715.501 19.8377 713.049C19.5107 709.287 19.5107 707.325 19.8377 706.998C20.1649 706.834 20.9826 706.507 22.4546 706.342C22.9452 706.342 23.5992 706.016 24.417 705.362C25.2348 704.871 26.3797 704.217 27.5245 703.399C31.9402 700.783 36.0286 698.493 39.9536 696.366C41.9161 695.221 43.5517 694.241 45.0237 693.423C42.5705 697.184 48.6213 699.474 54.1818 694.895C55.163 694.077 55.4902 693.587 55.8172 693.587C56.3078 693.587 56.6351 693.587 56.7987 693.75C56.9621 693.914 57.2893 694.241 57.2893 694.568C57.2893 694.895 57.1259 696.204 56.9623 698.166C56.6353 700.129 56.6351 701.763 56.7987 703.072C57.1257 706.016 58.5975 708.305 61.2143 710.432C63.8309 712.557 66.4479 713.211 69.2281 712.884C69.7187 712.722 70.2093 712.557 70.8635 712.393C71.6813 712.066 72.0081 711.904 72.3353 711.904C73.1529 711.74 73.9708 711.577 74.952 711.086C75.9334 710.595 76.9146 709.941 78.223 709.123C80.1856 707.978 81.9842 706.669 83.6196 705.035C85.0914 703.399 86.3999 701.763 87.3811 699.965C87.8717 700.945 88.6895 701.601 89.5073 702.09C90.3251 702.419 91.3064 702.745 92.4512 702.419C93.4324 702.254 94.4138 701.928 95.395 701.436C96.2127 700.783 97.3572 699.965 98.3384 698.983C99.1562 698.166 99.9741 697.348 100.628 696.53C101.446 695.712 102.1 694.732 102.918 693.914C104.063 692.605 104.88 691.624 105.535 690.48C106.189 689.497 106.843 688.68 107.497 687.863C107.988 688.19 108.315 688.517 108.642 688.844C108.969 689.171 109.133 689.497 109.296 689.989C110.605 694.241 112.24 697.511 114.366 699.311C116.492 701.274 118.945 702.09 121.725 701.763C122.543 701.601 123.851 701.601 125.487 701.601C127.122 701.436 128.267 701.436 129.085 701.274C130.557 701.11 132.029 700.456 133.664 699.638C135.136 698.82 136.608 697.511 137.916 696.039C139.061 694.732 140.206 693.423 141.35 692.114C142.495 690.642 143.64 689.497 144.785 688.026H144.621C146.257 685.736 147.565 683.938 148.874 682.629C150.182 681.321 151 680.666 151.817 680.666C152.145 680.666 152.471 680.83 153.125 681.321C153.616 681.811 154.27 682.629 154.925 683.611C155.579 684.265 156.069 684.756 156.56 685.409C157.051 685.901 157.378 686.39 157.705 686.718C159.994 691.133 161.793 693.914 163.265 694.732C164.737 695.548 167.682 695.712 172.261 695.059C173.079 694.895 174.059 694.568 175.367 693.587C176.676 692.605 178.312 691.298 180.11 689.662C181.746 688.026 183.218 686.718 184.362 685.574C185.507 684.429 186.488 683.284 187.143 682.466C187.47 681.648 187.961 680.995 188.124 680.503C188.45 680.012 188.615 679.685 188.777 679.359C191.067 676.414 193.194 673.635 195.483 671.018C196.955 669.382 198.1 667.747 199.082 666.275C200.063 664.803 200.88 663.494 201.37 662.187L202.025 661.696C202.516 661.858 202.679 662.023 202.843 662.349C202.352 663.821 202.025 665.13 201.698 666.275C201.698 668.238 201.698 670.2 201.534 672.163C201.534 673.308 201.534 674.288 201.534 675.269C201.534 676.087 201.534 676.742 201.534 677.232C201.372 677.559 201.372 677.887 201.207 678.376C200.88 679.685 200.88 681.484 200.88 683.611C201.045 685.736 201.207 688.19 201.698 690.969C202.025 693.587 202.843 695.386 204.151 696.53C205.295 697.675 207.096 698.166 209.221 697.839C210.201 697.675 211.184 697.348 212.328 696.53C213.309 695.877 214.454 694.732 215.436 693.259C216.09 692.278 216.908 691.133 217.561 689.989C218.217 688.844 219.033 687.699 219.851 686.718C220.669 685.736 221.322 684.756 221.814 684.1C222.467 683.284 222.958 682.629 223.449 681.975C224.594 680.995 225.575 680.012 226.393 679.194C227.211 678.376 227.702 677.723 228.193 676.905V676.742C228.682 676.087 229.173 675.433 229.5 674.942C229.991 674.453 230.318 674.288 230.809 674.288C231.299 674.124 231.79 674.453 232.281 674.942C232.772 675.433 233.261 676.087 233.917 677.069C234.733 678.376 235.224 679.359 235.878 680.339C236.533 681.321 237.024 681.811 237.678 682.302C238.658 683.12 239.967 683.774 241.602 684.1C243.075 684.429 244.709 684.429 246.509 684.265C247.817 684.1 249.126 683.774 250.106 683.447C251.089 683.12 251.905 682.629 252.56 682.139C254.523 681.811 256.484 680.83 258.611 679.194C260.736 677.396 263.027 675.106 265.48 671.835C266.133 670.69 266.462 669.873 266.624 669.545C266.789 669.056 266.951 668.891 267.116 668.729C268.26 666.929 269.241 665.457 270.059 664.312C270.877 663.167 271.53 662.023 272.186 661.042L272.839 661.696C273.004 662.514 273.004 663.332 272.839 664.476C272.839 665.621 272.675 666.766 272.513 668.238C272.022 671.345 271.695 674.124 271.695 676.905C271.695 679.521 271.857 682.139 272.186 684.429C272.513 686.718 273.166 688.353 274.475 689.497C275.456 690.48 277.092 690.807 279.055 690.642C280.362 690.48 281.344 689.824 281.998 688.844C282.816 687.699 283.469 686.718 283.961 685.736C284.45 684.918 285.105 684.265 285.595 683.774C286.086 683.284 286.413 682.793 286.577 682.302C287.395 681.157 288.049 680.012 288.702 678.705C289.358 677.559 290.176 676.414 290.829 675.269C291.974 673.47 293.283 671.508 294.917 669.545C295.082 669.545 297.207 670.69 301.132 673.308C305.058 675.76 307.837 676.905 309.308 676.742C310.782 676.578 312.089 676.087 313.398 675.269C314.706 674.453 316.015 673.144 317.324 671.508C318.468 670.363 319.449 669.056 320.43 667.747C321.412 666.439 322.556 665.13 323.539 663.821L323.374 663.658C323.701 663.167 324.028 662.676 324.028 662.349C324.192 662.023 324.355 661.696 324.355 661.369C325.173 660.387 325.827 659.733 326.318 658.915C326.809 658.261 327.3 657.608 327.789 657.279C328.116 656.952 328.607 656.463 329.263 655.481C330.079 654.5 330.897 653.191 332.206 651.555C333.186 650.084 334.004 649.103 334.658 648.449C335.313 647.631 335.967 647.305 336.458 647.305C336.948 647.305 337.439 647.305 337.603 647.467C337.93 647.631 338.092 647.794 338.092 648.285C338.257 648.612 338.257 648.939 338.092 649.43C338.092 649.921 337.93 650.575 337.93 651.228C337.766 651.884 337.603 652.537 337.603 652.864C337.439 653.355 337.439 653.682 337.439 653.845C336.785 658.097 336.294 662.023 335.64 665.13C335.149 668.238 334.658 671.018 334.169 673.144C334.495 674.453 334.822 675.924 335.313 677.232C335.64 678.541 336.785 679.032 338.748 678.868C339.728 678.703 340.71 678.541 341.364 678.214C342.182 677.887 342.836 677.396 343.327 676.742C343.816 676.087 344.472 675.433 344.961 674.779C345.452 673.962 346.106 673.308 346.597 672.653C348.724 669.709 350.522 667.255 351.83 665.13C353.303 663.005 354.284 661.369 354.775 660.06C354.937 659.406 355.593 658.752 356.409 658.097C357.391 657.443 358.7 655.972 360.661 653.845C361.643 652.7 362.461 651.884 363.278 651.066C364.096 650.41 364.914 649.757 365.896 649.43L366.549 649.594C367.859 650.902 369.003 651.884 369.984 652.864C370.966 653.845 371.782 654.5 372.6 655.154C373.582 656.625 374.399 657.77 375.217 658.915C375.872 659.733 376.526 660.387 377.017 660.715C377.835 661.696 378.815 662.187 379.96 662.676C381.105 663.005 382.085 663.005 383.394 662.841C384.375 662.676 385.357 662.349 386.175 661.86C387.156 661.369 388.138 660.387 389.118 659.242C389.936 658.424 390.59 657.608 391.408 656.79C392.226 655.972 392.88 655.154 393.698 654.336C395.333 652.046 396.642 650.084 397.95 648.939C399.095 647.631 400.075 646.976 400.893 646.813C401.22 646.813 401.548 646.976 402.202 647.467C402.693 647.958 403.347 648.776 404.165 649.757C404.654 650.41 405.31 650.902 405.799 651.555C406.29 652.046 406.617 652.373 406.946 652.864C409.235 657.443 411.034 660.06 412.505 660.878C413.977 661.696 416.92 661.86 421.499 661.205C422.155 661.042 423.299 660.551 424.607 659.569C425.916 658.588 427.552 657.443 429.35 655.645C430.986 654.009 432.458 652.7 433.602 651.555C434.747 650.41 435.728 649.266 436.383 648.449C437.037 647.305 437.364 646.487 437.528 646.16C437.691 645.831 437.855 645.504 438.017 645.178C439 643.379 440.144 642.07 440.962 640.763C441.779 639.618 442.597 638.473 443.088 637.655L443.579 638.309C443.741 638.963 443.741 639.945 443.579 641.09C443.579 642.234 443.415 643.379 443.252 644.851C442.761 647.794 442.434 650.739 442.434 653.518C442.434 656.134 442.434 658.752 442.925 661.205C443.252 663.494 443.906 665.13 445.05 666.111C446.195 667.093 447.667 667.42 449.794 667.093C451.101 666.929 452.083 666.439 452.737 665.294C453.391 664.312 454.209 663.167 454.7 662.187C455.189 661.369 455.845 660.715 456.336 660.224C456.825 659.733 457.152 659.242 457.316 658.752C458.134 657.608 458.788 656.463 459.442 655.318C460.097 654.173 460.751 653.028 461.569 651.884C462.713 649.921 464.021 648.121 465.657 646.16C465.983 645.996 467.946 647.305 471.872 649.921C475.797 652.537 478.413 653.682 480.049 653.518C481.521 653.191 482.828 652.7 484.137 651.884C485.445 651.066 486.754 649.921 488.063 648.285C489.208 646.976 490.188 645.669 491.17 644.36C492.151 643.052 493.296 641.743 494.276 640.434C493.949 639.454 502.127 627.679 499.346 626.37ZM42.7338 683.611C42.2432 684.265 41.262 685.083 40.2806 686.227C39.463 687.045 38.8091 687.699 38.1549 688.19C37.5007 688.844 36.8464 689.335 36.3558 689.662C35.0474 690.48 33.9026 691.298 32.7578 691.951C31.6131 692.605 30.4684 693.587 29.16 694.403C27.3611 695.713 25.7255 696.693 24.5807 697.348C23.436 698.002 22.4544 698.329 21.9638 698.329C21.6368 698.329 21.31 698.329 20.9828 698.002C20.6558 697.839 20.4922 697.348 20.4922 696.857C20.165 694.732 20.1649 691.787 20.3284 688.19C20.492 684.591 20.819 680.177 21.4732 674.942L20.4922 671.999C20.9828 670.527 21.637 666.275 22.6183 659.242C23.5995 652.211 23.9266 648.285 23.763 647.305C23.436 644.36 19.8377 640.434 13.296 635.201C13.296 634.874 13.2961 634.548 13.4597 634.548C13.6232 634.383 13.7866 634.221 14.1137 634.221C15.9127 634.71 17.3847 635.366 18.6931 635.692C20.1649 636.184 21.3096 636.346 22.2908 636.673C22.945 637.164 23.4358 637.655 24.09 637.982C24.5806 638.473 25.2346 638.8 25.5618 638.963C29.4867 641.416 32.5943 643.706 35.0473 645.669C37.337 647.631 39.1361 649.43 40.1173 650.739C40.4443 651.393 40.9351 652.046 41.4257 652.537C41.7529 652.864 42.2433 653.355 42.5705 653.518C42.8975 653.845 43.2244 654.173 43.5515 654.5C43.8785 654.663 44.0421 654.99 44.0421 655.318L44.5329 657.117C45.6777 658.915 46.4956 660.878 47.1498 662.676C47.804 664.476 48.2944 666.275 48.6214 668.073C48.9486 671.181 48.9488 673.797 47.9674 676.251C47.1498 678.541 45.8414 680.666 43.8789 682.466C43.7153 682.629 43.2244 682.956 42.7338 683.611ZM87.0541 685.736C87.0541 686.718 86.8907 687.699 86.7271 688.353C86.5637 689.008 86.4001 689.497 85.9095 689.824C85.4187 690.807 84.7645 691.787 84.1104 692.769C82.802 695.548 81.1664 697.675 79.531 699.147C77.7321 700.618 75.7697 701.601 73.4799 701.928C72.0081 702.09 71.0268 701.928 70.2092 701.274C69.3914 700.619 68.9009 699.638 68.7374 698.329C68.5739 697.511 68.5739 696.695 68.7374 695.548C68.9009 694.403 69.0644 693.096 69.3914 691.46C69.7186 689.662 70.0456 688.19 70.5362 687.208C71.0268 686.227 71.3539 685.736 71.8445 685.574C72.6623 685.245 73.3163 685.083 73.8069 684.591C74.2975 684.265 74.9521 683.611 75.2791 682.956C75.9333 681.484 76.5873 680.177 77.0779 678.868C77.4049 678.05 77.8958 677.396 78.223 676.905C78.7136 676.414 78.8769 676.087 79.204 675.924C80.8394 675.924 81.9844 675.924 82.9656 675.924C83.7833 676.087 84.4375 676.087 84.601 676.251C85.0916 676.414 85.4187 676.905 85.9095 677.723C86.5637 678.541 87.054 679.685 87.7081 680.993L87.0541 685.736ZM114.857 661.042C114.693 660.387 114.857 659.079 115.02 657.279C115.347 655.481 115.674 653.191 116.328 650.248C116.982 648.285 117.473 646.487 118.127 644.851C118.454 643.542 118.945 642.397 119.109 641.416C119.272 640.598 119.436 639.945 119.272 639.618C119.109 637.491 119.436 635.039 120.417 632.421C121.562 629.804 123.197 627.188 125.651 624.08L126.141 624.245C126.141 625.225 125.978 626.207 125.978 627.188C125.814 628.17 125.814 629.151 125.978 630.131C125.978 631.276 125.487 634.383 124.342 639.127C123.197 643.87 122.379 646.813 121.725 647.958C121.071 649.594 120.417 651.228 119.926 652.537C119.272 653.845 118.782 654.827 118.618 655.808C117.964 657.608 117.473 658.915 116.983 659.897C116.492 660.878 116.001 661.369 115.511 661.531L114.857 661.042ZM240.459 653.845C240.13 654.5 239.803 654.827 239.314 654.827C238.823 654.99 238.658 654.827 238.496 654.827C238.332 654.663 238.167 654.5 238.167 654.173C238.005 652.864 238.659 650.575 240.13 647.631C241.603 644.524 242.747 642.888 243.891 642.725C244.22 642.725 244.547 642.725 244.709 643.052C244.874 643.379 245.038 643.706 245.038 644.033C245.2 644.687 245.036 645.504 244.874 646.16C244.547 646.976 244.382 647.631 243.729 648.449C243.402 649.103 242.911 649.594 242.584 650.248C242.093 650.902 241.766 651.555 241.275 652.046C241.112 652.7 240.785 653.191 240.459 653.845Z" fill="#00426D"/>
<path fill-rule="evenodd" clip-rule="evenodd" d="M460.424 64.1089C462.713 58.712 463.856 52.6609 463.856 46.4463C463.856 20.7699 442.923 0 417.247 0C391.57 0 370.802 20.7699 370.802 46.4463C370.802 47.264 370.802 48.0817 370.964 48.8995H89.1796C40.1167 48.8995 0.048584 88.9676 0.048584 137.867V459.066C0.048584 507.965 40.1167 548.033 89.1796 548.033H410.869C459.768 548.033 500 507.965 500 459.066V138.03C500 107.284 484.137 80.1361 460.424 64.1089Z" fill="#00426D"/>
<path fill-rule="evenodd" clip-rule="evenodd" d="M444.554 199.032V298.466V398.064V497.498H390.094V444.184L386.824 453.996L382.736 463.646L377.992 472.64L372.595 480.817L369.652 484.416L366.544 487.686L359.838 492.919L356.241 494.882L352.48 496.518L348.717 497.336L344.793 497.498H289.351L277.087 409.023L304.724 409.676L313.229 409.512L321.733 409.023L330.238 407.223L334.326 405.915L337.925 404.115L339.559 402.154L340.868 399.7L342.013 397.411L342.831 394.794L343.32 391.849L343.484 388.743L343.32 382.202L342.177 375.333L340.214 368.3L337.925 361.104L335.144 354.236L303.253 290.781L328.275 242.536L331.71 234.685L334.49 227.816L336.289 221.601L337.596 216.041L337.925 210.971L337.76 206.719L337.107 202.958L335.798 199.688L333.999 196.907L331.71 194.617L328.929 192.817L325.659 191.346L322.224 190.201L318.462 189.547L314.209 189.056H309.794H287.717L288.535 203.611L288.697 218.331L288.208 233.049L286.899 247.769L285.263 262.16L282.973 276.226L280.194 289.472L278.558 295.687L277.087 301.738L275.124 308.116L272.67 314.495L267.11 327.905L263.839 334.937L260.404 341.97L252.228 356.198L247.976 363.556L243.397 370.754L233.42 385.309L222.953 399.536L217.392 406.569L211.996 413.602V497.498H167.675V450.071L158.026 497.498H55.4847V398.064V298.466V199.032V99.5983H109.945L109.618 254.473L109.454 409.676H167.675V307.298V205.083H211.996V309.26L216.411 301.738L221.644 292.58L226.879 282.439L231.949 271.482L236.526 260.034L240.289 248.422L241.923 242.536L242.906 236.974L243.559 231.251L243.886 226.018L243.397 213.914L241.923 205.247L240.616 202.304L239.307 199.85L237.673 197.887L235.873 196.58L231.458 195.271L226.225 194.944L213.304 195.435H155.246L167.675 100.089H225.734L231.294 100.253L236.855 101.234L241.597 102.542L246.503 104.505L250.919 106.958L255.007 109.738L259.097 113.009L262.531 116.77L266.128 120.695L269.073 125.438L274.469 135.251L276.922 140.811L279.048 146.535L281.01 152.423L282.482 158.801L290.66 99.5983H335.962L341.359 99.9255L346.429 101.234L351.007 103.033L355.586 105.322L360.002 108.593L363.928 112.355L367.689 116.77L370.959 121.677L374.231 126.91L377.012 132.634L379.3 139.012L381.262 145.554L382.898 152.423L384.043 159.619L384.861 167.142L385.025 174.827L384.697 192.328L383.552 207.701L381.591 221.765L380.444 228.634L379.137 235.012L375.867 247.769L372.104 260.526L362.946 288L368.834 301.738L376.029 319.563L383.552 340.661L387.151 352.109L390.094 364.048V231.742V99.5983H444.554V199.032Z" fill="white"/>
<path fill-rule="evenodd" clip-rule="evenodd" d="M417.244 86.0244C395.493 86.0244 377.667 68.1981 377.667 46.447C377.667 24.6957 395.493 6.86945 417.244 6.86945C438.995 6.86945 456.822 24.6957 456.822 46.447C456.986 68.1981 439.159 86.0244 417.244 86.0244Z" fill="#ED1C24"/>
<path d="M163.273 619.172C164.581 619.01 165.398 619.172 166.052 619.499C166.707 619.99 167.034 620.644 167.197 621.462C167.034 622.935 167.034 624.08 166.87 625.06C166.708 626.859 166.379 628.495 166.216 629.639C165.89 630.784 165.725 631.602 165.725 632.093C165.398 633.238 164.907 634.219 164.418 635.199C163.763 636.181 162.946 636.999 161.964 637.817C160.983 638.634 160.002 639.451 159.347 639.78C158.693 640.107 158.203 640.434 157.876 640.434C157.058 640.434 156.24 640.434 155.423 640.434C154.768 640.434 153.95 640.596 153.133 640.76C152.478 640.434 151.825 639.78 151.334 638.962C150.68 637.98 150.516 636.672 150.189 635.037C150.026 633.565 150.68 631.602 152.152 629.148C153.624 626.696 155.095 625.223 156.404 624.896C157.058 623.751 157.875 622.444 158.857 620.972C159.347 620.644 159.838 620.154 160.656 619.827C161.473 619.499 162.291 619.172 163.273 619.172Z" fill="#ED1C24"/>
<path d="M412.168 584.666C413.476 584.504 414.294 584.666 414.947 584.995C415.603 585.484 415.93 586.139 416.092 587.12C415.93 588.592 415.93 589.736 415.93 590.554C415.603 592.353 415.439 593.824 415.112 595.133C414.949 596.278 414.785 597.096 414.621 597.587C414.294 598.732 413.803 599.877 413.313 600.695C412.658 601.511 411.842 602.493 410.859 603.311C409.879 604.292 409.061 604.945 408.243 605.274C407.425 605.601 406.934 605.928 406.771 605.928C405.953 605.928 405.135 605.928 404.317 606.09C403.5 606.09 402.846 606.254 402.028 606.254C401.374 605.928 400.72 605.437 400.229 604.456C399.738 603.474 399.247 602.166 399.085 600.531C398.92 599.059 399.576 597.096 401.047 594.642C402.519 592.19 403.828 590.719 405.3 590.39C405.953 589.245 406.771 587.938 407.752 586.466C408.243 586.139 408.734 585.648 409.55 585.321C410.206 584.995 411.186 584.83 412.168 584.666Z" fill="#ED1C24"/>
</svg>
